<?xml version="1.0" encoding="utf-8"?>
<!-- Generator: Adobe Illustrator 25.0.1, SVG Export Plug-In . SVG Version: 6.00 Build 0)  -->
<svg version="1.1" xmlns="http://www.w3.org/2000/svg" xmlns:xlink="http://www.w3.org/1999/xlink" x="0px" y="0px"
	 viewBox="0 0 750 500" style="enable-background:new 0 0 750 500;" xml:space="preserve">
<style type="text/css">
	.st0{fill:#EBEBEB;}
	.st1{fill:#E0E0E0;}
	.st2{fill:#F5F5F5;}
	.st3{fill:#FAFAFA;}
	.st4{display:none;}
	.st5{display:inline;}
	.st6{opacity:0.4;}
	.st7{fill:#263238;}
	.st8{fill:#E8505B;}
	.st9{opacity:0.3;}
	.st10{fill:#FFFFFF;}
	.st11{fill:#455A64;}
	.st12{opacity:0.5;}
	.st13{opacity:0.5;fill:#FFFFFF;}
	.st14{fill:#FFBE9D;}
	.st15{fill:#EB996E;}
	.st16{opacity:0.2;}
</style>
<g id="Background_Complete">
	<g>
		<g>
			<g>
				<g>
					<path class="st0" d="M151.88,437.14c17.55-15.39,19.15-40.53,15.95-62.62c-0.53-3.69-0.56-7.63-2.68-10.69
						c-2.12-3.05-6.47-4.82-9.61-2.89c-2.61,1.6-3.45,4.93-4.7,7.74c-1.66,3.74-4.38,6.99-7.77,9.25c-2.22,1.48-5.05,2.55-7.52,1.53
						c-3.39-1.41-4.25-5.78-4.63-9.46c-0.71-6.87-1.43-13.73-2.14-20.59c-0.38-3.68-0.79-7.44-2.32-10.81
						c-1.53-3.37-4.42-6.33-8.03-6.93c-3.61-0.59-7.72,1.9-8.06,5.59c-0.14,1.53,0.33,3.06,0.4,4.59c0.07,1.54-0.46,3.31-1.86,3.89
						c-1.42,0.59-3.01-0.29-4.23-1.24c-4.21-3.3-7.32-7.8-10.25-12.3c-2.93-4.5-5.81-9.11-9.71-12.79
						c-3.89-3.67-9.02-6.36-14.32-6.08c-5.31,0.28-10.56,4.16-11.32,9.48c-0.76,5.34,2.84,10.27,6.6,14.11
						c5.57,5.69,11.97,10.57,18.91,14.42c1.25,0.7,2.61,1.45,3.2,2.76c1.07,2.37-0.99,5.06-3.32,6.13
						c-2.64,1.22-5.65,1.26-8.48,1.91c-2.83,0.65-5.8,2.26-6.59,5.1c-1.09,3.93,2.49,7.53,5.87,9.77c6.77,4.49,14.3,7.79,22.16,9.73
						c2.82,0.69,5.76,1.25,8.16,2.91c2.39,1.66,4.08,4.82,3.04,7.56c-1.03,2.74-4.33,3.94-7.22,3.73c-2.89-0.21-5.6-1.47-8.42-2.19
						c-5.27-1.35-11.76-0.28-14.52,4.45c-1.81,3.11-1.56,7.13-0.1,10.44c1.45,3.31,3.96,6.02,6.58,8.48
						c9.16,8.62,20.38,15.13,32.56,17.91C129.7,442.78,140.69,442.69,151.88,437.14"/>
				</g>
			</g>
		</g>
		<g>
			<g>
				<g>
					<g>
						<path class="st1" d="M153.99,453.54c-1.77-8.69-4.84-18.86-9.36-29.67c-4.5-10.83-10.41-22.29-17.01-34.07
							c-1.66-2.94-3.3-5.84-4.92-8.7c-1.62-2.85-3.23-5.68-4.97-8.35c-3.46-5.35-7.2-10.24-10.89-14.76
							c-3.69-4.53-7.36-8.69-10.82-12.56c-3.47-3.86-6.77-7.4-9.91-10.5c-6.27-6.22-11.92-10.63-15.92-13.49
							c-2-1.44-3.58-2.51-4.67-3.22c-0.52-0.34-0.93-0.6-1.24-0.8c-0.28-0.18-0.43-0.26-0.43-0.25c-0.01,0.01,0.13,0.12,0.4,0.31
							c0.3,0.21,0.7,0.49,1.2,0.85c1.06,0.75,2.62,1.85,4.59,3.32c3.94,2.93,9.52,7.38,15.73,13.62c3.12,3.11,6.39,6.66,9.83,10.53
							c3.44,3.88,7.08,8.05,10.75,12.58c3.67,4.53,7.38,9.4,10.82,14.73c1.73,2.66,3.32,5.46,4.94,8.32
							c1.61,2.86,3.25,5.76,4.91,8.7c6.59,11.77,12.51,23.19,17.02,33.97c4.53,10.77,7.64,20.88,9.47,29.53"/>
					</g>
				</g>
			</g>
		</g>
		<g>
			<g>
				<g>
					<g>
						<path class="st1" d="M117.54,372.75c0.05,0,0.11-0.57,0.19-1.61c0.08-1.04,0.15-2.54,0.21-4.41c0.12-3.72,0.1-8.87,0.06-14.54
							c-0.04-5.68,0.02-10.81,0.19-14.52c0.08-1.86,0.16-3.36,0.23-4.39c0.06-1.04,0.08-1.61,0.03-1.62
							c-0.05-0.01-0.15,0.56-0.29,1.59c-0.15,1.03-0.31,2.53-0.45,4.39c-0.3,3.72-0.43,8.87-0.39,14.55
							c0.05,5.6,0.1,10.66,0.14,14.53c0.01,1.75,0.01,3.22,0.01,4.4C117.46,372.17,117.49,372.74,117.54,372.75z"/>
					</g>
				</g>
			</g>
		</g>
		<g>
			<g>
				<g>
					<g>
						<path class="st1" d="M69.23,369.12c0,0.05,0.69,0.05,1.91,0.02c1.23-0.03,3-0.07,5.19-0.06c4.39-0.01,10.45,0.19,17.12,0.7
							c6.68,0.52,12.7,1.25,17.04,1.91c2.17,0.31,3.93,0.61,5.14,0.81c1.21,0.2,1.89,0.3,1.9,0.25c0.01-0.05-0.65-0.23-1.85-0.51
							c-1.2-0.28-2.94-0.65-5.11-1.03c-4.33-0.78-10.37-1.59-17.06-2.11c-6.7-0.51-12.78-0.63-17.18-0.5
							c-2.2,0.05-3.98,0.17-5.2,0.28C69.91,368.99,69.23,369.07,69.23,369.12z"/>
					</g>
				</g>
			</g>
		</g>
		<g>
			<g>
				<g>
					<g>
						<path class="st1" d="M143.95,423.06c0.02,0.01,0.11-0.2,0.26-0.61c0.17-0.49,0.37-1.08,0.62-1.8
							c0.53-1.57,1.24-3.85,2.08-6.69c1.69-5.67,3.77-13.58,5.95-22.34c2.18-8.76,4.19-16.68,5.75-22.38
							c0.77-2.77,1.4-5.05,1.87-6.75c0.2-0.74,0.36-1.34,0.5-1.84c0.11-0.42,0.15-0.65,0.13-0.66c-0.02-0.01-0.11,0.2-0.26,0.61
							c-0.17,0.49-0.37,1.08-0.62,1.8c-0.53,1.57-1.24,3.85-2.08,6.69c-1.69,5.67-3.77,13.58-5.95,22.35
							c-2.18,8.76-4.18,16.68-5.75,22.38c-0.77,2.77-1.4,5.05-1.87,6.75c-0.2,0.74-0.36,1.34-0.5,1.84
							C143.97,422.83,143.93,423.05,143.95,423.06z"/>
					</g>
				</g>
			</g>
		</g>
		<g>
			<g>
				<g>
					<g>
						<path class="st1" d="M78.83,409.73c0,0.02,0.22,0.09,0.65,0.19c0.51,0.11,1.14,0.25,1.89,0.41c1.75,0.36,4.11,0.85,6.98,1.44
							c5.89,1.22,14,2.99,22.97,4.96c8.97,1.97,17.11,3.67,23.02,4.77c2.96,0.55,5.36,0.97,7.02,1.22c0.77,0.11,1.4,0.21,1.92,0.28
							c0.44,0.06,0.67,0.08,0.68,0.05c0-0.02-0.22-0.09-0.65-0.19c-0.51-0.11-1.13-0.24-1.89-0.41c-1.75-0.36-4.1-0.85-6.97-1.44
							c-5.89-1.22-14.01-2.99-22.97-4.96c-8.96-1.97-17.1-3.67-23.02-4.77c-2.96-0.55-5.36-0.97-7.02-1.22
							c-0.77-0.11-1.4-0.21-1.92-0.28C79.06,409.72,78.83,409.71,78.83,409.73z"/>
					</g>
				</g>
			</g>
		</g>
	</g>
	<g>
		<rect x="153.35" y="193.82" class="st2" width="84.76" height="259.65"/>
		<rect x="237.85" y="193.82" class="st3" width="66.99" height="259.65"/>
		<g>
			<rect x="157.9" y="235.37" class="st1" width="71.9" height="20.24"/>
			<rect x="159.91" y="237.92" class="st2" width="4.03" height="15.49"/>
			<path class="st3" d="M168.68,241.18c0,0.71-0.57,1.28-1.28,1.28c-0.71,0-1.28-0.57-1.28-1.28c0-0.71,0.57-1.28,1.28-1.28
				C168.11,239.9,168.68,240.47,168.68,241.18z"/>
			<circle class="st3" cx="167.4" cy="246.65" r="1.28"/>
			<rect x="173.8" y="239.9" class="st2" width="3.96" height="11.9"/>
			<rect x="179.51" y="239.9" class="st2" width="3.96" height="11.9"/>
			<rect x="185.23" y="239.9" class="st2" width="3.96" height="11.9"/>
			<rect x="190.94" y="239.9" class="st2" width="3.96" height="11.9"/>
			<rect x="196.66" y="239.9" class="st2" width="3.96" height="11.9"/>
			<rect x="202.37" y="239.9" class="st2" width="3.96" height="11.9"/>
			<rect x="208.09" y="239.9" class="st2" width="3.96" height="11.9"/>
			<rect x="213.8" y="239.9" class="st2" width="3.96" height="11.9"/>
			<rect x="219.52" y="239.9" class="st2" width="3.96" height="11.9"/>
			<rect x="225.23" y="239.9" class="st2" width="3.96" height="11.9"/>
		</g>
		<g>
			<rect x="157.9" y="267.8" class="st1" width="71.9" height="20.24"/>
			<rect x="159.91" y="270.34" class="st2" width="4.03" height="15.49"/>
			<path class="st3" d="M168.68,273.6c0,0.71-0.57,1.28-1.28,1.28c-0.71,0-1.28-0.57-1.28-1.28c0-0.71,0.57-1.28,1.28-1.28
				C168.11,272.32,168.68,272.89,168.68,273.6z"/>
			<circle class="st3" cx="167.4" cy="279.07" r="1.28"/>
			<rect x="173.8" y="272.32" class="st2" width="3.96" height="11.9"/>
			<rect x="179.51" y="272.32" class="st2" width="3.96" height="11.9"/>
			<rect x="185.23" y="272.32" class="st2" width="3.96" height="11.9"/>
			<rect x="190.94" y="272.32" class="st2" width="3.96" height="11.9"/>
			<rect x="196.66" y="272.32" class="st2" width="3.96" height="11.9"/>
			<rect x="202.37" y="272.32" class="st2" width="3.96" height="11.9"/>
			<rect x="208.09" y="272.32" class="st2" width="3.96" height="11.9"/>
			<rect x="213.8" y="272.32" class="st2" width="3.96" height="11.9"/>
			<rect x="219.52" y="272.32" class="st2" width="3.96" height="11.9"/>
			<rect x="225.23" y="272.32" class="st2" width="3.96" height="11.9"/>
		</g>
		<g>
			<rect x="157.9" y="300.22" class="st1" width="71.9" height="20.24"/>
			<rect x="159.91" y="302.76" class="st2" width="4.03" height="15.49"/>
			<path class="st3" d="M168.68,306.02c0,0.71-0.57,1.28-1.28,1.28c-0.71,0-1.28-0.57-1.28-1.28c0-0.71,0.57-1.28,1.28-1.28
				C168.11,304.74,168.68,305.32,168.68,306.02z"/>
			<circle class="st3" cx="167.4" cy="311.5" r="1.28"/>
			<rect x="173.8" y="304.74" class="st2" width="3.96" height="11.9"/>
			<rect x="179.51" y="304.74" class="st2" width="3.96" height="11.9"/>
			<rect x="185.23" y="304.74" class="st2" width="3.96" height="11.9"/>
			<rect x="190.94" y="304.74" class="st2" width="3.96" height="11.9"/>
			<rect x="196.66" y="304.74" class="st2" width="3.96" height="11.9"/>
			<rect x="202.37" y="304.74" class="st2" width="3.96" height="11.9"/>
			<rect x="208.09" y="304.74" class="st2" width="3.96" height="11.9"/>
			<rect x="213.8" y="304.74" class="st2" width="3.96" height="11.9"/>
			<rect x="219.52" y="304.74" class="st2" width="3.96" height="11.9"/>
			<rect x="225.23" y="304.74" class="st2" width="3.96" height="11.9"/>
		</g>
		<g>
			<rect x="157.9" y="332.64" class="st1" width="71.9" height="20.24"/>
			<rect x="159.91" y="335.19" class="st2" width="4.03" height="15.49"/>
			<path class="st3" d="M168.68,338.45c0,0.71-0.57,1.28-1.28,1.28c-0.71,0-1.28-0.57-1.28-1.28c0-0.71,0.57-1.28,1.28-1.28
				C168.11,337.17,168.68,337.74,168.68,338.45z"/>
			<circle class="st3" cx="167.4" cy="343.92" r="1.28"/>
			<rect x="173.8" y="337.17" class="st2" width="3.96" height="11.9"/>
			<rect x="179.51" y="337.17" class="st2" width="3.96" height="11.9"/>
			<rect x="185.23" y="337.17" class="st2" width="3.96" height="11.9"/>
			<rect x="190.94" y="337.17" class="st2" width="3.96" height="11.9"/>
			<rect x="196.66" y="337.17" class="st2" width="3.96" height="11.9"/>
			<rect x="202.37" y="337.17" class="st2" width="3.96" height="11.9"/>
			<rect x="208.09" y="337.17" class="st2" width="3.96" height="11.9"/>
			<rect x="213.8" y="337.17" class="st2" width="3.96" height="11.9"/>
			<rect x="219.52" y="337.17" class="st2" width="3.96" height="11.9"/>
			<rect x="225.23" y="337.17" class="st2" width="3.96" height="11.9"/>
		</g>
		<g>
			<rect x="157.9" y="365.07" class="st1" width="71.9" height="20.24"/>
			<rect x="159.91" y="367.61" class="st2" width="4.03" height="15.49"/>
			<path class="st3" d="M168.68,370.87c0,0.71-0.57,1.28-1.28,1.28c-0.71,0-1.28-0.57-1.28-1.28c0-0.71,0.57-1.28,1.28-1.28
				C168.11,369.59,168.68,370.16,168.68,370.87z"/>
			<circle class="st3" cx="167.4" cy="376.35" r="1.28"/>
			<rect x="173.8" y="369.59" class="st2" width="3.96" height="11.9"/>
			<rect x="179.51" y="369.59" class="st2" width="3.96" height="11.9"/>
			<rect x="185.23" y="369.59" class="st2" width="3.96" height="11.9"/>
			<rect x="190.94" y="369.59" class="st2" width="3.96" height="11.9"/>
			<rect x="196.66" y="369.59" class="st2" width="3.96" height="11.9"/>
			<rect x="202.37" y="369.59" class="st2" width="3.96" height="11.9"/>
			<rect x="208.09" y="369.59" class="st2" width="3.96" height="11.9"/>
			<rect x="213.8" y="369.59" class="st2" width="3.96" height="11.9"/>
			<rect x="219.52" y="369.59" class="st2" width="3.96" height="11.9"/>
			<rect x="225.23" y="369.59" class="st2" width="3.96" height="11.9"/>
		</g>
		<g>
			<rect x="157.9" y="397.49" class="st1" width="71.9" height="20.24"/>
			<rect x="159.91" y="400.04" class="st2" width="4.03" height="15.49"/>
			<path class="st3" d="M168.68,403.29c0,0.71-0.57,1.28-1.28,1.28c-0.71,0-1.28-0.57-1.28-1.28c0-0.71,0.57-1.28,1.28-1.28
				C168.11,402.01,168.68,402.59,168.68,403.29z"/>
			<circle class="st3" cx="167.4" cy="408.77" r="1.28"/>
			<rect x="173.8" y="402.01" class="st2" width="3.96" height="11.9"/>
			<rect x="179.51" y="402.01" class="st2" width="3.96" height="11.9"/>
			<rect x="185.23" y="402.01" class="st2" width="3.96" height="11.9"/>
			<rect x="190.94" y="402.01" class="st2" width="3.96" height="11.9"/>
			<rect x="196.66" y="402.01" class="st2" width="3.96" height="11.9"/>
			<rect x="202.37" y="402.01" class="st2" width="3.96" height="11.9"/>
			<rect x="208.09" y="402.01" class="st2" width="3.96" height="11.9"/>
			<rect x="213.8" y="402.01" class="st2" width="3.96" height="11.9"/>
			<rect x="219.52" y="402.01" class="st2" width="3.96" height="11.9"/>
			<rect x="225.23" y="402.01" class="st2" width="3.96" height="11.9"/>
		</g>
		<g>
			<rect x="157.9" y="429.91" class="st1" width="71.9" height="20.24"/>
			<rect x="159.91" y="432.46" class="st2" width="4.03" height="15.49"/>
			<circle class="st3" cx="167.4" cy="435.72" r="1.28"/>
			<circle class="st3" cx="167.4" cy="441.19" r="1.28"/>
			<rect x="173.8" y="434.44" class="st2" width="3.96" height="11.9"/>
			<rect x="179.51" y="434.44" class="st2" width="3.96" height="11.9"/>
			<rect x="185.23" y="434.44" class="st2" width="3.96" height="11.9"/>
			<rect x="190.94" y="434.44" class="st2" width="3.96" height="11.9"/>
			<rect x="196.66" y="434.44" class="st2" width="3.96" height="11.9"/>
			<rect x="202.37" y="434.44" class="st2" width="3.96" height="11.9"/>
			<rect x="208.09" y="434.44" class="st2" width="3.96" height="11.9"/>
			<rect x="213.8" y="434.44" class="st2" width="3.96" height="11.9"/>
			<rect x="219.52" y="434.44" class="st2" width="3.96" height="11.9"/>
			<rect x="225.23" y="434.44" class="st2" width="3.96" height="11.9"/>
		</g>
		<g>
			<path class="st1" d="M202.37,235.37c-0.02,0-0.05-0.21-0.08-0.62c-0.03-0.41-0.06-1.02-0.08-1.8c-0.02-0.78-0.04-1.74-0.09-2.84
				c-0.07-1.1-0.14-2.37-0.5-3.69c-0.38-1.32-0.98-2.73-1.92-4.04c-0.93-1.31-2.25-2.48-3.93-3.16c-1.67-0.69-3.59-0.95-5.58-1.13
				c-2-0.17-4.07-0.35-6.19-0.54c-8.49-0.74-16.18-1.21-21.76-1.32c-2.79-0.06-5.05-0.05-6.61-0.04c-0.74,0.01-1.33,0.01-1.8,0.01
				c-0.41,0-0.63-0.01-0.63-0.03c0-0.02,0.21-0.04,0.62-0.08c0.47-0.03,1.06-0.07,1.8-0.11c1.56-0.07,3.82-0.14,6.62-0.12
				c5.59,0.01,13.31,0.43,21.8,1.17c2.12,0.19,4.19,0.37,6.2,0.55c2,0.19,3.97,0.46,5.72,1.2c1.76,0.72,3.15,1.98,4.1,3.35
				c0.96,1.37,1.55,2.83,1.92,4.19c0.35,1.39,0.39,2.66,0.43,3.77c0.03,1.11,0.01,2.07,0,2.85c-0.01,0.74-0.02,1.33-0.02,1.8
				C202.39,235.16,202.39,235.37,202.37,235.37z"/>
		</g>
		<g>
			<path class="st1" d="M180.56,235.37c-0.02,0-0.03-0.2-0.05-0.59c-0.01-0.44-0.01-1-0.02-1.69c-0.01-0.73-0.01-1.63-0.09-2.66
				c-0.1-1.02-0.26-2.22-0.89-3.33c-0.62-1.1-1.85-1.93-3.24-2.49c-1.4-0.55-3.06-0.77-4.72-0.48c-0.83,0.14-1.67,0.41-2.44,0.83
				c-0.76,0.42-1.47,1.01-1.89,1.79c-0.43,0.77-0.45,1.72,0.01,2.51c0.44,0.78,1.24,1.4,2.14,1.61c0.9,0.22,1.84-0.09,2.5-0.72
				c0.66-0.62,1.06-1.5,1.12-2.38c0.09-0.89-0.24-1.72-0.75-2.44c-0.5-0.71-1.16-1.29-1.89-1.67c-0.72-0.41-1.55-0.47-2.37-0.61
				c-0.81-0.12-1.6-0.23-2.36-0.31c-1.53-0.17-2.96-0.27-4.27-0.33c-2.62-0.1-4.74-0.07-6.21-0.07c-0.69,0-1.25-0.01-1.69-0.01
				c-0.39-0.01-0.59-0.02-0.59-0.04c0-0.02,0.2-0.04,0.59-0.07c0.44-0.02,1-0.05,1.69-0.09c1.47-0.06,3.59-0.15,6.23-0.1
				c1.32,0.03,2.76,0.11,4.3,0.27c0.77,0.08,1.57,0.18,2.38,0.29c0.41,0.06,0.82,0.12,1.25,0.19c0.44,0.08,0.87,0.24,1.27,0.44
				c0.81,0.41,1.53,1.04,2.08,1.81c0.55,0.75,0.95,1.75,0.85,2.76c-0.07,1-0.52,1.99-1.28,2.72c-0.74,0.73-1.9,1.12-2.97,0.85
				c-1.06-0.25-1.96-0.95-2.47-1.86c-0.54-0.92-0.52-2.12,0-3c0.49-0.9,1.28-1.53,2.1-1.98c0.83-0.45,1.72-0.72,2.6-0.87
				c1.76-0.29,3.5-0.04,4.96,0.55c1.44,0.6,2.73,1.49,3.4,2.71c0.65,1.21,0.78,2.45,0.86,3.49c0.05,1.05,0.03,1.95,0,2.69
				c-0.03,0.69-0.05,1.25-0.07,1.69C180.6,235.17,180.58,235.37,180.56,235.37z"/>
		</g>
		<g>
			<path class="st1" d="M208.24,235.37c-0.02,0-0.07-0.23-0.15-0.67c-0.08-0.44-0.2-1.09-0.38-1.92c-0.37-1.66-0.94-4.06-2.13-6.85
				c-1.17-2.77-3.05-5.98-6.25-8.39c-1.56-1.22-3.58-1.89-5.72-2.18c-2.14-0.31-4.42-0.3-6.74-0.36
				c-9.29-0.18-17.71-0.14-23.81-0.39c-3.05-0.11-5.51-0.25-7.21-0.38c-0.81-0.07-1.46-0.13-1.96-0.17
				c-0.45-0.04-0.68-0.08-0.68-0.1c0-0.02,0.24-0.02,0.69-0.01c0.5,0.02,1.15,0.04,1.96,0.07c1.7,0.06,4.16,0.15,7.21,0.21
				c6.09,0.15,14.5,0.06,23.81,0.23c2.32,0.07,4.6,0.05,6.8,0.38c2.18,0.3,4.32,1.01,5.94,2.3c1.61,1.26,2.96,2.68,3.96,4.19
				c1.02,1.5,1.76,3.02,2.34,4.43c1.16,2.84,1.68,5.28,1.98,6.96c0.15,0.84,0.24,1.5,0.29,1.94
				C208.24,235.13,208.26,235.37,208.24,235.37z"/>
		</g>
		<rect x="158.89" y="197.05" class="st1" width="69.92" height="10.15"/>
		<rect x="174.27" y="202.12" class="st2" width="38.07" height="5.08"/>
	</g>
</g>
<g id="Background_Simple" class="st4">
	<g class="st5">
		<g class="st6">
			<path class="st0" d="M525.03,180.77c-47.23-3.78-88.69,39.95-135.96,36.75c-33.02-2.24-60.22-26.91-82.19-52.34
				c-21.97-25.42-42.71-53.85-72.63-68.37c-26.83-13.02-59.38-12.86-86.09,0.41c-1.57,0.78-3.12,1.61-4.65,2.48
				c-31.98,18.2-50.44,54.06-48.63,91.57c3.59,74.04,49.1,128.36,97.79,164.61c56.93,42.39,139.93,51.19,210.15,54.86
				c42.39,2.21,89.01-14.4,126.38-35.08c37.37-20.67,67.02-59.61,68.66-103.18C599.51,228.92,567.34,184.16,525.03,180.77z"/>
		</g>
	</g>
</g>
<g id="Floor">
	<g>
		<path class="st7" d="M696.71,453.64c0,0.14-144.05,0.26-321.69,0.26c-177.71,0-321.72-0.12-321.72-0.26s144.01-0.26,321.72-0.26
			C552.66,453.38,696.71,453.5,696.71,453.64z"/>
	</g>
</g>
<g id="Plants">
	<g>
		<g>
			<path class="st8" d="M643.88,328.66c0,0-5.76-3.74-12.64,10.03c-6.87,13.77-9.46,21.7-9.46,21.7s-1.82,2.89-3.81,1.03
				c-1.99-1.86-4.74-7.17-8.08-6.18c-3.47,1.02-4.58,4.92-3.87,10.62c0.71,5.7,1.81,18.25,1.91,19.38c0.09,1.11-0.53,2.76-2.09,1.71
				c-1.56-1.05-10.55-10.9-14.97-6.36c-4.42,4.55,0.17,20.1,0.64,21.81c0.47,1.71,0.14,2.44-0.67,2.88s-3.52-3.17-6.2-5.86
				c-2.67-2.7-6.25-5.36-8.58-2.52c-2.33,2.84-2.99,14.54,8.31,33.45l5.81,8.42l10.25-0.65c21.85-2.74,30.68-10.46,31.48-14.04
				c0.8-3.58-3.49-4.76-7.26-5.21c-3.77-0.45-8.28-0.37-8.43-1.27c-0.16-0.9,0.22-1.62,1.85-2.3c1.64-0.68,16.72-6.64,17.59-12.92
				c0.87-6.28-12.44-7.31-14.22-7.89c-1.79-0.58-0.87-2.09,0.06-2.7c0.95-0.62,11.52-7.48,16.45-10.43
				c4.93-2.95,7.31-6.22,5.98-9.59c-1.28-3.25-7.15-2.15-9.85-2.57c-2.69-0.42-1.54-3.64-1.54-3.64s4.66-6.92,11.28-20.81
				c6.62-13.89-0.05-16.16-0.05-16.16"/>
		</g>
		<g>
			<g>
				<path class="st7" d="M637.71,340.99c0,0-0.04,0.1-0.12,0.3c-0.09,0.21-0.22,0.49-0.39,0.86c-0.36,0.77-0.88,1.88-1.54,3.3
					c-1.34,2.86-3.31,6.99-5.76,12.08c-4.9,10.19-11.79,24.2-19.46,39.65c-7.66,15.46-14.59,29.45-19.55,39.61
					c-2.47,5.07-4.47,9.18-5.86,12.03c-0.69,1.41-1.22,2.51-1.6,3.27c-0.18,0.36-0.32,0.64-0.42,0.85c-0.1,0.19-0.15,0.28-0.15,0.28
					s0.04-0.1,0.12-0.3c0.09-0.21,0.22-0.49,0.39-0.86c0.36-0.77,0.88-1.88,1.54-3.3c1.34-2.86,3.31-6.99,5.76-12.08
					c4.9-10.19,11.79-24.2,19.46-39.66c7.66-15.45,14.59-29.44,19.55-39.6c2.47-5.07,4.47-9.18,5.86-12.03
					c0.69-1.41,1.22-2.51,1.6-3.27c0.18-0.36,0.32-0.64,0.42-0.85C637.65,341.08,637.71,340.99,637.71,340.99z"/>
			</g>
		</g>
		<g>
			<g>
				<path class="st7" d="M613.44,362.82c0.02-0.01,0.12,0.24,0.27,0.69c0.15,0.45,0.36,1.11,0.6,1.92c0.48,1.63,1.08,3.9,1.7,6.42
					c0.6,2.48,1.14,4.72,1.55,6.45c0.19,0.77,0.35,1.42,0.48,1.95c0.11,0.46,0.17,0.72,0.14,0.73c-0.02,0.01-0.12-0.24-0.27-0.69
					c-0.15-0.45-0.35-1.11-0.59-1.93c-0.46-1.64-1.04-3.91-1.65-6.43c-0.61-2.47-1.17-4.71-1.6-6.43c-0.19-0.77-0.36-1.42-0.49-1.95
					C613.47,363.08,613.41,362.82,613.44,362.82z"/>
			</g>
		</g>
		<g>
			<g>
				<path class="st7" d="M619.12,381.15c-0.03-0.09,4.6-1.54,10.32-3.24c5.73-1.7,10.4-3,10.42-2.91c0.03,0.09-4.59,1.54-10.33,3.24
					C623.82,379.93,619.15,381.24,619.12,381.15z"/>
			</g>
		</g>
		<g>
			<g>
				<path class="st7" d="M606.28,404.35c0-0.02,0.27-0.04,0.75-0.05c0.56,0,1.24-0.01,2.05-0.01c1.73-0.01,4.12-0.04,6.76-0.16
					c2.64-0.12,5.02-0.31,6.75-0.46c0.8-0.07,1.49-0.13,2.05-0.17c0.48-0.04,0.75-0.05,0.76-0.02c0,0.02-0.26,0.08-0.74,0.16
					c-0.48,0.08-1.17,0.18-2.04,0.28c-1.72,0.21-4.11,0.44-6.76,0.56c-2.65,0.12-5.05,0.11-6.78,0.06c-0.87-0.03-1.57-0.06-2.05-0.1
					C606.55,404.4,606.28,404.37,606.28,404.35z"/>
			</g>
		</g>
		<g>
			<g>
				<path class="st7" d="M597.49,388.9c0.02-0.01,0.17,0.19,0.41,0.57c0.24,0.38,0.59,0.93,1.01,1.61c0.84,1.37,1.97,3.27,3.21,5.37
					c1.24,2.11,2.34,4.03,3.12,5.43c0.39,0.7,0.7,1.27,0.91,1.66c0.21,0.4,0.31,0.62,0.29,0.63c-0.02,0.01-0.17-0.19-0.41-0.57
					c-0.24-0.38-0.59-0.93-1.01-1.61c-0.84-1.37-1.97-3.27-3.21-5.37c-1.24-2.11-2.34-4.03-3.12-5.42c-0.39-0.7-0.7-1.27-0.91-1.66
					C597.58,389.14,597.47,388.91,597.49,388.9z"/>
			</g>
		</g>
		<g>
			<g>
				<path class="st7" d="M583.56,407.94c0.02-0.01,0.2,0.25,0.52,0.73c0.34,0.54,0.78,1.23,1.3,2.06c1.08,1.74,2.56,4.17,4.17,6.86
					c1.61,2.69,3.05,5.13,4.08,6.91c0.48,0.85,0.88,1.56,1.2,2.11c0.28,0.5,0.42,0.79,0.4,0.8c-0.02,0.01-0.2-0.25-0.52-0.73
					c-0.34-0.54-0.78-1.23-1.3-2.06c-1.08-1.75-2.56-4.17-4.17-6.86c-1.61-2.69-3.05-5.13-4.08-6.91c-0.48-0.85-0.88-1.56-1.2-2.11
					C583.68,408.24,583.54,407.95,583.56,407.94z"/>
			</g>
		</g>
		<g>
			<g>
				<path class="st7" d="M595.07,426.86c0-0.02,0.34-0.05,0.95-0.08c0.68-0.03,1.55-0.07,2.6-0.11c2.2-0.09,5.23-0.24,8.57-0.48
					c3.34-0.24,6.37-0.54,8.55-0.77c1.04-0.11,1.91-0.2,2.59-0.27c0.61-0.06,0.95-0.08,0.96-0.06c0,0.02-0.33,0.09-0.94,0.19
					c-0.61,0.1-1.49,0.23-2.58,0.38c-2.18,0.29-5.2,0.63-8.56,0.87c-3.35,0.25-6.39,0.35-8.59,0.38c-1.1,0.01-1.99,0.01-2.61,0
					C595.41,426.9,595.07,426.89,595.07,426.86z"/>
			</g>
		</g>
	</g>
	<g>
		<g>
			<path class="st8" d="M148.83,426.05c-3.12-1.64-6.8-1.87-10.27-1.32c-1.87,0.3-3.82,0.84-5.09,2.23
				c-1.28,1.39-1.54,3.86-0.09,5.07c0.86,0.72,2.07,0.84,3.2,0.83c2.72-0.01,5.74-0.47,7.9,1.18c1.23,0.94,2.05,2.5,3.52,2.97
				c1.45,0.46,3.09-0.38,3.86-1.69c0.78-1.3,0.81-2.94,0.47-4.41C152.33,430.92,151.97,427.7,148.83,426.05z"/>
		</g>
		<g class="st9">
			<path d="M148.83,426.05c-3.12-1.64-6.8-1.87-10.27-1.32c-1.87,0.3-3.82,0.84-5.09,2.23c-1.28,1.39-1.54,3.86-0.09,5.07
				c0.86,0.72,2.07,0.84,3.2,0.83c2.72-0.01,5.74-0.47,7.9,1.18c1.23,0.94,2.05,2.5,3.52,2.97c1.45,0.46,3.09-0.38,3.86-1.69
				c0.78-1.3,0.81-2.94,0.47-4.41C152.33,430.92,151.97,427.7,148.83,426.05z"/>
		</g>
		<g>
			<path class="st8" d="M156.09,412.27c-1.93,2.72-5.64,1.79-7.35,0.11c-1.71-1.68-2.42-4.1-3.07-6.41
				c-1.48-5.28-2.97-10.81-1.8-16.16c0.35-1.6,0.96-3.19,2.09-4.38c1.13-1.18,2.87-1.88,4.45-1.45c1.87,0.51,3.02,2.35,3.85,4.1
				c2.44,5.15,3.71,10.85,3.69,16.55C157.94,407.3,157.61,410.09,156.09,412.27"/>
		</g>
		<g class="st9">
			<path class="st10" d="M156.09,412.27c-1.93,2.72-5.64,1.79-7.35,0.11c-1.71-1.68-2.42-4.1-3.07-6.41
				c-1.48-5.28-2.97-10.81-1.8-16.16c0.35-1.6,0.96-3.19,2.09-4.38c1.13-1.18,2.87-1.88,4.45-1.45c1.87,0.51,3.02,2.35,3.85,4.1
				c2.44,5.15,3.71,10.85,3.69,16.55C157.94,407.3,157.61,410.09,156.09,412.27"/>
		</g>
		<g>
			<path class="st8" d="M161.32,416.23c-2.06-2.48-2.43-6.08-1.48-9.16c0.95-3.08,3.05-5.69,5.47-7.82
				c2.84-2.49,6.17-4.43,9.74-5.66c1.41-0.48,2.89-0.86,4.37-0.71c1.48,0.15,2.96,0.92,3.65,2.24c1.01,1.95,0.01,4.31-1.06,6.23
				c-1.89,3.38-4.04,6.61-6.44,9.66c-1.93,2.45-4.13,4.86-7.05,5.95c-2.92,1.09-5.94,0.94-7.47-1.09"/>
		</g>
		<g>
			<g>
				<path class="st7" d="M155.93,453.47c-0.04,0-0.09-0.44-0.16-1.24c-0.08-0.9-0.18-2.04-0.31-3.39c-0.15-1.43-0.34-3.12-0.73-4.97
					c-0.38-1.85-0.99-3.85-1.76-5.88c-0.81-2.02-1.8-3.86-2.96-5.33c-1.15-1.48-2.5-2.55-3.76-3.17c-1.26-0.63-2.4-0.9-3.18-1.02
					c-0.79-0.09-1.23-0.15-1.23-0.19c0-0.04,0.44-0.04,1.26-0.01c0.81,0.06,1.99,0.27,3.32,0.89c1.34,0.6,2.76,1.69,3.97,3.2
					c1.22,1.5,2.24,3.38,3.07,5.43c0.79,2.07,1.39,4.09,1.75,5.97c0.36,1.88,0.52,3.6,0.63,5.04c0.1,1.44,0.13,2.6,0.14,3.41
					C155.98,453.03,155.97,453.47,155.93,453.47z"/>
			</g>
		</g>
		<g>
			<g>
				<path class="st7" d="M155.72,450.87c-0.02,0-0.03-0.2-0.03-0.58c0-0.43,0.01-0.98,0.02-1.65c0.01-1.43,0.03-3.5-0.03-6.05
					c-0.09-5.11-0.48-12.16-1.28-19.92c-0.8-7.76-1.89-14.74-2.89-19.75c-0.24-1.26-0.47-2.39-0.7-3.38
					c-0.21-0.99-0.4-1.85-0.57-2.54c-0.15-0.65-0.28-1.18-0.37-1.6c-0.08-0.37-0.11-0.56-0.1-0.57c0.02,0,0.08,0.18,0.2,0.54
					c0.12,0.42,0.28,0.94,0.47,1.58c0.21,0.69,0.42,1.54,0.66,2.52c0.25,0.99,0.52,2.11,0.77,3.37c1.09,5,2.24,12,3.04,19.77
					c0.8,7.77,1.13,14.85,1.13,19.97c0.01,2.56-0.06,4.63-0.13,6.06c-0.05,0.67-0.08,1.21-0.11,1.65
					C155.76,450.67,155.74,450.87,155.72,450.87z"/>
			</g>
		</g>
		<g>
			<g>
				<path class="st7" d="M155.78,437.23c-0.04,0-0.03-0.61,0.02-1.72c0.07-1.11,0.23-2.7,0.56-4.66c0.34-1.95,0.82-4.27,1.56-6.78
					c0.71-2.52,1.67-5.25,2.9-8.01c2.39-5.57,5.63-10.12,8.43-12.93c0.66-0.75,1.39-1.28,1.97-1.81c0.3-0.25,0.57-0.5,0.84-0.7
					c0.27-0.19,0.53-0.36,0.76-0.52c0.92-0.62,1.44-0.95,1.45-0.92c0.08,0.11-2.06,1.35-4.78,4.2c-2.7,2.84-5.85,7.36-8.22,12.88
					c-1.21,2.74-2.18,5.44-2.91,7.94c-0.76,2.49-1.27,4.78-1.66,6.71c-0.37,1.93-0.59,3.52-0.72,4.61
					C155.89,436.62,155.82,437.23,155.78,437.23z"/>
			</g>
		</g>
	</g>
</g>
<g id="Server">
	<g>
		<path class="st7" d="M319.9,155.78c-0.14,0-0.26-11.03-0.26-24.64c0-13.61,0.12-24.64,0.26-24.64s0.26,11.03,0.26,24.64
			C320.16,144.75,320.05,155.78,319.9,155.78z"/>
	</g>
	<g>
		<g>
			<g>
				<rect x="460.3" y="322.9" class="st7" width="112.71" height="123.66"/>
				<rect x="443.85" y="347.63" class="st11" width="123.21" height="30.57"/>
				<rect x="449.32" y="353.92" class="st7" width="24.26" height="3.73"/>
				<rect x="449.32" y="360.35" class="st7" width="24.26" height="3.73"/>
				<rect x="449.32" y="366.99" class="st7" width="24.26" height="3.73"/>
				<g>
					<g>
						<path class="st7" d="M483.17,356.18c0,0.77-0.62,1.39-1.39,1.39c-0.77,0-1.39-0.62-1.39-1.39c0-0.77,0.62-1.39,1.39-1.39
							C482.55,354.79,483.17,355.41,483.17,356.18z"/>
						<path class="st7" d="M489.31,356.18c0,0.77-0.62,1.39-1.39,1.39c-0.77,0-1.39-0.62-1.39-1.39c0-0.77,0.62-1.39,1.39-1.39
							C488.69,354.79,489.31,355.41,489.31,356.18z"/>
						<path class="st7" d="M495.45,356.18c0,0.77-0.62,1.39-1.39,1.39c-0.77,0-1.39-0.62-1.39-1.39c0-0.77,0.62-1.39,1.39-1.39
							C494.83,354.79,495.45,355.41,495.45,356.18z"/>
						<path class="st7" d="M501.59,356.18c0,0.77-0.62,1.39-1.39,1.39c-0.77,0-1.39-0.62-1.39-1.39c0-0.77,0.62-1.39,1.39-1.39
							C500.97,354.79,501.59,355.41,501.59,356.18z"/>
						<path class="st7" d="M549.18,356.18c0,0.77-0.62,1.39-1.39,1.39c-0.77,0-1.39-0.62-1.39-1.39c0-0.77,0.62-1.39,1.39-1.39
							C548.56,354.79,549.18,355.41,549.18,356.18z"/>
						<path class="st7" d="M555.44,356.18c0,0.77-0.62,1.39-1.39,1.39c-0.77,0-1.39-0.62-1.39-1.39c0-0.77,0.62-1.39,1.39-1.39
							C554.82,354.79,555.44,355.41,555.44,356.18z"/>
						<path class="st7" d="M507.73,356.18c0,0.77-0.62,1.39-1.39,1.39c-0.77,0-1.39-0.62-1.39-1.39c0-0.77,0.62-1.39,1.39-1.39
							C507.11,354.79,507.73,355.41,507.73,356.18z"/>
						<path class="st7" d="M537.89,356.18c0,0.77-0.62,1.39-1.39,1.39s-1.39-0.62-1.39-1.39c0-0.77,0.62-1.39,1.39-1.39
							S537.89,355.41,537.89,356.18z"/>
						<path class="st2" d="M513.87,356.18c0,0.77-0.62,1.39-1.39,1.39c-0.77,0-1.39-0.62-1.39-1.39c0-0.77,0.62-1.39,1.39-1.39
							C513.25,354.79,513.87,355.41,513.87,356.18z"/>
						<path class="st2" d="M520.02,356.18c0,0.77-0.62,1.39-1.39,1.39c-0.77,0-1.39-0.62-1.39-1.39c0-0.77,0.62-1.39,1.39-1.39
							C519.39,354.79,520.02,355.41,520.02,356.18z"/>
						<path class="st2" d="M532.48,356.18c0,0.77-0.62,1.39-1.39,1.39s-1.39-0.62-1.39-1.39c0-0.77,0.62-1.39,1.39-1.39
							S532.48,355.41,532.48,356.18z"/>
						<path class="st2" d="M560.54,356.18c0,0.77-0.62,1.39-1.39,1.39c-0.77,0-1.39-0.62-1.39-1.39c0-0.77,0.62-1.39,1.39-1.39
							C559.92,354.79,560.54,355.41,560.54,356.18z"/>
						<path class="st8" d="M526.16,356.18c0,0.77-0.62,1.39-1.39,1.39s-1.39-0.62-1.39-1.39c0-0.77,0.62-1.39,1.39-1.39
							S526.16,355.41,526.16,356.18z"/>
						<path class="st8" d="M543.74,356.18c0,0.77-0.62,1.39-1.39,1.39c-0.77,0-1.39-0.62-1.39-1.39c0-0.77,0.62-1.39,1.39-1.39
							C543.12,354.79,543.74,355.41,543.74,356.18z"/>
					</g>
					<g>
						<path class="st7" d="M557.76,362.89c0-0.77,0.62-1.39,1.39-1.39c0.77,0,1.39,0.62,1.39,1.39c0,0.77-0.62,1.39-1.39,1.39
							C558.38,364.28,557.76,363.66,557.76,362.89z"/>
						<path class="st7" d="M551.61,362.89c0-0.77,0.62-1.39,1.39-1.39s1.39,0.62,1.39,1.39c0,0.77-0.62,1.39-1.39,1.39
							S551.61,363.66,551.61,362.89z"/>
						<path class="st7" d="M545.47,362.89c0-0.77,0.62-1.39,1.39-1.39c0.77,0,1.39,0.62,1.39,1.39c0,0.77-0.62,1.39-1.39,1.39
							C546.1,364.28,545.47,363.66,545.47,362.89z"/>
						<path class="st7" d="M539.33,362.89c0-0.77,0.62-1.39,1.39-1.39c0.77,0,1.39,0.62,1.39,1.39c0,0.77-0.62,1.39-1.39,1.39
							C539.95,364.28,539.33,363.66,539.33,362.89z"/>
						<path class="st7" d="M491.74,362.89c0-0.77,0.62-1.39,1.39-1.39c0.77,0,1.39,0.62,1.39,1.39c0,0.77-0.62,1.39-1.39,1.39
							C492.37,364.28,491.74,363.66,491.74,362.89z"/>
						<path class="st7" d="M485.48,362.89c0-0.77,0.62-1.39,1.39-1.39c0.77,0,1.39,0.62,1.39,1.39c0,0.77-0.62,1.39-1.39,1.39
							C486.1,364.28,485.48,363.66,485.48,362.89z"/>
						<path class="st7" d="M533.19,362.89c0-0.77,0.62-1.39,1.39-1.39c0.77,0,1.39,0.62,1.39,1.39c0,0.77-0.62,1.39-1.39,1.39
							C533.81,364.28,533.19,363.66,533.19,362.89z"/>
						<path class="st7" d="M503.03,362.89c0-0.77,0.62-1.39,1.39-1.39c0.77,0,1.39,0.62,1.39,1.39c0,0.77-0.62,1.39-1.39,1.39
							C503.65,364.28,503.03,363.66,503.03,362.89z"/>
						<path class="st2" d="M527.05,362.89c0-0.77,0.62-1.39,1.39-1.39c0.77,0,1.39,0.62,1.39,1.39c0,0.77-0.62,1.39-1.39,1.39
							C527.67,364.28,527.05,363.66,527.05,362.89z"/>
						<path class="st2" d="M520.91,362.89c0-0.77,0.62-1.39,1.39-1.39c0.77,0,1.39,0.62,1.39,1.39c0,0.77-0.62,1.39-1.39,1.39
							C521.53,364.28,520.91,363.66,520.91,362.89z"/>
						<path class="st2" d="M508.45,362.89c0-0.77,0.62-1.39,1.39-1.39c0.77,0,1.39,0.62,1.39,1.39c0,0.77-0.62,1.39-1.39,1.39
							C509.07,364.28,508.45,363.66,508.45,362.89z"/>
						<path class="st2" d="M480.39,362.89c0-0.77,0.62-1.39,1.39-1.39c0.77,0,1.39,0.62,1.39,1.39c0,0.77-0.62,1.39-1.39,1.39
							C481.01,364.28,480.39,363.66,480.39,362.89z"/>
						<path class="st8" d="M514.77,362.89c0-0.77,0.62-1.39,1.39-1.39c0.77,0,1.39,0.62,1.39,1.39c0,0.77-0.62,1.39-1.39,1.39
							C515.39,364.28,514.77,363.66,514.77,362.89z"/>
						<path class="st8" d="M497.18,362.89c0-0.77,0.62-1.39,1.39-1.39c0.77,0,1.39,0.62,1.39,1.39c0,0.77-0.62,1.39-1.39,1.39
							C497.81,364.28,497.18,363.66,497.18,362.89z"/>
					</g>
					<g>
						<circle class="st7" cx="481.78" cy="368.85" r="1.39"/>
						<circle class="st7" cx="487.92" cy="368.85" r="1.39"/>
						<circle class="st7" cx="494.06" cy="368.85" r="1.39"/>
						<circle class="st7" cx="500.2" cy="368.85" r="1.39"/>
						<circle class="st7" cx="547.79" cy="368.85" r="1.39"/>
						<circle class="st7" cx="554.05" cy="368.85" r="1.39"/>
						<circle class="st7" cx="506.34" cy="368.85" r="1.39"/>
						<path class="st7" d="M537.89,368.85c0,0.77-0.62,1.39-1.39,1.39s-1.39-0.62-1.39-1.39s0.62-1.39,1.39-1.39
							S537.89,368.08,537.89,368.85z"/>
						<circle class="st2" cx="512.48" cy="368.85" r="1.39"/>
						<path class="st2" d="M520.02,368.85c0,0.77-0.62,1.39-1.39,1.39c-0.77,0-1.39-0.62-1.39-1.39s0.62-1.39,1.39-1.39
							C519.39,367.46,520.02,368.08,520.02,368.85z"/>
						<circle class="st2" cx="531.08" cy="368.85" r="1.39"/>
						<path class="st2" d="M560.54,368.85c0,0.77-0.62,1.39-1.39,1.39c-0.77,0-1.39-0.62-1.39-1.39s0.62-1.39,1.39-1.39
							C559.92,367.46,560.54,368.08,560.54,368.85z"/>
						<circle class="st8" cx="524.77" cy="368.85" r="1.39"/>
						<circle class="st8" cx="542.35" cy="368.85" r="1.39"/>
					</g>
				</g>
				<rect x="443.85" y="385.35" class="st11" width="123.21" height="30.57"/>
				<g>
					<g>
						<path class="st7" d="M482.86,393.6c0,0.77-0.62,1.39-1.39,1.39c-0.77,0-1.39-0.62-1.39-1.39c0-0.77,0.62-1.39,1.39-1.39
							C482.24,392.21,482.86,392.83,482.86,393.6z"/>
						<path class="st7" d="M489,393.6c0,0.77-0.62,1.39-1.39,1.39c-0.77,0-1.39-0.62-1.39-1.39c0-0.77,0.62-1.39,1.39-1.39
							C488.38,392.21,489,392.83,489,393.6z"/>
						<path class="st7" d="M495.15,393.6c0,0.77-0.62,1.39-1.39,1.39s-1.39-0.62-1.39-1.39c0-0.77,0.62-1.39,1.39-1.39
							S495.15,392.83,495.15,393.6z"/>
						<path class="st7" d="M501.29,393.6c0,0.77-0.62,1.39-1.39,1.39c-0.77,0-1.39-0.62-1.39-1.39c0-0.77,0.62-1.39,1.39-1.39
							C500.66,392.21,501.29,392.83,501.29,393.6z"/>
						<path class="st7" d="M548.88,393.6c0,0.77-0.62,1.39-1.39,1.39s-1.39-0.62-1.39-1.39c0-0.77,0.62-1.39,1.39-1.39
							S548.88,392.83,548.88,393.6z"/>
						<path class="st7" d="M555.14,393.6c0,0.77-0.62,1.39-1.39,1.39c-0.77,0-1.39-0.62-1.39-1.39c0-0.77,0.62-1.39,1.39-1.39
							C554.52,392.21,555.14,392.83,555.14,393.6z"/>
						<path class="st7" d="M507.43,393.6c0,0.77-0.62,1.39-1.39,1.39c-0.77,0-1.39-0.62-1.39-1.39c0-0.77,0.62-1.39,1.39-1.39
							C506.81,392.21,507.43,392.83,507.43,393.6z"/>
						<path class="st7" d="M537.59,393.6c0,0.77-0.62,1.39-1.39,1.39c-0.77,0-1.39-0.62-1.39-1.39c0-0.77,0.62-1.39,1.39-1.39
							C536.96,392.21,537.59,392.83,537.59,393.6z"/>
						<path class="st2" d="M513.57,393.6c0,0.77-0.62,1.39-1.39,1.39c-0.77,0-1.39-0.62-1.39-1.39c0-0.77,0.62-1.39,1.39-1.39
							C512.95,392.21,513.57,392.83,513.57,393.6z"/>
						<path class="st2" d="M519.71,393.6c0,0.77-0.62,1.39-1.39,1.39c-0.77,0-1.39-0.62-1.39-1.39c0-0.77,0.62-1.39,1.39-1.39
							C519.09,392.21,519.71,392.83,519.71,393.6z"/>
						<path class="st2" d="M532.17,393.6c0,0.77-0.62,1.39-1.39,1.39c-0.77,0-1.39-0.62-1.39-1.39c0-0.77,0.62-1.39,1.39-1.39
							C531.55,392.21,532.17,392.83,532.17,393.6z"/>
						<path class="st2" d="M560.23,393.6c0,0.77-0.62,1.39-1.39,1.39s-1.39-0.62-1.39-1.39c0-0.77,0.62-1.39,1.39-1.39
							S560.23,392.83,560.23,393.6z"/>
						<path class="st8" d="M525.85,393.6c0,0.77-0.62,1.39-1.39,1.39s-1.39-0.62-1.39-1.39c0-0.77,0.62-1.39,1.39-1.39
							S525.85,392.83,525.85,393.6z"/>
						<path class="st8" d="M543.43,393.6c0,0.77-0.62,1.39-1.39,1.39s-1.39-0.62-1.39-1.39c0-0.77,0.62-1.39,1.39-1.39
							S543.43,392.83,543.43,393.6z"/>
					</g>
					<g>
						<path class="st7" d="M557.45,400.31c0-0.77,0.62-1.39,1.39-1.39s1.39,0.62,1.39,1.39c0,0.77-0.62,1.39-1.39,1.39
							S557.45,401.07,557.45,400.31z"/>
						<path class="st7" d="M551.31,400.31c0-0.77,0.62-1.39,1.39-1.39c0.77,0,1.39,0.62,1.39,1.39c0,0.77-0.62,1.39-1.39,1.39
							C551.93,401.7,551.31,401.07,551.31,400.31z"/>
						<path class="st7" d="M545.17,400.31c0-0.77,0.62-1.39,1.39-1.39c0.77,0,1.39,0.62,1.39,1.39c0,0.77-0.62,1.39-1.39,1.39
							C545.79,401.7,545.17,401.07,545.17,400.31z"/>
						<path class="st7" d="M539.03,400.31c0-0.77,0.62-1.39,1.39-1.39c0.77,0,1.39,0.62,1.39,1.39c0,0.77-0.62,1.39-1.39,1.39
							C539.65,401.7,539.03,401.07,539.03,400.31z"/>
						<path class="st7" d="M491.44,400.31c0-0.77,0.62-1.39,1.39-1.39c0.77,0,1.39,0.62,1.39,1.39c0,0.77-0.62,1.39-1.39,1.39
							C492.06,401.7,491.44,401.07,491.44,400.31z"/>
						<path class="st7" d="M485.18,400.31c0-0.77,0.62-1.39,1.39-1.39c0.77,0,1.39,0.62,1.39,1.39c0,0.77-0.62,1.39-1.39,1.39
							C485.8,401.7,485.18,401.07,485.18,400.31z"/>
						<path class="st7" d="M532.89,400.31c0-0.77,0.62-1.39,1.39-1.39s1.39,0.62,1.39,1.39c0,0.77-0.62,1.39-1.39,1.39
							S532.89,401.07,532.89,400.31z"/>
						<path class="st7" d="M502.73,400.31c0-0.77,0.62-1.39,1.39-1.39c0.77,0,1.39,0.62,1.39,1.39c0,0.77-0.62,1.39-1.39,1.39
							C503.35,401.7,502.73,401.07,502.73,400.31z"/>
						<path class="st2" d="M526.74,400.31c0-0.77,0.62-1.39,1.39-1.39c0.77,0,1.39,0.62,1.39,1.39c0,0.77-0.62,1.39-1.39,1.39
							C527.37,401.7,526.74,401.07,526.74,400.31z"/>
						<path class="st2" d="M520.6,400.31c0-0.77,0.62-1.39,1.39-1.39c0.77,0,1.39,0.62,1.39,1.39c0,0.77-0.62,1.39-1.39,1.39
							C521.23,401.7,520.6,401.07,520.6,400.31z"/>
						<path class="st2" d="M508.14,400.31c0-0.77,0.62-1.39,1.39-1.39c0.77,0,1.39,0.62,1.39,1.39c0,0.77-0.62,1.39-1.39,1.39
							C508.77,401.7,508.14,401.07,508.14,400.31z"/>
						<path class="st2" d="M480.08,400.31c0-0.77,0.62-1.39,1.39-1.39c0.77,0,1.39,0.62,1.39,1.39c0,0.77-0.62,1.39-1.39,1.39
							C480.7,401.7,480.08,401.07,480.08,400.31z"/>
						<path class="st8" d="M514.46,400.31c0-0.77,0.62-1.39,1.39-1.39c0.77,0,1.39,0.62,1.39,1.39c0,0.77-0.62,1.39-1.39,1.39
							C515.09,401.7,514.46,401.07,514.46,400.31z"/>
						<path class="st8" d="M496.88,400.31c0-0.77,0.62-1.39,1.39-1.39c0.77,0,1.39,0.62,1.39,1.39c0,0.77-0.62,1.39-1.39,1.39
							C497.5,401.7,496.88,401.07,496.88,400.31z"/>
					</g>
					<g>
						<circle class="st7" cx="481.47" cy="406.27" r="1.39"/>
						<circle class="st7" cx="487.61" cy="406.27" r="1.39"/>
						<circle class="st7" cx="493.75" cy="406.27" r="1.39"/>
						<circle class="st7" cx="499.9" cy="406.27" r="1.39"/>
						<circle class="st7" cx="547.48" cy="406.27" r="1.39"/>
						<circle class="st7" cx="553.75" cy="406.27" r="1.39"/>
						<circle class="st7" cx="506.04" cy="406.27" r="1.39"/>
						<circle class="st7" cx="536.2" cy="406.27" r="1.39"/>
						<circle class="st2" cx="512.18" cy="406.27" r="1.39"/>
						<circle class="st2" cx="518.32" cy="406.27" r="1.39"/>
						<circle class="st2" cx="530.78" cy="406.27" r="1.39"/>
						<path class="st2" d="M560.23,406.27c0,0.77-0.62,1.39-1.39,1.39s-1.39-0.62-1.39-1.39c0-0.77,0.62-1.39,1.39-1.39
							S560.23,405.5,560.23,406.27z"/>
						<circle class="st8" cx="524.46" cy="406.27" r="1.39"/>
						<circle class="st8" cx="542.04" cy="406.27" r="1.39"/>
					</g>
				</g>
				<rect x="449.32" y="391.65" class="st7" width="24.26" height="3.73"/>
				<rect x="449.32" y="398.07" class="st7" width="24.26" height="3.73"/>
				<rect x="449.32" y="404.71" class="st7" width="24.26" height="3.73"/>
				<rect x="443.85" y="423.07" class="st11" width="123.21" height="30.57"/>
				<rect x="449.32" y="429.37" class="st7" width="24.26" height="3.73"/>
				<rect x="449.32" y="435.79" class="st7" width="24.26" height="3.73"/>
				<rect x="449.32" y="442.43" class="st7" width="24.26" height="3.73"/>
				<g>
					<g>
						<path class="st7" d="M482.42,431.32c0,0.77-0.62,1.39-1.39,1.39s-1.39-0.62-1.39-1.39c0-0.77,0.62-1.39,1.39-1.39
							S482.42,430.55,482.42,431.32z"/>
						<path class="st7" d="M488.56,431.32c0,0.77-0.62,1.39-1.39,1.39s-1.39-0.62-1.39-1.39c0-0.77,0.62-1.39,1.39-1.39
							S488.56,430.55,488.56,431.32z"/>
						<path class="st7" d="M494.7,431.32c0,0.77-0.62,1.39-1.39,1.39c-0.77,0-1.39-0.62-1.39-1.39c0-0.77,0.62-1.39,1.39-1.39
							C494.08,429.93,494.7,430.55,494.7,431.32z"/>
						<path class="st7" d="M500.84,431.32c0,0.77-0.62,1.39-1.39,1.39c-0.77,0-1.39-0.62-1.39-1.39c0-0.77,0.62-1.39,1.39-1.39
							C500.22,429.93,500.84,430.55,500.84,431.32z"/>
						<path class="st7" d="M548.43,431.32c0,0.77-0.62,1.39-1.39,1.39s-1.39-0.62-1.39-1.39c0-0.77,0.62-1.39,1.39-1.39
							S548.43,430.55,548.43,431.32z"/>
						<path class="st7" d="M554.69,431.32c0,0.77-0.62,1.39-1.39,1.39c-0.77,0-1.39-0.62-1.39-1.39c0-0.77,0.62-1.39,1.39-1.39
							C554.07,429.93,554.69,430.55,554.69,431.32z"/>
						<path class="st7" d="M506.98,431.32c0,0.77-0.62,1.39-1.39,1.39c-0.77,0-1.39-0.62-1.39-1.39c0-0.77,0.62-1.39,1.39-1.39
							C506.36,429.93,506.98,430.55,506.98,431.32z"/>
						<path class="st7" d="M537.14,431.32c0,0.77-0.62,1.39-1.39,1.39c-0.77,0-1.39-0.62-1.39-1.39c0-0.77,0.62-1.39,1.39-1.39
							C536.52,429.93,537.14,430.55,537.14,431.32z"/>
						<path class="st2" d="M513.12,431.32c0,0.77-0.62,1.39-1.39,1.39c-0.77,0-1.39-0.62-1.39-1.39c0-0.77,0.62-1.39,1.39-1.39
							C512.5,429.93,513.12,430.55,513.12,431.32z"/>
						<path class="st2" d="M519.26,431.32c0,0.77-0.62,1.39-1.39,1.39c-0.77,0-1.39-0.62-1.39-1.39c0-0.77,0.62-1.39,1.39-1.39
							C518.64,429.93,519.26,430.55,519.26,431.32z"/>
						<path class="st2" d="M531.72,431.32c0,0.77-0.62,1.39-1.39,1.39s-1.39-0.62-1.39-1.39c0-0.77,0.62-1.39,1.39-1.39
							S531.72,430.55,531.72,431.32z"/>
						<path class="st2" d="M559.79,431.32c0,0.77-0.62,1.39-1.39,1.39s-1.39-0.62-1.39-1.39c0-0.77,0.62-1.39,1.39-1.39
							S559.79,430.55,559.79,431.32z"/>
						<path class="st8" d="M525.41,431.32c0,0.77-0.62,1.39-1.39,1.39s-1.39-0.62-1.39-1.39c0-0.77,0.62-1.39,1.39-1.39
							S525.41,430.55,525.41,431.32z"/>
						<path class="st8" d="M542.99,431.32c0,0.77-0.62,1.39-1.39,1.39c-0.77,0-1.39-0.62-1.39-1.39c0-0.77,0.62-1.39,1.39-1.39
							C542.37,429.93,542.99,430.55,542.99,431.32z"/>
					</g>
					<g>
						<path class="st7" d="M557,438.03c0-0.77,0.62-1.39,1.39-1.39s1.39,0.62,1.39,1.39c0,0.77-0.62,1.39-1.39,1.39
							S557,438.8,557,438.03z"/>
						<path class="st7" d="M550.86,438.03c0-0.77,0.62-1.39,1.39-1.39c0.77,0,1.39,0.62,1.39,1.39c0,0.77-0.62,1.39-1.39,1.39
							C551.49,439.42,550.86,438.8,550.86,438.03z"/>
						<path class="st7" d="M544.72,438.03c0-0.77,0.62-1.39,1.39-1.39c0.77,0,1.39,0.62,1.39,1.39c0,0.77-0.62,1.39-1.39,1.39
							C545.34,439.42,544.72,438.8,544.72,438.03z"/>
						<path class="st7" d="M538.58,438.03c0-0.77,0.62-1.39,1.39-1.39c0.77,0,1.39,0.62,1.39,1.39c0,0.77-0.62,1.39-1.39,1.39
							C539.2,439.42,538.58,438.8,538.58,438.03z"/>
						<path class="st7" d="M490.99,438.03c0-0.77,0.62-1.39,1.39-1.39c0.77,0,1.39,0.62,1.39,1.39c0,0.77-0.62,1.39-1.39,1.39
							C491.61,439.42,490.99,438.8,490.99,438.03z"/>
						<path class="st7" d="M484.73,438.03c0-0.77,0.62-1.39,1.39-1.39c0.77,0,1.39,0.62,1.39,1.39c0,0.77-0.62,1.39-1.39,1.39
							C485.35,439.42,484.73,438.8,484.73,438.03z"/>
						<path class="st7" d="M532.44,438.03c0-0.77,0.62-1.39,1.39-1.39c0.77,0,1.39,0.62,1.39,1.39c0,0.77-0.62,1.39-1.39,1.39
							C533.06,439.42,532.44,438.8,532.44,438.03z"/>
						<path class="st7" d="M502.28,438.03c0-0.77,0.62-1.39,1.39-1.39c0.77,0,1.39,0.62,1.39,1.39c0,0.77-0.62,1.39-1.39,1.39
							C502.9,439.42,502.28,438.8,502.28,438.03z"/>
						<path class="st2" d="M526.3,438.03c0-0.77,0.62-1.39,1.39-1.39c0.77,0,1.39,0.62,1.39,1.39c0,0.77-0.62,1.39-1.39,1.39
							C526.92,439.42,526.3,438.8,526.3,438.03z"/>
						<path class="st2" d="M520.16,438.03c0-0.77,0.62-1.39,1.39-1.39s1.39,0.62,1.39,1.39c0,0.77-0.62,1.39-1.39,1.39
							S520.16,438.8,520.16,438.03z"/>
						<path class="st2" d="M507.7,438.03c0-0.77,0.62-1.39,1.39-1.39c0.77,0,1.39,0.62,1.39,1.39c0,0.77-0.62,1.39-1.39,1.39
							C508.32,439.42,507.7,438.8,507.7,438.03z"/>
						<path class="st2" d="M479.63,438.03c0-0.77,0.62-1.39,1.39-1.39s1.39,0.62,1.39,1.39c0,0.77-0.62,1.39-1.39,1.39
							S479.63,438.8,479.63,438.03z"/>
						<path class="st8" d="M514.02,438.03c0-0.77,0.62-1.39,1.39-1.39c0.77,0,1.39,0.62,1.39,1.39c0,0.77-0.62,1.39-1.39,1.39
							C514.64,439.42,514.02,438.8,514.02,438.03z"/>
						<path class="st8" d="M496.43,438.03c0-0.77,0.62-1.39,1.39-1.39c0.77,0,1.39,0.62,1.39,1.39c0,0.77-0.62,1.39-1.39,1.39
							C497.06,439.42,496.43,438.8,496.43,438.03z"/>
					</g>
					<g>
						<path class="st7" d="M482.42,443.99c0,0.77-0.62,1.39-1.39,1.39s-1.39-0.62-1.39-1.39c0-0.77,0.62-1.39,1.39-1.39
							S482.42,443.23,482.42,443.99z"/>
						<path class="st7" d="M488.56,443.99c0,0.77-0.62,1.39-1.39,1.39s-1.39-0.62-1.39-1.39c0-0.77,0.62-1.39,1.39-1.39
							S488.56,443.23,488.56,443.99z"/>
						<path class="st7" d="M494.7,443.99c0,0.77-0.62,1.39-1.39,1.39c-0.77,0-1.39-0.62-1.39-1.39c0-0.77,0.62-1.39,1.39-1.39
							C494.08,442.6,494.7,443.23,494.7,443.99z"/>
						<path class="st7" d="M500.84,443.99c0,0.77-0.62,1.39-1.39,1.39c-0.77,0-1.39-0.62-1.39-1.39c0-0.77,0.62-1.39,1.39-1.39
							C500.22,442.6,500.84,443.23,500.84,443.99z"/>
						<path class="st7" d="M548.43,443.99c0,0.77-0.62,1.39-1.39,1.39s-1.39-0.62-1.39-1.39c0-0.77,0.62-1.39,1.39-1.39
							S548.43,443.23,548.43,443.99z"/>
						<path class="st7" d="M554.69,443.99c0,0.77-0.62,1.39-1.39,1.39c-0.77,0-1.39-0.62-1.39-1.39c0-0.77,0.62-1.39,1.39-1.39
							C554.07,442.6,554.69,443.23,554.69,443.99z"/>
						<path class="st7" d="M506.98,443.99c0,0.77-0.62,1.39-1.39,1.39c-0.77,0-1.39-0.62-1.39-1.39c0-0.77,0.62-1.39,1.39-1.39
							C506.36,442.6,506.98,443.23,506.98,443.99z"/>
						<path class="st7" d="M537.14,443.99c0,0.77-0.62,1.39-1.39,1.39c-0.77,0-1.39-0.62-1.39-1.39c0-0.77,0.62-1.39,1.39-1.39
							C536.52,442.6,537.14,443.23,537.14,443.99z"/>
						<path class="st2" d="M513.12,443.99c0,0.77-0.62,1.39-1.39,1.39c-0.77,0-1.39-0.62-1.39-1.39c0-0.77,0.62-1.39,1.39-1.39
							C512.5,442.6,513.12,443.23,513.12,443.99z"/>
						<path class="st2" d="M519.26,443.99c0,0.77-0.62,1.39-1.39,1.39c-0.77,0-1.39-0.62-1.39-1.39c0-0.77,0.62-1.39,1.39-1.39
							C518.64,442.6,519.26,443.23,519.26,443.99z"/>
						<path class="st2" d="M531.72,443.99c0,0.77-0.62,1.39-1.39,1.39s-1.39-0.62-1.39-1.39c0-0.77,0.62-1.39,1.39-1.39
							S531.72,443.23,531.72,443.99z"/>
						<path class="st2" d="M559.79,443.99c0,0.77-0.62,1.39-1.39,1.39s-1.39-0.62-1.39-1.39c0-0.77,0.62-1.39,1.39-1.39
							S559.79,443.23,559.79,443.99z"/>
						<path class="st8" d="M525.41,443.99c0,0.77-0.62,1.39-1.39,1.39s-1.39-0.62-1.39-1.39c0-0.77,0.62-1.39,1.39-1.39
							S525.41,443.23,525.41,443.99z"/>
						<path class="st8" d="M542.99,443.99c0,0.77-0.62,1.39-1.39,1.39c-0.77,0-1.39-0.62-1.39-1.39c0-0.77,0.62-1.39,1.39-1.39
							C542.37,442.6,542.99,443.23,542.99,443.99z"/>
					</g>
				</g>
			</g>
			<polygon class="st7" points="585.58,378.15 567.05,378.2 567.05,347.63 585.58,347.58 			"/>
			<polygon class="st7" points="585.58,340.98 567.05,341.03 567.05,310.46 585.58,310.41 			"/>
			<polygon class="st7" points="585.58,415.63 567.05,415.68 567.05,385.11 585.58,385.06 			"/>
			<polygon class="st7" points="585.58,453.59 567.05,453.64 567.05,423.07 585.58,423.02 			"/>
		</g>
		<rect x="444.74" y="310.18" class="st11" width="123.21" height="30.57"/>
		<rect x="450.21" y="316.47" class="st7" width="24.26" height="3.73"/>
		<rect x="450.21" y="322.9" class="st7" width="24.26" height="3.73"/>
		<rect x="450.21" y="329.54" class="st7" width="24.26" height="3.73"/>
		<g>
			<g>
				<path class="st7" d="M484.06,318.73c0,0.77-0.62,1.39-1.39,1.39c-0.77,0-1.39-0.62-1.39-1.39c0-0.77,0.62-1.39,1.39-1.39
					C483.44,317.34,484.06,317.96,484.06,318.73z"/>
				<path class="st7" d="M490.2,318.73c0,0.77-0.62,1.39-1.39,1.39c-0.77,0-1.39-0.62-1.39-1.39c0-0.77,0.62-1.39,1.39-1.39
					C489.58,317.34,490.2,317.96,490.2,318.73z"/>
				<path class="st7" d="M496.34,318.73c0,0.77-0.62,1.39-1.39,1.39c-0.77,0-1.39-0.62-1.39-1.39c0-0.77,0.62-1.39,1.39-1.39
					C495.72,317.34,496.34,317.96,496.34,318.73z"/>
				<path class="st7" d="M502.48,318.73c0,0.77-0.62,1.39-1.39,1.39c-0.77,0-1.39-0.62-1.39-1.39c0-0.77,0.62-1.39,1.39-1.39
					C501.86,317.34,502.48,317.96,502.48,318.73z"/>
				<path class="st7" d="M550.07,318.73c0,0.77-0.62,1.39-1.39,1.39c-0.77,0-1.39-0.62-1.39-1.39c0-0.77,0.62-1.39,1.39-1.39
					C549.45,317.34,550.07,317.96,550.07,318.73z"/>
				<path class="st7" d="M556.34,318.73c0,0.77-0.62,1.39-1.39,1.39c-0.77,0-1.39-0.62-1.39-1.39c0-0.77,0.62-1.39,1.39-1.39
					C555.71,317.34,556.34,317.96,556.34,318.73z"/>
				<path class="st7" d="M508.63,318.73c0,0.77-0.62,1.39-1.39,1.39c-0.77,0-1.39-0.62-1.39-1.39c0-0.77,0.62-1.39,1.39-1.39
					C508,317.34,508.63,317.96,508.63,318.73z"/>
				<path class="st7" d="M538.78,318.73c0,0.77-0.62,1.39-1.39,1.39c-0.77,0-1.39-0.62-1.39-1.39c0-0.77,0.62-1.39,1.39-1.39
					C538.16,317.34,538.78,317.96,538.78,318.73z"/>
				<path class="st2" d="M514.77,318.73c0,0.77-0.62,1.39-1.39,1.39c-0.77,0-1.39-0.62-1.39-1.39c0-0.77,0.62-1.39,1.39-1.39
					C514.14,317.34,514.77,317.96,514.77,318.73z"/>
				<path class="st2" d="M520.91,318.73c0,0.77-0.62,1.39-1.39,1.39c-0.77,0-1.39-0.62-1.39-1.39c0-0.77,0.62-1.39,1.39-1.39
					C520.28,317.34,520.91,317.96,520.91,318.73z"/>
				<path class="st2" d="M533.37,318.73c0,0.77-0.62,1.39-1.39,1.39c-0.77,0-1.39-0.62-1.39-1.39c0-0.77,0.62-1.39,1.39-1.39
					C532.74,317.34,533.37,317.96,533.37,318.73z"/>
				<path class="st2" d="M561.43,318.73c0,0.77-0.62,1.39-1.39,1.39c-0.77,0-1.39-0.62-1.39-1.39c0-0.77,0.62-1.39,1.39-1.39
					C560.81,317.34,561.43,317.96,561.43,318.73z"/>
				<path class="st8" d="M527.05,318.73c0,0.77-0.62,1.39-1.39,1.39c-0.77,0-1.39-0.62-1.39-1.39c0-0.77,0.62-1.39,1.39-1.39
					C526.43,317.34,527.05,317.96,527.05,318.73z"/>
				<path class="st8" d="M544.63,318.73c0,0.77-0.62,1.39-1.39,1.39c-0.77,0-1.39-0.62-1.39-1.39c0-0.77,0.62-1.39,1.39-1.39
					C544.01,317.34,544.63,317.96,544.63,318.73z"/>
			</g>
			<g>
				<path class="st7" d="M558.65,325.44c0-0.77,0.62-1.39,1.39-1.39c0.77,0,1.39,0.62,1.39,1.39c0,0.77-0.62,1.39-1.39,1.39
					C559.27,326.83,558.65,326.2,558.65,325.44z"/>
				<path class="st7" d="M552.51,325.44c0-0.77,0.62-1.39,1.39-1.39c0.77,0,1.39,0.62,1.39,1.39c0,0.77-0.62,1.39-1.39,1.39
					C553.13,326.83,552.51,326.2,552.51,325.44z"/>
				<path class="st7" d="M546.37,325.44c0-0.77,0.62-1.39,1.39-1.39s1.39,0.62,1.39,1.39c0,0.77-0.62,1.39-1.39,1.39
					S546.37,326.2,546.37,325.44z"/>
				<path class="st7" d="M540.22,325.44c0-0.77,0.62-1.39,1.39-1.39s1.39,0.62,1.39,1.39c0,0.77-0.62,1.39-1.39,1.39
					S540.22,326.2,540.22,325.44z"/>
				<path class="st7" d="M492.64,325.44c0-0.77,0.62-1.39,1.39-1.39c0.77,0,1.39,0.62,1.39,1.39c0,0.77-0.62,1.39-1.39,1.39
					C493.26,326.83,492.64,326.2,492.64,325.44z"/>
				<path class="st7" d="M486.37,325.44c0-0.77,0.62-1.39,1.39-1.39c0.77,0,1.39,0.62,1.39,1.39c0,0.77-0.62,1.39-1.39,1.39
					C487,326.83,486.37,326.2,486.37,325.44z"/>
				<path class="st7" d="M534.08,325.44c0-0.77,0.62-1.39,1.39-1.39c0.77,0,1.39,0.62,1.39,1.39c0,0.77-0.62,1.39-1.39,1.39
					C534.71,326.83,534.08,326.2,534.08,325.44z"/>
				<path class="st7" d="M503.92,325.44c0-0.77,0.62-1.39,1.39-1.39c0.77,0,1.39,0.62,1.39,1.39c0,0.77-0.62,1.39-1.39,1.39
					C504.55,326.83,503.92,326.2,503.92,325.44z"/>
				<path class="st2" d="M527.94,325.44c0-0.77,0.62-1.39,1.39-1.39s1.39,0.62,1.39,1.39c0,0.77-0.62,1.39-1.39,1.39
					S527.94,326.2,527.94,325.44z"/>
				<path class="st2" d="M521.8,325.44c0-0.77,0.62-1.39,1.39-1.39c0.77,0,1.39,0.62,1.39,1.39c0,0.77-0.62,1.39-1.39,1.39
					C522.42,326.83,521.8,326.2,521.8,325.44z"/>
				<path class="st2" d="M509.34,325.44c0-0.77,0.62-1.39,1.39-1.39c0.77,0,1.39,0.62,1.39,1.39c0,0.77-0.62,1.39-1.39,1.39
					C509.96,326.83,509.34,326.2,509.34,325.44z"/>
				<path class="st2" d="M481.28,325.44c0-0.77,0.62-1.39,1.39-1.39c0.77,0,1.39,0.62,1.39,1.39c0,0.77-0.62,1.39-1.39,1.39
					C481.9,326.83,481.28,326.2,481.28,325.44z"/>
				<path class="st8" d="M515.66,325.44c0-0.77,0.62-1.39,1.39-1.39s1.39,0.62,1.39,1.39c0,0.77-0.62,1.39-1.39,1.39
					S515.66,326.2,515.66,325.44z"/>
				<path class="st8" d="M498.08,325.44c0-0.77,0.62-1.39,1.39-1.39c0.77,0,1.39,0.62,1.39,1.39c0,0.77-0.62,1.39-1.39,1.39
					C498.7,326.83,498.08,326.2,498.08,325.44z"/>
			</g>
			<g>
				<path class="st7" d="M484.06,331.4c0,0.77-0.62,1.39-1.39,1.39c-0.77,0-1.39-0.62-1.39-1.39c0-0.77,0.62-1.39,1.39-1.39
					C483.44,330.01,484.06,330.63,484.06,331.4z"/>
				<path class="st7" d="M490.2,331.4c0,0.77-0.62,1.39-1.39,1.39c-0.77,0-1.39-0.62-1.39-1.39c0-0.77,0.62-1.39,1.39-1.39
					C489.58,330.01,490.2,330.63,490.2,331.4z"/>
				<path class="st7" d="M496.34,331.4c0,0.77-0.62,1.39-1.39,1.39c-0.77,0-1.39-0.62-1.39-1.39c0-0.77,0.62-1.39,1.39-1.39
					C495.72,330.01,496.34,330.63,496.34,331.4z"/>
				<path class="st7" d="M502.48,331.4c0,0.77-0.62,1.39-1.39,1.39c-0.77,0-1.39-0.62-1.39-1.39c0-0.77,0.62-1.39,1.39-1.39
					C501.86,330.01,502.48,330.63,502.48,331.4z"/>
				<path class="st7" d="M550.07,331.4c0,0.77-0.62,1.39-1.39,1.39c-0.77,0-1.39-0.62-1.39-1.39c0-0.77,0.62-1.39,1.39-1.39
					C549.45,330.01,550.07,330.63,550.07,331.4z"/>
				<path class="st7" d="M556.34,331.4c0,0.77-0.62,1.39-1.39,1.39c-0.77,0-1.39-0.62-1.39-1.39c0-0.77,0.62-1.39,1.39-1.39
					C555.71,330.01,556.34,330.63,556.34,331.4z"/>
				<path class="st7" d="M508.63,331.4c0,0.77-0.62,1.39-1.39,1.39c-0.77,0-1.39-0.62-1.39-1.39c0-0.77,0.62-1.39,1.39-1.39
					C508,330.01,508.63,330.63,508.63,331.4z"/>
				<path class="st7" d="M538.78,331.4c0,0.77-0.62,1.39-1.39,1.39c-0.77,0-1.39-0.62-1.39-1.39c0-0.77,0.62-1.39,1.39-1.39
					C538.16,330.01,538.78,330.63,538.78,331.4z"/>
				<path class="st2" d="M514.77,331.4c0,0.77-0.62,1.39-1.39,1.39c-0.77,0-1.39-0.62-1.39-1.39c0-0.77,0.62-1.39,1.39-1.39
					C514.14,330.01,514.77,330.63,514.77,331.4z"/>
				<path class="st2" d="M520.91,331.4c0,0.77-0.62,1.39-1.39,1.39c-0.77,0-1.39-0.62-1.39-1.39c0-0.77,0.62-1.39,1.39-1.39
					C520.28,330.01,520.91,330.63,520.91,331.4z"/>
				<path class="st2" d="M533.37,331.4c0,0.77-0.62,1.39-1.39,1.39c-0.77,0-1.39-0.62-1.39-1.39c0-0.77,0.62-1.39,1.39-1.39
					C532.74,330.01,533.37,330.63,533.37,331.4z"/>
				<path class="st2" d="M561.43,331.4c0,0.77-0.62,1.39-1.39,1.39c-0.77,0-1.39-0.62-1.39-1.39c0-0.77,0.62-1.39,1.39-1.39
					C560.81,330.01,561.43,330.63,561.43,331.4z"/>
				<path class="st8" d="M527.05,331.4c0,0.77-0.62,1.39-1.39,1.39c-0.77,0-1.39-0.62-1.39-1.39c0-0.77,0.62-1.39,1.39-1.39
					C526.43,330.01,527.05,330.63,527.05,331.4z"/>
				<path class="st8" d="M544.63,331.4c0,0.77-0.62,1.39-1.39,1.39c-0.77,0-1.39-0.62-1.39-1.39c0-0.77,0.62-1.39,1.39-1.39
					C544.01,330.01,544.63,330.63,544.63,331.4z"/>
			</g>
		</g>
	</g>
	<g>
		<path class="st7" d="M365.11,91.02c0,0,0.35-0.02,1.03-0.03c0.69-0.01,1.7-0.01,3.02-0.03c2.67-0.01,6.58-0.03,11.61-0.05
			c10.1-0.02,24.69-0.05,42.71-0.08c36.08-0.02,85.89-0.05,140.92-0.08c3.45-0.01,6.93,0.44,10.17,1.56c3.24,1.1,6.29,2.75,8.9,4.9
			c5.26,4.27,8.84,10.32,10.15,16.74c0.66,3.22,0.56,6.49,0.57,9.66c0,3.18,0,6.34,0,9.46c0,6.24-0.01,12.35-0.01,18.31
			c-0.02,23.84-0.04,45.32-0.06,63.35c-0.01,4.51-0.01,8.8-0.02,12.86c0,2.03-0.01,4-0.01,5.92c0.04,1.92-0.27,3.83-1.07,5.46
			c-1.53,3.32-4.54,5.49-7.54,6.2c-1.51,0.39-3.01,0.33-4.4,0.33c-1.4,0-2.73-0.01-3.99-0.01c-5.03-0.02-8.95-0.04-11.61-0.05
			c-1.32-0.01-2.33-0.02-3.02-0.03c-0.68-0.01-1.03-0.03-1.03-0.03s0.35-0.02,1.03-0.03c0.69-0.01,1.7-0.01,3.02-0.03
			c2.67-0.01,6.58-0.03,11.61-0.05c1.26,0,2.59-0.01,3.99-0.01c1.4-0.01,2.87,0.04,4.34-0.35c2.93-0.71,5.86-2.84,7.34-6.08
			c0.78-1.6,1.07-3.44,1.02-5.34c0-1.91-0.01-3.89-0.01-5.92c-0.01-4.06-0.01-8.36-0.02-12.86c-0.02-18.04-0.03-39.51-0.06-63.35
			c0-5.96-0.01-12.07-0.01-18.31c0-3.12,0-6.27,0-9.46c-0.01-3.19,0.09-6.4-0.57-9.56c-1.3-6.3-4.81-12.24-9.98-16.44
			c-2.56-2.11-5.56-3.73-8.74-4.81c-3.19-1.1-6.58-1.53-10-1.53c-55.02-0.03-104.84-0.06-140.92-0.08
			c-18.03-0.03-32.62-0.06-42.71-0.08c-5.03-0.02-8.95-0.04-11.61-0.05c-1.32-0.01-2.33-0.02-3.02-0.03
			C365.46,91.04,365.11,91.02,365.11,91.02z"/>
	</g>
	<g>
		<g>
			<rect x="264.26" y="157.14" class="st0" width="96.61" height="295.95"/>
			<polygon class="st1" points="437.09,453.09 360.87,453.09 360.73,157.14 437.09,157.14 			"/>
			<g>
				<rect x="269.6" y="204.51" class="st7" width="81.95" height="23.07"/>
				<rect x="271.89" y="207.41" class="st11" width="4.59" height="17.66"/>
				<path class="st10" d="M281.89,211.12c0,0.81-0.65,1.46-1.46,1.46c-0.81,0-1.46-0.65-1.46-1.46c0-0.81,0.65-1.46,1.46-1.46
					C281.23,209.66,281.89,210.32,281.89,211.12z"/>
				<path class="st10" d="M281.89,217.36c0,0.81-0.65,1.46-1.46,1.46c-0.81,0-1.46-0.65-1.46-1.46c0-0.81,0.65-1.46,1.46-1.46
					C281.23,215.9,281.89,216.56,281.89,217.36z"/>
				<rect x="287.72" y="209.66" class="st11" width="4.51" height="13.56"/>
				<rect x="294.23" y="209.66" class="st11" width="4.51" height="13.56"/>
				<rect x="300.75" y="209.66" class="st11" width="4.51" height="13.56"/>
				<rect x="307.26" y="209.66" class="st11" width="4.51" height="13.56"/>
				<rect x="313.77" y="209.66" class="st11" width="4.51" height="13.56"/>
				<rect x="320.29" y="209.66" class="st11" width="4.51" height="13.56"/>
				<rect x="326.8" y="209.66" class="st11" width="4.51" height="13.56"/>
				<rect x="333.31" y="209.66" class="st11" width="4.51" height="13.56"/>
				<rect x="339.83" y="209.66" class="st11" width="4.51" height="13.56"/>
				<rect x="346.34" y="209.66" class="st11" width="4.51" height="13.56"/>
			</g>
			<g>
				<rect x="269.6" y="237.65" class="st7" width="81.95" height="23.07"/>
				<rect x="271.89" y="240.55" class="st11" width="4.59" height="17.66"/>
				<path class="st10" d="M281.89,244.27c0,0.81-0.65,1.46-1.46,1.46c-0.81,0-1.46-0.65-1.46-1.46s0.65-1.46,1.46-1.46
					C281.23,242.81,281.89,243.46,281.89,244.27z"/>
				<path class="st10" d="M281.89,250.51c0,0.81-0.65,1.46-1.46,1.46c-0.81,0-1.46-0.65-1.46-1.46c0-0.81,0.65-1.46,1.46-1.46
					C281.23,249.05,281.89,249.7,281.89,250.51z"/>
				<rect x="287.72" y="242.81" class="st11" width="4.51" height="13.56"/>
				<rect x="294.23" y="242.81" class="st11" width="4.51" height="13.56"/>
				<rect x="300.75" y="242.81" class="st11" width="4.51" height="13.56"/>
				<rect x="307.26" y="242.81" class="st11" width="4.51" height="13.56"/>
				<rect x="313.77" y="242.81" class="st11" width="4.51" height="13.56"/>
				<rect x="320.29" y="242.81" class="st11" width="4.51" height="13.56"/>
				<rect x="326.8" y="242.81" class="st11" width="4.51" height="13.56"/>
				<rect x="333.31" y="242.81" class="st11" width="4.51" height="13.56"/>
				<rect x="339.83" y="242.81" class="st11" width="4.51" height="13.56"/>
				<rect x="346.34" y="242.81" class="st11" width="4.51" height="13.56"/>
			</g>
			<g>
				<rect x="269.6" y="271.06" class="st7" width="81.95" height="23.07"/>
				<rect x="271.89" y="273.96" class="st11" width="4.59" height="17.66"/>
				<path class="st10" d="M281.89,277.68c0,0.81-0.65,1.46-1.46,1.46c-0.81,0-1.46-0.65-1.46-1.46c0-0.81,0.65-1.46,1.46-1.46
					C281.23,276.22,281.89,276.87,281.89,277.68z"/>
				<path class="st10" d="M281.89,283.92c0,0.81-0.65,1.46-1.46,1.46c-0.81,0-1.46-0.65-1.46-1.46c0-0.81,0.65-1.46,1.46-1.46
					C281.23,282.46,281.89,283.11,281.89,283.92z"/>
				<rect x="287.72" y="276.22" class="st11" width="4.51" height="13.56"/>
				<rect x="294.23" y="276.22" class="st11" width="4.51" height="13.56"/>
				<rect x="300.75" y="276.22" class="st11" width="4.51" height="13.56"/>
				<rect x="307.26" y="276.22" class="st11" width="4.51" height="13.56"/>
				<rect x="313.77" y="276.22" class="st11" width="4.51" height="13.56"/>
				<rect x="320.29" y="276.22" class="st11" width="4.51" height="13.56"/>
				<rect x="326.8" y="276.22" class="st11" width="4.51" height="13.56"/>
				<rect x="333.31" y="276.22" class="st11" width="4.51" height="13.56"/>
				<rect x="339.83" y="276.22" class="st11" width="4.51" height="13.56"/>
				<rect x="346.34" y="276.22" class="st11" width="4.51" height="13.56"/>
			</g>
			<g>
				<rect x="269.6" y="307.16" class="st7" width="81.95" height="23.07"/>
				<rect x="271.89" y="310.06" class="st11" width="4.59" height="17.66"/>
				<path class="st10" d="M281.89,313.77c0,0.81-0.65,1.46-1.46,1.46c-0.81,0-1.46-0.65-1.46-1.46c0-0.81,0.65-1.46,1.46-1.46
					C281.23,312.31,281.89,312.97,281.89,313.77z"/>
				<path class="st10" d="M281.89,320.01c0,0.81-0.65,1.46-1.46,1.46c-0.81,0-1.46-0.65-1.46-1.46c0-0.81,0.65-1.46,1.46-1.46
					C281.23,318.55,281.89,319.2,281.89,320.01z"/>
				<rect x="287.72" y="312.31" class="st11" width="4.51" height="13.56"/>
				<rect x="294.23" y="312.31" class="st11" width="4.51" height="13.56"/>
				<rect x="300.75" y="312.31" class="st11" width="4.51" height="13.56"/>
				<rect x="307.26" y="312.31" class="st11" width="4.51" height="13.56"/>
				<rect x="313.77" y="312.31" class="st11" width="4.51" height="13.56"/>
				<rect x="320.29" y="312.31" class="st11" width="4.51" height="13.56"/>
				<rect x="326.8" y="312.31" class="st11" width="4.51" height="13.56"/>
				<rect x="333.31" y="312.31" class="st11" width="4.51" height="13.56"/>
				<rect x="339.83" y="312.31" class="st11" width="4.51" height="13.56"/>
				<rect x="346.34" y="312.31" class="st11" width="4.51" height="13.56"/>
			</g>
			<g>
				<rect x="269.6" y="343.61" class="st7" width="81.95" height="23.07"/>
				<rect x="271.89" y="346.51" class="st11" width="4.59" height="17.66"/>
				<path class="st10" d="M281.89,350.22c0,0.81-0.65,1.46-1.46,1.46c-0.81,0-1.46-0.65-1.46-1.46c0-0.81,0.65-1.46,1.46-1.46
					C281.23,348.76,281.89,349.41,281.89,350.22z"/>
				<path class="st10" d="M281.89,356.46c0,0.81-0.65,1.46-1.46,1.46c-0.81,0-1.46-0.65-1.46-1.46c0-0.81,0.65-1.46,1.46-1.46
					C281.23,355,281.89,355.65,281.89,356.46z"/>
				<rect x="287.72" y="348.76" class="st11" width="4.51" height="13.56"/>
				<rect x="294.23" y="348.76" class="st11" width="4.51" height="13.56"/>
				<rect x="300.75" y="348.76" class="st11" width="4.51" height="13.56"/>
				<rect x="307.26" y="348.76" class="st11" width="4.51" height="13.56"/>
				<rect x="313.77" y="348.76" class="st11" width="4.51" height="13.56"/>
				<rect x="320.29" y="348.76" class="st11" width="4.51" height="13.56"/>
				<rect x="326.8" y="348.76" class="st11" width="4.51" height="13.56"/>
				<rect x="333.31" y="348.76" class="st11" width="4.51" height="13.56"/>
				<rect x="339.83" y="348.76" class="st11" width="4.51" height="13.56"/>
				<rect x="346.34" y="348.76" class="st11" width="4.51" height="13.56"/>
			</g>
			<g>
				<rect x="269.6" y="416.15" class="st7" width="81.95" height="23.07"/>
				<rect x="271.89" y="419.05" class="st11" width="4.59" height="17.66"/>
				<path class="st10" d="M281.89,422.76c0,0.81-0.65,1.46-1.46,1.46c-0.81,0-1.46-0.65-1.46-1.46c0-0.81,0.65-1.46,1.46-1.46
					C281.23,421.3,281.89,421.96,281.89,422.76z"/>
				<path class="st10" d="M281.89,429c0,0.81-0.65,1.46-1.46,1.46c-0.81,0-1.46-0.65-1.46-1.46c0-0.81,0.65-1.46,1.46-1.46
					C281.23,427.54,281.89,428.2,281.89,429z"/>
				<rect x="287.72" y="421.3" class="st11" width="4.51" height="13.56"/>
				<rect x="294.23" y="421.3" class="st11" width="4.51" height="13.56"/>
				<rect x="300.75" y="421.3" class="st11" width="4.51" height="13.56"/>
				<rect x="307.26" y="421.3" class="st11" width="4.51" height="13.56"/>
				<rect x="313.77" y="421.3" class="st11" width="4.51" height="13.56"/>
				<rect x="320.29" y="421.3" class="st11" width="4.51" height="13.56"/>
				<rect x="326.8" y="421.3" class="st11" width="4.51" height="13.56"/>
				<rect x="333.31" y="421.3" class="st11" width="4.51" height="13.56"/>
				<rect x="339.83" y="421.3" class="st11" width="4.51" height="13.56"/>
				<rect x="346.34" y="421.3" class="st11" width="4.51" height="13.56"/>
			</g>
			<g>
				<rect x="269.6" y="379.91" class="st7" width="81.95" height="23.07"/>
				<rect x="271.89" y="382.81" class="st11" width="4.59" height="17.66"/>
				<path class="st10" d="M281.89,386.52c0,0.81-0.65,1.46-1.46,1.46c-0.81,0-1.46-0.65-1.46-1.46c0-0.81,0.65-1.46,1.46-1.46
					C281.23,385.06,281.89,385.72,281.89,386.52z"/>
				<path class="st10" d="M281.89,392.76c0,0.81-0.65,1.46-1.46,1.46c-0.81,0-1.46-0.65-1.46-1.46c0-0.81,0.65-1.46,1.46-1.46
					C281.23,391.3,281.89,391.96,281.89,392.76z"/>
				<rect x="287.72" y="385.06" class="st11" width="4.51" height="13.56"/>
				<rect x="294.23" y="385.06" class="st11" width="4.51" height="13.56"/>
				<rect x="300.75" y="385.06" class="st11" width="4.51" height="13.56"/>
				<rect x="307.26" y="385.06" class="st11" width="4.51" height="13.56"/>
				<rect x="313.77" y="385.06" class="st11" width="4.51" height="13.56"/>
				<rect x="320.29" y="385.06" class="st11" width="4.51" height="13.56"/>
				<rect x="326.8" y="385.06" class="st11" width="4.51" height="13.56"/>
				<rect x="333.31" y="385.06" class="st11" width="4.51" height="13.56"/>
				<rect x="339.83" y="385.06" class="st11" width="4.51" height="13.56"/>
				<rect x="346.34" y="385.06" class="st11" width="4.51" height="13.56"/>
			</g>
			<g>
				<path class="st7" d="M320.29,204.51c-0.02,0-0.05-0.24-0.08-0.71c-0.03-0.47-0.06-1.16-0.08-2.05c-0.02-0.89-0.04-1.98-0.1-3.24
					c-0.07-1.25-0.16-2.7-0.56-4.21c-0.43-1.5-1.12-3.12-2.19-4.62c-1.06-1.5-2.57-2.84-4.49-3.61c-1.91-0.79-4.1-1.09-6.37-1.29
					c-2.28-0.2-4.64-0.4-7.06-0.61c-9.67-0.84-18.45-1.38-24.8-1.49c-3.18-0.07-5.75-0.05-7.53-0.04c-0.85,0.01-1.53,0.02-2.05,0.02
					c-0.47,0-0.72-0.01-0.72-0.03c0-0.02,0.24-0.04,0.71-0.08c0.52-0.03,1.2-0.07,2.05-0.12c1.78-0.07,4.36-0.15,7.54-0.13
					c6.37,0.02,15.16,0.5,24.84,1.34c2.42,0.21,4.78,0.42,7.06,0.62c2.28,0.21,4.52,0.52,6.51,1.36c2,0.82,3.58,2.25,4.66,3.81
					c1.09,1.56,1.77,3.22,2.19,4.77c0.39,1.57,0.45,3.03,0.5,4.3c0.03,1.27,0.02,2.36,0.01,3.25c-0.01,0.85-0.01,1.53-0.02,2.05
					C320.31,204.26,320.31,204.51,320.29,204.51z"/>
			</g>
			<g>
				<path class="st7" d="M295.43,204.51c-0.02,0-0.03-0.23-0.05-0.67c-0.01-0.49-0.01-1.13-0.02-1.93c-0.01-0.84,0-1.86-0.1-3.04
					c-0.11-1.17-0.29-2.53-1.01-3.8c-0.71-1.26-2.12-2.21-3.7-2.85c-1.6-0.63-3.49-0.88-5.4-0.55c-0.95,0.16-1.91,0.47-2.79,0.95
					c-0.87,0.48-1.69,1.16-2.17,2.05c-0.5,0.88-0.51,1.99,0.01,2.9c0.51,0.9,1.42,1.61,2.46,1.85c1.04,0.25,2.13-0.11,2.88-0.83
					c0.76-0.72,1.22-1.73,1.29-2.74c0.1-1.02-0.28-1.99-0.86-2.8c-0.57-0.81-1.33-1.48-2.17-1.92c-0.83-0.47-1.78-0.54-2.71-0.7
					c-0.92-0.14-1.82-0.26-2.7-0.36c-1.74-0.2-3.38-0.31-4.87-0.37c-2.98-0.12-5.41-0.07-7.08-0.07c-0.79,0-1.43,0-1.93,0
					c-0.44-0.01-0.67-0.02-0.67-0.04c0-0.02,0.23-0.04,0.67-0.07c0.49-0.02,1.13-0.06,1.93-0.1c1.67-0.06,4.1-0.17,7.1-0.1
					c1.5,0.04,3.14,0.13,4.9,0.31c0.88,0.09,1.78,0.2,2.72,0.33c0.47,0.07,0.93,0.13,1.42,0.22c0.5,0.1,0.98,0.27,1.44,0.5
					c0.92,0.47,1.73,1.18,2.36,2.06c0.62,0.86,1.07,1.98,0.96,3.13c-0.08,1.14-0.59,2.26-1.44,3.08c-0.84,0.83-2.14,1.26-3.35,0.96
					c-1.19-0.28-2.21-1.07-2.8-2.1c-0.61-1.03-0.58-2.39,0-3.39c0.55-1.02,1.45-1.73,2.38-2.25c0.94-0.51,1.95-0.82,2.95-0.98
					c2-0.33,3.97-0.05,5.64,0.62c1.64,0.68,3.11,1.69,3.87,3.07c0.74,1.37,0.89,2.78,0.98,3.96c0.06,1.2,0.03,2.22,0.01,3.06
					c-0.03,0.79-0.06,1.43-0.08,1.93C295.46,204.27,295.44,204.51,295.43,204.51z"/>
			</g>
			<g>
				<path class="st7" d="M326.98,204.51c-0.02,0-0.07-0.26-0.17-0.76c-0.09-0.5-0.23-1.24-0.43-2.19c-0.41-1.89-1.06-4.63-2.41-7.82
					c-1.34-3.16-3.47-6.83-7.13-9.57c-1.79-1.4-4.09-2.16-6.54-2.49c-2.45-0.35-5.04-0.34-7.68-0.41
					c-10.59-0.2-20.19-0.16-27.13-0.43c-3.47-0.12-6.28-0.28-8.22-0.42c-0.93-0.08-1.67-0.14-2.23-0.19
					c-0.51-0.05-0.78-0.08-0.77-0.1c0-0.02,0.27-0.02,0.78,0c0.56,0.02,1.3,0.05,2.23,0.09c1.94,0.07,4.75,0.18,8.22,0.25
					c6.94,0.18,16.53,0.08,27.14,0.28c2.64,0.07,5.24,0.06,7.75,0.43c2.49,0.34,4.91,1.15,6.75,2.61c1.83,1.43,3.37,3.05,4.51,4.77
					c1.16,1.71,2.01,3.43,2.67,5.05c1.32,3.24,1.92,6.01,2.27,7.92c0.17,0.96,0.28,1.71,0.34,2.21
					C326.97,204.24,326.99,204.5,326.98,204.51z"/>
			</g>
			<rect x="270.73" y="160.82" class="st7" width="79.7" height="11.57"/>
			<rect x="288.26" y="166.61" class="st11" width="43.39" height="5.78"/>
			<g>
				<g>
					<path class="st7" d="M382.95,400.77c0.01,0.06-0.88,0.14-2.41,0.59c-1.52,0.46-3.7,1.31-6.02,2.95
						c-1.15,0.82-2.34,1.85-3.38,3.14c-0.53,0.64-0.99,1.37-1.39,2.14c-0.36,0.79-0.65,1.66-0.87,2.57
						c-0.91,3.65-0.63,7.84-0.45,12.2c0.18,4.35-0.1,8.69-1.83,12.18c-0.82,1.74-1.97,3.22-3.25,4.35
						c-1.29,1.13-2.67,1.95-3.99,2.53c-1.33,0.59-2.6,0.93-3.73,1.12c-1.14,0.16-2.13,0.19-2.94,0.12c-0.8-0.07-1.42-0.17-1.83-0.29
						c-0.41-0.11-0.62-0.17-0.62-0.19c0.01-0.06,0.87,0.21,2.46,0.27c0.79,0.04,1.77-0.03,2.88-0.21c1.11-0.21,2.34-0.57,3.63-1.17
						c1.28-0.59,2.62-1.41,3.86-2.52c1.23-1.11,2.32-2.54,3.11-4.23c1.64-3.39,1.92-7.62,1.74-11.96
						c-0.18-4.34-0.45-8.59,0.51-12.33c0.24-0.93,0.53-1.82,0.92-2.66c0.43-0.81,0.91-1.56,1.46-2.21c1.09-1.32,2.31-2.35,3.5-3.17
						c2.39-1.63,4.62-2.44,6.18-2.84c0.78-0.19,1.4-0.31,1.82-0.35C382.72,400.77,382.94,400.76,382.95,400.77z"/>
				</g>
				<rect x="346.21" y="440.62" class="st7" width="6.54" height="7.96"/>
				<g>
					<rect x="382.95" y="380.67" class="st11" width="36.69" height="40.2"/>
					
						<ellipse transform="matrix(0.2158 -0.9764 0.9764 0.2158 -76.8033 706.2284)" class="st7" cx="401.29" cy="400.93" rx="12.08" ry="12.08"/>
					<path class="st11" d="M407.33,400.93c0,3.33-2.7,6.04-6.04,6.04s-6.04-2.7-6.04-6.04s2.7-6.04,6.04-6.04
						S407.33,397.6,407.33,400.93z"/>
					<circle class="st7" cx="387.91" cy="386.91" r="1.12"/>
					<circle class="st7" cx="414.02" cy="386.91" r="1.12"/>
					<path class="st7" d="M415.39,416.6c0,0.62-0.5,1.12-1.12,1.12c-0.62,0-1.12-0.5-1.12-1.12c0-0.62,0.5-1.12,1.12-1.12
						C414.88,415.48,415.39,415.98,415.39,416.6z"/>
					<circle class="st7" cx="387.91" cy="417.06" r="1.12"/>
					<rect x="419.64" y="380.67" class="st7" width="2.96" height="40.2"/>
				</g>
			</g>
		</g>
	</g>
	<g>
		<path class="st8" d="M374.98,112.58c3.62-8.46,1.42-17.28-4.53-24.29c-5.95-7.02-16-10.27-24.93-8.08
			c-1.59-8.9-7.79-16.84-16.04-20.54c-8.25-3.7-18.3-3.04-26,1.69c-7.7,4.73-12.82,13.41-13.24,22.44
			c-6.12,1.02-11.69,4.94-14.74,10.34c-3.04,5.41-3.5,12.2-1.2,17.96L374.98,112.58z"/>
	</g>
	<g>
		<path class="st7" d="M583.4,328.42c0-0.01,0.12-0.02,0.36-0.03c0.26-0.01,0.61-0.02,1.05-0.03c0.95-0.01,2.3-0.03,4.03-0.05
			c1.75,0.01,3.89-0.06,6.27-0.73c2.37-0.65,4.97-1.86,7.34-3.86c2.33-2.02,4.51-4.76,5.71-8.21c0.35-0.84,0.53-1.75,0.77-2.66
			c0.13-0.93,0.34-1.86,0.34-2.83c0.11-1.93,0.02-3.96,0.05-6.02c-0.01-8.27-0.01-17.35-0.02-26.89c0-2.38,0-4.74,0-7.06
			c0.01-1.17,0-2.31-0.13-3.42c-0.15-1.11-0.38-2.21-0.77-3.25c-1.47-4.19-4.73-7.47-8.48-9.05c-3.77-1.72-7.83-1.13-11.48-1.29
			c-3.67-0.04-7.1-0.07-10.22-0.1c-6.23-0.08-11.28-0.14-14.8-0.19c-1.72-0.03-3.07-0.06-4.02-0.08c-0.44-0.01-0.78-0.02-1.05-0.03
			c-0.24-0.01-0.36-0.02-0.36-0.03c0-0.01,0.12-0.02,0.36-0.02c0.26,0,0.61-0.01,1.05-0.02c0.95,0,2.3-0.01,4.03-0.02
			c3.53,0,8.58,0.01,14.8,0.02c3.13,0.01,6.55,0.03,10.22,0.04c1.84,0.01,3.74,0.02,5.7,0.03c1.99,0.02,4.03,0.43,5.96,1.25
			c3.87,1.61,7.24,5,8.77,9.32c0.4,1.07,0.65,2.2,0.8,3.35c0.14,1.16,0.14,2.33,0.14,3.48c0,2.32,0,4.68,0,7.06
			c-0.01,9.54-0.01,18.62-0.02,26.89c-0.03,2.07,0.05,4.07-0.07,6.05c-0.01,0.99-0.23,1.95-0.37,2.9c-0.25,0.93-0.44,1.86-0.8,2.72
			c-1.25,3.52-3.49,6.31-5.88,8.34c-2.43,2.02-5.1,3.22-7.51,3.85c-2.42,0.65-4.61,0.69-6.34,0.65c-1.72-0.02-3.07-0.04-4.03-0.05
			c-0.44-0.01-0.78-0.02-1.05-0.03C583.52,328.44,583.4,328.43,583.4,328.42z"/>
	</g>
	<polygon class="st10" points="316.7,112.28 316.7,98.11 309.6,98.11 320.29,83.02 330.98,98.01 324.01,98.01 324.01,112.28 	"/>
</g>
<g id="Character">
	<g>
		<g>
			<polygon class="st1" points="559.84,296.02 567.39,305.88 581.76,299.52 572.57,284.77 			"/>
			<polygon class="st11" points="564.31,297.18 564.54,302.06 569.3,304.29 569.06,299.29 			"/>
			<polygon class="st11" points="568.82,294.46 569.06,299.33 573.81,301.56 573.57,296.56 			"/>
			<polygon class="st11" points="573.41,291.73 573.64,296.61 578.4,298.84 578.15,293.84 			"/>
			<g>
				<g>
					<g>
						<g>
							<g>
								<g>
									<g>
										<path class="st8" d="M582.33,299.32l-1.64-2.51l-14.08,8.91l3.32,5.56l0.92-0.46c4.09-2.09,20.67-10.9,22.86-13.24
											C596.15,294.97,582.33,299.32,582.33,299.32z"/>
									</g>
								</g>
							</g>
							<g class="st12">
								<g>
									<g>
										<path class="st10" d="M575.07,308.15c-0.9-1.08-2.18-1.95-3.58-2.14c-1.4-0.19-2.53-0.1-4.08,1.08l2.41,3.99
											L575.07,308.15z"/>
									</g>
								</g>
							</g>
						</g>
						<g>
							<g>
								<g>
									<path class="st13" d="M589.21,297.41c0,0,5-1.25,4.87-0.24c-0.12,1.02-16.54,10.55-24.15,14.12l-0.16-0.33L589.01,300
										C589.01,300,588.39,297.93,589.21,297.41z"/>
								</g>
							</g>
						</g>
						<g>
							<g>
								<g>
									<g>
										<path class="st7" d="M569.53,311.08c0,0.01,0.09-0.03,0.26-0.12c0.22-0.11,0.46-0.23,0.73-0.37
											c0.73-0.38,1.62-0.85,2.68-1.4c2.25-1.2,5.35-2.9,8.72-4.86c3.37-1.96,6.39-3.79,8.55-5.15c1.01-0.64,1.86-1.18,2.55-1.63
											c0.25-0.17,0.48-0.32,0.69-0.45c0.16-0.11,0.24-0.16,0.23-0.17s-0.09,0.04-0.25,0.14c-0.21,0.13-0.44,0.27-0.71,0.42
											c-0.7,0.43-1.57,0.95-2.58,1.57c-2.18,1.33-5.21,3.14-8.58,5.1c-3.37,1.95-6.45,3.67-8.68,4.91
											c-1.04,0.58-1.93,1.06-2.65,1.46c-0.27,0.15-0.5,0.28-0.72,0.4C569.61,311.02,569.53,311.07,569.53,311.08z"/>
									</g>
								</g>
							</g>
						</g>
						<g>
							<g>
								<g>
									<g>
										<path class="st7" d="M589.14,300.23c0.06-0.02-0.26-0.67-0.24-1.53c0.01-0.86,0.37-1.49,0.31-1.52
											c-0.04-0.04-0.49,0.59-0.51,1.51C588.67,299.61,589.1,300.26,589.14,300.23z"/>
									</g>
								</g>
							</g>
						</g>
						<g>
							<g>
								<g>
									<g>
										<path class="st7" d="M583.64,300.54c0.06,0,0.12-0.36,0.13-0.82c0.02-0.45-0.01-0.82-0.07-0.82
											c-0.06,0-0.12,0.36-0.13,0.81C583.56,300.17,583.59,300.54,583.64,300.54z"/>
									</g>
								</g>
							</g>
						</g>
						<g>
							<g>
								<g>
									<g>
										<path class="st7" d="M582.12,300.6c0.05,0.02,0.19-0.27,0.31-0.63c0.12-0.37,0.17-0.68,0.12-0.69
											c-0.05-0.02-0.19,0.27-0.31,0.63C582.12,300.27,582.07,300.58,582.12,300.6z"/>
									</g>
								</g>
							</g>
						</g>
						<g>
							<g>
								<g>
									<g>
										<path class="st7" d="M580.6,299.67c0.03,0.05,0.39-0.1,0.81-0.34c0.42-0.24,0.73-0.47,0.71-0.52
											c-0.03-0.05-0.39,0.1-0.81,0.34C580.89,299.39,580.57,299.62,580.6,299.67z"/>
									</g>
								</g>
							</g>
						</g>
						<g>
							<g>
								<g>
									<g>
										<path class="st7" d="M579.79,298.86c0.01,0.05,0.47,0.01,0.98-0.24c0.51-0.24,0.83-0.58,0.8-0.62
											c-0.04-0.05-0.4,0.2-0.89,0.44C580.2,298.67,579.78,298.8,579.79,298.86z"/>
									</g>
								</g>
							</g>
						</g>
						<g>
							<g>
								<g>
									<g>
										<path class="st7" d="M583.4,299c0.01,0.02,0.39-0.14,0.92-0.54c0.26-0.2,0.56-0.46,0.86-0.79
											c0.14-0.17,0.3-0.33,0.43-0.56c0.06-0.11,0.11-0.26,0.06-0.42c-0.04-0.16-0.21-0.27-0.35-0.29
											c-1.15,0.06-1.74,1.07-1.81,1.71c-0.05,0.34,0,0.61,0.06,0.79c0.05,0.18,0.11,0.27,0.12,0.26
											c0.04-0.01-0.15-0.4-0.04-1.03c0.06-0.31,0.21-0.67,0.49-0.97c0.27-0.29,0.72-0.58,1.14-0.56
											c0.21,0.02,0.25,0.23,0.15,0.42c-0.09,0.19-0.26,0.36-0.39,0.52c-0.28,0.32-0.56,0.59-0.81,0.8
											C583.74,298.77,583.38,298.97,583.4,299z"/>
									</g>
								</g>
							</g>
						</g>
						<g>
							<g>
								<g>
									<g>
										<path class="st7" d="M583.67,298.91c0.02,0,0.02-0.31-0.27-0.7c-0.14-0.19-0.36-0.39-0.64-0.53
											c-0.28-0.11-0.66-0.27-1.04-0.02c-0.2,0.15-0.16,0.46-0.04,0.59c0.11,0.15,0.26,0.25,0.4,0.32
											c0.27,0.15,0.54,0.25,0.76,0.31c0.45,0.11,0.75,0.09,0.75,0.07c0-0.03-0.28-0.06-0.7-0.2c-0.21-0.07-0.46-0.18-0.71-0.33
											c-0.24-0.12-0.53-0.42-0.32-0.6c0.22-0.16,0.59-0.06,0.84,0.04c0.26,0.12,0.47,0.28,0.61,0.45
											C583.58,298.63,583.63,298.92,583.67,298.91z"/>
									</g>
								</g>
							</g>
						</g>
						<g>
							<g>
								<g>
									<g>
										<path class="st7" d="M567.54,306.98c0.02,0.03,0.39-0.28,1.08-0.58c0.69-0.3,1.73-0.56,2.87-0.39
											c1.14,0.17,2.07,0.72,2.64,1.21c0.58,0.49,0.84,0.89,0.87,0.87c0.01-0.01-0.04-0.11-0.17-0.29
											c-0.12-0.18-0.32-0.42-0.61-0.68c-0.56-0.53-1.51-1.12-2.7-1.3c-1.19-0.17-2.27,0.12-2.96,0.46
											c-0.35,0.17-0.61,0.35-0.78,0.48C567.62,306.88,567.53,306.97,567.54,306.98z"/>
									</g>
								</g>
							</g>
						</g>
						<g>
							<g>
								<g>
									<g>
										<path class="st7" d="M576.07,305.7c0.02,0.05,1.05-0.34,2.22-1.01c1.18-0.67,2.04-1.35,2.01-1.39
											c-0.03-0.05-0.94,0.55-2.1,1.21C577.03,305.17,576.05,305.64,576.07,305.7z"/>
									</g>
								</g>
							</g>
						</g>
						<g>
							<g>
								<g>
									<g>
										<path class="st7" d="M573.25,307.33c-0.01,0.06,0.19,0.15,0.41,0.31c0.22,0.16,0.38,0.32,0.43,0.29
											c0.05-0.03-0.06-0.27-0.32-0.45C573.52,307.3,573.26,307.28,573.25,307.33z"/>
									</g>
								</g>
							</g>
						</g>
						<g>
							<g>
								<g>
									<g>
										<path class="st7" d="M571.42,306.62c-0.01,0.05,0.17,0.15,0.4,0.21c0.24,0.06,0.44,0.07,0.45,0.02
											c0.01-0.05-0.17-0.15-0.4-0.21C571.64,306.58,571.43,306.57,571.42,306.62z"/>
									</g>
								</g>
							</g>
						</g>
						<g>
							<g>
								<g>
									<g>
										<path class="st7" d="M569.55,306.9c0.04,0.04,0.23-0.07,0.48-0.12c0.25-0.05,0.47-0.02,0.49-0.08
											c0.02-0.05-0.22-0.18-0.53-0.12C569.68,306.65,569.51,306.87,569.55,306.9z"/>
									</g>
								</g>
							</g>
						</g>
						<g>
							<g>
								<g>
									<g>
										<path class="st7" d="M568.3,307.25c0.01,0.05,0.13,0.08,0.28,0.06c0.15-0.02,0.26-0.09,0.25-0.14
											c-0.01-0.05-0.13-0.08-0.28-0.06C568.4,307.13,568.29,307.19,568.3,307.25z"/>
									</g>
								</g>
							</g>
						</g>
					</g>
				</g>
			</g>
		</g>
		<g>
			<path class="st7" d="M464.45,288.72l56.23-53.03c3.48-3.56,8.24-5.56,13.22-5.56l0,0c6.63,0,12.76,3.55,16.05,9.31l28.77,49.44
				l-18.25,10.53l-27.71-35.24l-27.77,25.09L464.45,288.72z"/>
			<path class="st7" d="M447.89,291.38c-0.24,0.72-1.91,18.83,22.41,18.83h64.97c8.22,0,14.89-6.67,14.89-14.89l0,0
				c0-8.22-6.67-14.89-14.89-14.89h-60.49c-2.16,0-4.3,0.47-6.27,1.38L447.89,291.38z"/>
			<g>
				<path class="st11" d="M541.02,280.43c0,0.14-13.42,0.26-29.97,0.26c-16.55,0-29.97-0.12-29.97-0.26
					c0-0.14,13.42-0.26,29.97-0.26C527.6,280.17,541.02,280.29,541.02,280.43z"/>
			</g>
			<g>
				<path class="st11" d="M530.99,251.77c0.16,0,0.16,2.81,0.67,6.22c0.49,3.41,1.3,6.1,1.15,6.15c-0.12,0.05-1.16-2.61-1.66-6.07
					C530.63,254.61,530.86,251.76,530.99,251.77z"/>
			</g>
			<g>
				<path class="st11" d="M533.75,251.37c0.14,0,0.28,2.87-0.03,6.39c-0.3,3.53-0.93,6.33-1.06,6.31c-0.15-0.03,0.25-2.85,0.54-6.35
					C533.51,254.22,533.6,251.37,533.75,251.37z"/>
			</g>
		</g>
		<g>
			<g>
				<g>
					<g>
						<path class="st7" d="M483.38,171.62c0.08,0.74-0.32,1.5-0.97,1.86c-0.65,0.36-1.5,0.29-2.09-0.16
							c-1.11-0.86-0.93-2.59-0.43-3.9c0.51-1.31,1.25-2.67,0.93-4.04c-0.25-1.05-1.07-1.84-1.66-2.74
							c-1.02-1.57-1.33-3.62-0.67-5.37c0.66-1.75,2.34-3.11,4.21-3.26c1.91-0.15,4.02,0.84,5.62-0.21c1.16-0.76,1.52-2.3,2.5-3.28
							c1.51-1.53,4.04-1.32,6.08-0.63c2.04,0.69,4.03,1.78,6.18,1.67c1.79-0.09,3.43-1.01,5.18-1.43c3.79-0.91,8.06,0.82,10.15,4.1
							c2.09,3.29,1.84,7.89-0.59,10.93c-0.87,1.09-2.84,4.36-6.75,3.55"/>
					</g>
					<g>
						<g>
							<g>
								<g>
									<path class="st14" d="M485.6,156.81l-0.53,2.82l-8.16,42.12c-0.95,4.89,2.5,9.6,7.75,10.57l0,0
										c5.3,0.98,10.43-2.21,11.46-7.13c1.09-5.17,2.33-10.59,2.33-10.59s6.89,0.28,10.08-8.13c1.58-4.18,2.84-11.31,3.68-17.18
										c0.75-5.28-3.04-10.13-8.35-10.66L485.6,156.81z"/>
								</g>
								<g>
									<g>
										<path class="st7" d="M508.27,173.48c-0.1,0.59-0.69,1-1.31,0.9c-0.62-0.09-1.04-0.65-0.94-1.24c0.1-0.59,0.69-1,1.31-0.9
											C507.95,172.33,508.37,172.88,508.27,173.48z"/>
									</g>
									<g>
										<g>
											<path class="st7" d="M509.91,172.66c-0.17,0.12-0.88-0.68-2.08-0.93c-1.2-0.26-2.2,0.17-2.3,0
												c-0.05-0.08,0.14-0.31,0.59-0.51c0.44-0.2,1.13-0.34,1.88-0.18c0.75,0.16,1.32,0.56,1.62,0.92
												C509.92,172.32,509.99,172.61,509.91,172.66z"/>
										</g>
									</g>
								</g>
								<g>
									<g>
										<path class="st7" d="M496.8,171.14c-0.1,0.59-0.69,1-1.31,0.9c-0.62-0.09-1.04-0.65-0.94-1.24c0.1-0.59,0.69-1,1.31-0.9
											C496.48,169.99,496.9,170.55,496.8,171.14z"/>
									</g>
									<g>
										<g>
											<path class="st7" d="M498.07,170.44c-0.17,0.12-0.88-0.68-2.08-0.93c-1.2-0.26-2.2,0.17-2.3,0
												c-0.05-0.08,0.14-0.31,0.59-0.51c0.43-0.2,1.13-0.34,1.88-0.18c0.75,0.16,1.32,0.57,1.62,0.92
												C498.08,170.1,498.16,170.39,498.07,170.44z"/>
										</g>
									</g>
								</g>
								<g>
									<g>
										<path class="st7" d="M500.58,180.24c0.01-0.07,0.78-0.04,2.02,0.05c0.31,0.03,0.62,0.03,0.71-0.17
											c0.12-0.21,0.06-0.56-0.02-0.95c-0.13-0.8-0.27-1.64-0.42-2.52c-0.57-3.58-0.91-6.5-0.77-6.52
											c0.14-0.02,0.72,2.86,1.29,6.45c0.13,0.88,0.26,1.72,0.38,2.53c0.04,0.37,0.16,0.81-0.09,1.24
											c-0.13,0.21-0.39,0.33-0.6,0.34c-0.21,0.02-0.38-0.01-0.54-0.04C501.33,180.46,500.57,180.31,500.58,180.24z"/>
									</g>
								</g>
								<g>
									<path class="st15" d="M498.46,194.61c0,0-5.93-0.84-11-5.52c0,0,1.58,6.56,10.45,7.55L498.46,194.61z"/>
								</g>
								<g>
									<g>
										<path class="st7" d="M496.88,180.33c0.2,0.03-0.07,1.33,0.85,2.49c0.92,1.16,2.34,1.3,2.31,1.48
											c0,0.09-0.36,0.19-0.95,0.08c-0.58-0.1-1.38-0.46-1.94-1.17c-0.56-0.71-0.7-1.52-0.63-2.07
											C496.58,180.6,496.79,180.31,496.88,180.33z"/>
									</g>
								</g>
							</g>
						</g>
					</g>
					<g>
						<path class="st7" d="M499.36,165.8c-0.19,0.3-1.35-0.1-2.79-0.22c-1.44-0.15-2.66,0.02-2.79-0.31
							c-0.05-0.16,0.21-0.42,0.73-0.64c0.52-0.22,1.31-0.37,2.17-0.29c0.86,0.08,1.61,0.38,2.08,0.69
							C499.24,165.35,499.44,165.66,499.36,165.8z"/>
					</g>
					<g>
						<path class="st7" d="M510.19,169.1c-0.27,0.23-1.04-0.23-2.03-0.45c-0.98-0.25-1.87-0.2-2.01-0.52
							c-0.06-0.16,0.13-0.4,0.55-0.58c0.42-0.18,1.07-0.27,1.74-0.1c0.68,0.16,1.22,0.53,1.51,0.88
							C510.26,168.68,510.31,168.99,510.19,169.1z"/>
					</g>
					<g>
						<path class="st7" d="M513.3,165.5c0,0-4.92,1.4-10.31-2.58c-3.54-2.61-7.89-4.35-9.02-3.74c-1.13,0.61-2.04,4.56-6.08,5.06
							c0,0-1.07,7.66-4.06,6.86c-2.99-0.8,0.62-15.88,0.62-15.88l8.42,1.28l8.38-0.11l7.45,2.41l5.63,2.65L513.3,165.5z"/>
					</g>
					<g>
						<g>
							<path class="st7" d="M484.69,153.01c-0.02-0.12,0.75-0.24,1.52,0.23c0.78,0.47,1.02,1.21,0.9,1.25
								c-0.12,0.06-0.49-0.46-1.14-0.85C485.33,153.24,484.69,153.14,484.69,153.01z"/>
						</g>
					</g>
					<g>
						<g>
							<path class="st7" d="M487.73,150.97c0.14,0.04-0.09,0.92-0.15,1.98c-0.06,1.06,0.23,1.9,0.11,1.95
								c-0.1,0.07-0.64-0.79-0.57-1.97C487.18,151.76,487.63,150.93,487.73,150.97z"/>
						</g>
					</g>
				</g>
				<g>
					<g>
						<g>
							<path class="st14" d="M484.65,168.01c-0.11-0.09-4.67-2.76-5.77,2.3c-1.11,5.06,4.2,5.13,4.24,4.98
								C483.16,175.15,484.65,168.01,484.65,168.01z"/>
						</g>
					</g>
					<g>
						<g>
							<g>
								<path class="st15" d="M482,173.04c-0.02-0.02-0.1,0.04-0.27,0.08c-0.16,0.03-0.42,0.03-0.66-0.13
									c-0.49-0.31-0.76-1.26-0.58-2.18c0.09-0.46,0.28-0.88,0.52-1.21c0.24-0.34,0.53-0.54,0.81-0.53c0.28,0,0.44,0.2,0.47,0.36
									c0.04,0.16-0.02,0.25,0.01,0.26c0.01,0.02,0.13-0.06,0.13-0.28c0-0.1-0.03-0.24-0.13-0.36c-0.1-0.13-0.27-0.21-0.46-0.24
									c-0.4-0.06-0.83,0.22-1.09,0.58c-0.29,0.36-0.52,0.82-0.61,1.34c-0.19,1.03,0.12,2.09,0.81,2.47
									c0.34,0.17,0.66,0.13,0.84,0.04C481.96,173.16,482.01,173.05,482,173.04z"/>
							</g>
						</g>
					</g>
				</g>
			</g>
			<g>
				<g>
					<path class="st11" d="M501.42,170.97c-0.05,0-0.04-0.48-0.27-1.29c-0.22-0.79-0.77-1.95-1.97-2.84
						c-1.16-0.89-3.06-1.38-4.89-0.7c-1.82,0.63-3.39,2.57-3.37,4.83c-0.02,2.26,1.55,4.2,3.37,4.83c1.83,0.69,3.73,0.19,4.89-0.7
						c1.2-0.89,1.75-2.05,1.97-2.84C501.38,171.45,501.37,170.97,501.42,170.97c0.02,0,0.03,0.12,0.04,0.35
						c0.01,0.23-0.01,0.57-0.1,0.99c-0.17,0.84-0.69,2.09-1.94,3.08c-1.21,0.99-3.26,1.58-5.28,0.86c-0.99-0.35-1.94-1.02-2.62-1.95
						c-0.7-0.92-1.09-2.11-1.1-3.33c0.01-1.22,0.41-2.41,1.1-3.33c0.68-0.93,1.63-1.6,2.62-1.95c2.02-0.73,4.07-0.14,5.28,0.86
						c1.25,0.99,1.77,2.24,1.94,3.08c0.09,0.43,0.11,0.76,0.1,0.99C501.45,170.85,501.44,170.97,501.42,170.97z"/>
				</g>
				<g>
					<path class="st11" d="M514.33,173.3c-0.05,0-0.04-0.48-0.27-1.29c-0.22-0.79-0.77-1.95-1.97-2.84
						c-1.16-0.89-3.06-1.38-4.89-0.7c-1.82,0.63-3.39,2.57-3.37,4.83c-0.02,2.26,1.55,4.2,3.37,4.83c1.83,0.69,3.73,0.19,4.89-0.7
						c1.2-0.89,1.75-2.05,1.97-2.84C514.29,173.78,514.27,173.3,514.33,173.3c0.02,0,0.03,0.12,0.04,0.35
						c0.01,0.23-0.01,0.57-0.1,0.99c-0.17,0.84-0.69,2.09-1.94,3.08c-1.21,0.99-3.26,1.58-5.28,0.86c-0.99-0.35-1.95-1.02-2.62-1.95
						c-0.7-0.92-1.09-2.11-1.1-3.33c0.01-1.22,0.41-2.41,1.1-3.33c0.68-0.93,1.63-1.6,2.62-1.95c2.02-0.73,4.07-0.14,5.28,0.86
						c1.25,0.99,1.77,2.24,1.94,3.08c0.09,0.43,0.11,0.76,0.1,0.99C514.36,173.19,514.34,173.3,514.33,173.3z"/>
				</g>
				<g>
					<path class="st11" d="M491.28,167.99c0,0.14-1.45,0.27-3.24,0.27c-1.79,0.01-3.24-0.11-3.24-0.25c0-0.14,1.45-0.26,3.24-0.27
						C489.83,167.74,491.28,167.85,491.28,167.99z"/>
				</g>
			</g>
			<g>
				<path class="st11" d="M503.57,172.28c-0.13,0.06-0.45-0.43-1.04-0.6c-0.59-0.18-1.12,0.06-1.2-0.06
					c-0.04-0.06,0.05-0.21,0.29-0.34c0.24-0.13,0.64-0.22,1.06-0.1c0.42,0.12,0.71,0.41,0.84,0.65
					C503.64,172.07,503.63,172.25,503.57,172.28z"/>
			</g>
		</g>
		<polygon class="st1" points="491.68,280.01 491.68,276.67 539.18,277.64 566.53,233.94 569.04,235.75 541.02,280.43 		"/>
		<path class="st14" d="M524.54,265.44l2.39,3.55v7.3c0,0-1.24,0.29-1.73-0.7s-1.15-4.37-1.15-4.37l-1.16,2.99
			c-0.47,1.21-1.77,1.89-3.03,1.57l-8.81-2.21l3.6-10.29L524.54,265.44z"/>
		<g>
			<path class="st8" d="M475.9,194.95c0,0-13.15,3.29-17.09,9.2c-3.94,5.92-8.44,15.73-13.27,34.78
				c-4.22,16.62-7.48,43.16-2.91,49.38c3.15,4.29,5.16,5.38,5.16,5.38l10.15-3.63c9.77-3.5,18.75-8.9,26.42-15.9l15.57-14.2
				l-8.24-6.5c0,0,6.27-33.86,4.6-45.69C494.82,197.41,475.9,194.95,475.9,194.95z"/>
			<path class="st8" d="M479.3,205.15c-5.06,1.26-9.93,3.31-16.84,3.89c-1.62,0.14-3.28-0.16-4.67-1.02
				c-4.36-2.69-2.85-7.68-0.47-11.04c2.53-3.56,6.51-6.63,10.86-6.19c-0.83-2.16,0.45-4.74,2.48-5.85c2.03-1.11,4.56-0.97,6.73-0.15
				c2.17,0.81,4.05,2.23,5.89,3.62c2.48,1.87,4.96,3.74,7.43,5.61c1.67,1.26,3.39,2.58,4.35,4.43c0.96,1.85,4.52,9.13,2.94,10.49
				c0,0-2.02,0.59-3,0c-0.05-0.03-0.12-0.08-0.18-0.13C490.39,205.37,484.75,203.8,479.3,205.15z"/>
			<path class="st8" d="M471.83,211.32l-8.69,40.62c-1.52,7.1,2.43,14.23,9.25,16.71l37.77,7.24l4.71-14.08l0,0l-30.65-9.56
				l8.99-39.24L471.83,211.32z"/>
			<g>
				<path class="st7" d="M462.81,259.66c0.01,0,0.03,0.08,0.06,0.24c0.04,0.18,0.08,0.41,0.14,0.7c0.03,0.16,0.06,0.33,0.1,0.52
					c0.07,0.19,0.14,0.39,0.22,0.6c0.08,0.22,0.17,0.45,0.26,0.71c0.13,0.24,0.27,0.49,0.41,0.75c0.61,1.05,1.59,2.23,3.05,3.23
					c1.45,1,3.33,1.86,5.54,2.42c9.04,1.65,21.92,4.01,37.37,6.84l-0.25,0.15c1.56-4.46,3.2-9.18,4.91-14.08l0.16,0.31
					c-9.46-2.94-19.82-6.17-30.65-9.54l-0.24-0.07l0.06-0.24c0.53-2.09,1.11-4.33,1.68-6.59c1.78-7.11,3.45-14.08,4.9-20.83
					c0.71-3.38,1.39-6.71,1.85-9.99c0.14-0.82,0.13-1.63,0.21-2.44c-0.03-0.8-0.06-1.6-0.27-2.37c-0.36-1.54-1.09-2.98-2.09-4.16
					c-2-2.4-5.08-3.67-8.01-3.59c-2.97,0.08-5.62,1.68-7.44,3.76c-1.85,2.09-3.03,4.59-3.83,7.06c-0.8,2.48-1.27,4.96-1.74,7.31
					c-1.86,9.42-3.36,17.04-4.41,22.34c-0.53,2.62-0.94,4.66-1.22,6.07c-0.14,0.68-0.25,1.2-0.33,1.58
					c-0.08,0.35-0.13,0.53-0.13,0.53s0.02-0.19,0.08-0.54c0.07-0.38,0.16-0.9,0.28-1.59c0.26-1.41,0.64-3.46,1.13-6.09
					c1.01-5.3,2.45-12.94,4.24-22.37c0.45-2.36,0.91-4.85,1.72-7.37c0.8-2.51,1.99-5.06,3.89-7.22c1.85-2.15,4.63-3.84,7.74-3.93
					c3.07-0.09,6.29,1.23,8.39,3.73c1.05,1.24,1.83,2.74,2.2,4.36c0.22,0.81,0.25,1.65,0.28,2.49c-0.07,0.83-0.07,1.68-0.21,2.5
					c-0.46,3.31-1.14,6.64-1.84,10.03c-1.45,6.77-3.11,13.74-4.9,20.85c-0.58,2.26-1.15,4.5-1.68,6.59l-0.17-0.31
					c10.83,3.38,21.19,6.62,30.64,9.58l0.24,0.07l-0.08,0.24c-1.72,4.9-3.38,9.62-4.95,14.07l-0.06,0.18l-0.19-0.04
					c-15.46-2.89-28.33-5.25-37.35-7.02c-2.23-0.58-4.13-1.47-5.59-2.51c-1.47-1.03-2.46-2.25-3.06-3.33
					c-0.14-0.27-0.28-0.53-0.4-0.77c-0.09-0.26-0.17-0.5-0.25-0.72c-0.07-0.22-0.14-0.43-0.21-0.62c-0.03-0.19-0.06-0.37-0.09-0.53
					c-0.05-0.3-0.08-0.53-0.11-0.71C462.81,259.74,462.81,259.66,462.81,259.66z"/>
			</g>
			<g>
				<path class="st7" d="M478.94,257.57c-0.06,0-0.11-0.48,0.08-1.21c0.19-0.73,0.68-1.71,1.52-2.52c0.85-0.81,1.84-1.26,2.58-1.42
					c0.74-0.16,1.22-0.09,1.22-0.03c0.01,0.08-0.45,0.15-1.11,0.38c-0.67,0.23-1.54,0.7-2.32,1.44c-0.77,0.75-1.27,1.6-1.53,2.26
					C479.11,257.13,479.03,257.58,478.94,257.57z"/>
			</g>
			<g class="st16">
				<path d="M470.94,210.77c-4.54,14.08-7.29,28.7-9.1,43.39c-0.42,3.39-0.78,6.84-0.2,10.21c0.58,3.37,2.25,6.69,5.11,8.55
					c2.68,1.73,6.1,2,9.23,1.41c3.13-0.59,8.2-1.29,11.09-2.65l-16.9-3.48c0,0-10.9-0.68-6.22-21.54
					C468.63,225.78,470.94,210.77,470.94,210.77z"/>
			</g>
			<g class="st16">
				<path d="M456.53,207.31c-0.07,1.67,0.09,3.72,1.6,4.42c1.56,0.72,3.25-0.58,4.51-1.75c5.12-4.72,10.93-8.7,17.18-11.78
					c-8.49,0.55-16.78,3.9-23.26,9.4"/>
			</g>
			<g>
				<path class="st7" d="M489.63,202.21c-0.07,0.11-1.61-1.3-4.66-2.49c-1.52-0.58-3.4-1.1-5.55-1.26
					c-2.14-0.17-4.52,0.01-6.89,0.75c-2.38,0.71-4.51,1.79-6.42,2.81c-1.9,1.04-3.6,2.02-5.06,2.78c-1.46,0.77-2.67,1.33-3.53,1.67
					c-0.86,0.33-1.35,0.49-1.36,0.45c-0.01-0.04,0.45-0.25,1.28-0.64c0.83-0.4,2.01-1,3.43-1.81c1.45-0.84,3.14-1.81,5-2.88
					c1.91-1.05,4.06-2.16,6.5-2.89c2.43-0.75,4.89-0.93,7.08-0.73c2.2,0.19,4.11,0.76,5.64,1.4c1.53,0.64,2.68,1.36,3.42,1.91
					c0.38,0.26,0.65,0.5,0.84,0.66C489.55,202.11,489.64,202.2,489.63,202.21z"/>
			</g>
			<g>
				<path class="st7" d="M494.92,204.32c-0.07,0.07-1.26-1.13-3.37-2.83c-2.11-1.7-5.19-3.86-8.89-5.71
					c-3.71-1.84-7.28-3.01-9.91-3.66c-2.63-0.66-4.3-0.9-4.29-0.99c0-0.04,0.43,0,1.18,0.08c0.76,0.08,1.85,0.26,3.19,0.55
					c2.67,0.57,6.31,1.69,10.06,3.56c3.74,1.87,6.83,4.1,8.89,5.89c1.03,0.89,1.84,1.66,2.36,2.22
					C494.67,203.98,494.94,204.29,494.92,204.32z"/>
			</g>
			<g>
				<path class="st1" d="M497.44,237.2c-0.03,0-0.1-0.29-0.2-0.84c-0.1-0.55-0.24-1.36-0.33-2.4c-0.07-1.04-0.16-2.29,0.17-3.73
					c0.17-0.7,0.71-1.53,1.64-1.68c0.44-0.09,1.01,0.09,1.28,0.52c0.27,0.39,0.37,1.03-0.07,1.46l-0.05,0.05l-0.08,0.01
					c-0.55,0.1-1.09-0.18-1.43-0.56c-0.37-0.39-0.54-0.92-0.61-1.41c-0.12-1-0.13-1.96-0.19-2.98c-0.25-4.79-0.44-9.13-0.56-12.28
					c-0.04-1.49-0.08-2.74-0.11-3.72c-0.01-0.88-0.01-1.37,0.03-1.37c0.04,0,0.1,0.48,0.17,1.36c0.07,0.98,0.17,2.22,0.28,3.72
					c0.21,3.14,0.46,7.48,0.71,12.27c0.07,1,0.07,2.02,0.18,2.92c0.07,0.45,0.21,0.86,0.48,1.15c0.27,0.3,0.64,0.48,0.98,0.42
					l-0.13,0.06c0.21-0.18,0.19-0.57,0.01-0.84c-0.17-0.27-0.49-0.38-0.82-0.33c-0.68,0.1-1.14,0.71-1.31,1.34
					c-0.33,1.31-0.3,2.58-0.27,3.6C497.33,235.98,497.52,237.19,497.44,237.2z"/>
			</g>
			<g>
				<path class="st7" d="M481.02,270.26c0.02,0.03-0.41,0.44-1.22,1.15c-0.8,0.72-2,1.72-3.52,2.92c-3.03,2.4-7.36,5.53-12.45,8.51
					c-5.09,2.99-9.94,5.25-13.52,6.69c-1.79,0.73-3.25,1.27-4.28,1.62c-1.02,0.35-1.59,0.52-1.6,0.49
					c-0.01-0.03,0.53-0.27,1.53-0.68c1-0.4,2.44-1,4.2-1.77c3.53-1.53,8.33-3.83,13.4-6.8c5.06-2.97,9.41-6.04,12.49-8.35
					c1.54-1.16,2.77-2.11,3.61-2.79C480.52,270.59,481,270.24,481.02,270.26z"/>
			</g>
			<g>
				<path class="st7" d="M450.57,293c-0.11,0.09-0.71-0.51-1.33-1.34c-0.62-0.83-1.03-1.57-0.92-1.65c0.11-0.09,0.71,0.51,1.33,1.34
					C450.27,292.17,450.68,292.91,450.57,293z"/>
			</g>
			<g>
				<path class="st7" d="M456.6,290.44c-0.08,0.11-0.91-0.35-1.68-1.21c-0.78-0.85-1.16-1.72-1.04-1.79
					c0.13-0.08,0.69,0.63,1.43,1.44C456.04,289.7,456.69,290.33,456.6,290.44z"/>
			</g>
			<g>
				<path class="st7" d="M464.18,287.94c-0.11,0.1-0.95-0.68-1.87-1.73c-0.93-1.05-1.59-1.98-1.48-2.07
					c0.11-0.1,0.95,0.68,1.87,1.73C463.63,286.92,464.29,287.85,464.18,287.94z"/>
			</g>
			<g>
				<path class="st7" d="M472.32,283.62c-0.11,0.09-1-0.81-2-2c-0.99-1.2-1.7-2.24-1.59-2.34c0.11-0.09,1,0.8,2,2
					C471.72,282.48,472.43,283.53,472.32,283.62z"/>
			</g>
			<g>
				<path class="st7" d="M479.88,277.97c-0.1,0.11-1.05-0.6-2.14-1.58c-1.08-0.98-1.88-1.86-1.79-1.97c0.1-0.11,1.05,0.6,2.14,1.58
					C479.18,276.98,479.98,277.86,479.88,277.97z"/>
			</g>
		</g>
	</g>
</g>
<g id="Wifi">
	<g>
		<g>
			<g>
				
					<ellipse transform="matrix(0.2301 -0.9732 0.9732 0.2301 232.0128 686.8842)" class="st11" cx="550.1" cy="196.81" rx="2.32" ry="2.32"/>
				<g>
					<path class="st11" d="M545.46,193.84c2.55-2.68,6.69-2.76,9.31-0.12c1.18,1.19,3.04-0.64,1.85-1.84
						c-3.59-3.62-9.48-3.59-13,0.11C542.47,193.2,544.3,195.06,545.46,193.84L545.46,193.84z"/>
				</g>
				<g>
					<path class="st11" d="M537.58,183.04c3.53-3.05,7.74-4.97,12.46-4.98c4.68-0.01,9.29,1.65,12.71,4.87
						c1.22,1.15,3.08-0.68,1.85-1.84c-3.92-3.68-9.19-5.65-14.56-5.64c-5.43,0.01-10.26,2.23-14.31,5.74
						C534.47,182.28,536.31,184.13,537.58,183.04L537.58,183.04z"/>
				</g>
				<g>
					<path class="st11" d="M540.69,189.02c2.37-2.56,5.68-4.16,9.19-4.24c3.6-0.08,7.08,1.4,9.58,3.97
						c1.17,1.21,3.03-0.63,1.85-1.84c-2.96-3.04-7.16-4.84-11.42-4.75c-4.17,0.1-8.21,1.94-11.04,5
						C537.71,188.4,539.55,190.26,540.69,189.02L540.69,189.02z"/>
				</g>
			</g>
		</g>
	</g>
</g>
</svg>
