<?xml version="1.0" encoding="utf-8"?>
<!-- Generator: Adobe Illustrator 25.0.1, SVG Export Plug-In . SVG Version: 6.00 Build 0)  -->
<svg version="1.1" id="Capa_1" xmlns="http://www.w3.org/2000/svg" xmlns:xlink="http://www.w3.org/1999/xlink" x="0px" y="0px"
	 viewBox="0 0 574 236" style="enable-background:new 0 0 574 236;" xml:space="preserve">
<style type="text/css">
	.st0{fill:#A4161A;}
	.st1{fill:#666666;}
</style>
<g>
	<g>
		<g>
			<path class="st0" d="M48.97,55.81h30.36c41.76,0,43.79,25.02,43.79,48.45v67.28c0,25.71-4.19,51.27-45.91,51.27H48.97V55.81z
				 M62.99,211.87h12.95c25.75,0,32.84-11.8,32.84-36.83v-72.99c0-22.02-4.54-35.25-32.4-35.25H62.99V211.87z"/>
			<path class="st0" d="M163.48,67.12H132.4V55.81h75.75v11.31H177.5v155.69h-14.02V67.12z"/>
			<path class="st0" d="M279.11,138.78h-43.43v72.76h48.81l-2.08,11.27h-60.75v-167h59.98v11.31h-45.96v60.4h43.43V138.78z"/>
			<path class="st0" d="M369.13,176.3v5.07c0,22.7-4.87,43.52-35.39,43.52c-31.47,0-35.88-21.31-35.88-45.17V94.25
				c0-27.39,12.96-40.52,35.97-40.52c29.45,0,34.44,19.32,34.44,40.3v5.86h-14.5v-6c0-14.7-1.95-28.93-20.42-28.93
				c-17.27,0-21.14,12.56-21.14,29.56v85.6c0,20.79,5.36,33.58,21.9,33.58c17.84,0,20.46-14.02,20.46-32.02v-5.38H369.13z"/>
			<path class="st0" d="M390.43,55.81h14.02v71.51h45.3V55.81h14.02v167h-14.02v-84.23h-45.3v84.23h-14.02V55.81z"/>
			<path class="st1" d="M488.34,222.81V186.1h15.74v36.71H488.34z"/>
		</g>
	</g>
</g>
</svg>
