<?xml version="1.0" encoding="utf-8"?>
<!-- Generator: Adobe Illustrator 25.0.1, SVG Export Plug-In . SVG Version: 6.00 Build 0)  -->
<svg version="1.1" id="Capa_1" xmlns="http://www.w3.org/2000/svg" xmlns:xlink="http://www.w3.org/1999/xlink" x="0px" y="0px"
	 viewBox="0 0 574 236" style="enable-background:new 0 0 574 236;" xml:space="preserve">
<style type="text/css">
	.st0{fill:#EA1D6F;}
	.st1{fill:#666666;}
</style>
<g>
	<g>
		<g>
			<path class="st0" d="M49,55.8h30.4c41.8,0,43.8,25,43.8,48.5v67.3c0,25.7-4.2,51.3-45.9,51.3H49V55.8z M63,211.9h13
				c25.8,0,32.8-11.8,32.8-36.8v-73c0-22-4.5-35.2-32.4-35.2H63V211.9z"/>
			<path class="st0" d="M163.5,67.1h-31.1V55.8h75.8v11.3h-30.6v155.7h-14V67.1z"/>
			<path class="st0" d="M279.1,138.8h-43.4v72.8h48.8l-2.1,11.3h-60.8v-167h60v11.3h-46v60.4h43.4L279.1,138.8L279.1,138.8z"/>
			<path class="st0" d="M369.1,176.3v5.1c0,22.7-4.9,43.5-35.4,43.5c-31.5,0-35.9-21.3-35.9-45.2V94.2c0-27.4,13-40.5,36-40.5
				c29.5,0,34.4,19.3,34.4,40.3v5.9h-14.5v-6c0-14.7-2-28.9-20.4-28.9c-17.3,0-21.1,12.6-21.1,29.6v85.6c0,20.8,5.4,33.6,21.9,33.6
				c17.8,0,20.5-14,20.5-32v-5.4L369.1,176.3L369.1,176.3z"/>
			<path class="st0" d="M390.4,55.8h14v71.5h45.3V55.8h14v167h-14v-84.2h-45.3v84.2h-14V55.8z"/>
			<path class="st1" d="M488.3,222.8v-36.7h15.7v36.7H488.3z"/>
		</g>
	</g>
</g>
</svg>
