<?xml version="1.0" encoding="utf-8"?>
<!-- Generator: Adobe Illustrator 25.0.1, SVG Export Plug-In . SVG Version: 6.00 Build 0)  -->
<svg version="1.1" id="Capa_1" xmlns="http://www.w3.org/2000/svg" xmlns:xlink="http://www.w3.org/1999/xlink" x="0px" y="0px"
	 viewBox="0 0 500 500" style="enable-background:new 0 0 500 500;" xml:space="preserve">
<style type="text/css">
	.st0{fill:#E0E0E0;}
	.st1{fill:#F5F5F5;}
	.st2{opacity:0.8;}
	.st3{fill-rule:evenodd;clip-rule:evenodd;fill:#EBEBEB;}
	.st4{display:none;}
	.st5{display:inline;fill:#F5F5F5;}
	.st6{fill:#FFFFFF;}
	.st7{fill:#E8505B;}
	.st8{opacity:0.3;}
	.st9{fill:#263238;}
	.st10{fill:#FAFAFA;}
	.st11{fill-rule:evenodd;clip-rule:evenodd;fill:#E8505B;}
	.st12{fill-rule:evenodd;clip-rule:evenodd;fill:#FFFFFF;}
	.st13{opacity:0.4;}
	.st14{fill:#FFBE9D;}
	.st15{fill:#EB996E;}
	.st16{fill:#455A64;}
	.st17{opacity:0.3;enable-background:new    ;}
	.st18{opacity:0.2;}
	.st19{opacity:0.4;enable-background:new    ;}
</style>
<g id="Background_Complete">
	<g>
		<g>
			<g>
				<g>
					<g>
						<path class="st0" d="M424.44,132.17c0,0,0.57,0.04,1.5,0.47c0.91,0.42,2.19,1.34,2.99,3.02c0.39,0.83,0.65,1.83,0.61,2.92
							c-0.05,1.08-0.33,2.24-1,3.27c-0.32,0.52-0.73,1-1.22,1.42c-0.48,0.42-1.04,0.78-1.65,1.05c-1.21,0.55-2.65,0.7-4.03,0.4
							c-1.38-0.32-2.62-1.07-3.48-2.08c-0.44-0.5-0.79-1.06-1.04-1.65c-0.26-0.58-0.43-1.2-0.5-1.8c-0.17-1.22,0.07-2.39,0.49-3.39
							c0.43-1,1.1-1.79,1.8-2.38c1.43-1.18,2.99-1.46,3.99-1.46C423.9,131.96,424.44,132.17,424.44,132.17
							c-0.01,0.04-0.55-0.11-1.55-0.07c-0.98,0.04-2.47,0.36-3.83,1.51c-0.66,0.57-1.29,1.34-1.69,2.3
							c-0.39,0.95-0.6,2.08-0.43,3.23c0.07,0.58,0.23,1.15,0.48,1.7c0.24,0.56,0.57,1.09,0.99,1.56c0.82,0.96,1.99,1.66,3.29,1.96
							c1.31,0.28,2.66,0.15,3.81-0.37c0.58-0.25,1.11-0.58,1.56-0.98c0.46-0.39,0.86-0.84,1.16-1.34c0.64-0.97,0.93-2.08,0.99-3.1
							c0.05-1.03-0.19-2-0.54-2.8c-0.73-1.62-1.95-2.55-2.82-3C424.99,132.31,424.43,132.22,424.44,132.17z"/>
					</g>
				</g>
			</g>
		</g>
		<g>
			<g>
				<g>
					<g>
						<path class="st0" d="M429.52,125.39c0,0-0.01-0.07-0.01-0.22c0-0.17-0.01-0.39-0.02-0.68c-0.01-0.62-0.02-1.51-0.04-2.67
							l0.05,0.06c-1.48-0.32-3.42-0.75-5.77-1.26l0.1-0.05c-0.46,0.98-0.97,2.07-1.52,3.23l-0.03,0.06h-0.07
							c-1.2,0.05-2.47,0.26-3.76,0.67l-0.07,0.02l-0.05-0.05c-0.79-0.78-1.65-1.63-2.54-2.51l0.16,0.02c-1.57,1-3.23,2.06-4.98,3.17
							l0.06-0.17c0.37,1.04,0.78,2.19,1.2,3.36l0.03,0.09l-0.06,0.07c-0.8,0.87-1.58,1.93-2.19,3.12l-0.04,0.08h-0.1
							c-1.11,0-2.33,0.01-3.57,0.01l0.16-0.13c-0.4,1.81-0.84,3.76-1.29,5.76l-0.09-0.19c1,0.48,2.11,1,3.22,1.53l0.09,0.04v0.1
							c0.05,1.19,0.26,2.49,0.66,3.75l0.03,0.1l-0.08,0.08c-0.79,0.79-1.65,1.66-2.52,2.53l0.02-0.22c1,1.58,2.08,3.27,3.16,4.99
							l-0.21-0.07c1.06-0.38,2.21-0.79,3.36-1.2l0.1-0.04l0.08,0.07c0.89,0.82,1.95,1.59,3.11,2.19l0,0l0,0
							c0.04,0.07-0.1-0.16,0.1,0.16l0,0v0.01v0.01v0.03v0.06v0.11v0.22v0.45v0.9c0,0.6,0,1.19,0,1.78l-0.14-0.18
							c1.95,0.44,3.87,0.87,5.76,1.29l-0.2,0.1c0.52-1.08,1.03-2.16,1.53-3.22l0.05-0.1h0.11c1.29-0.05,2.55-0.27,3.75-0.65
							l0.1-0.03l0.08,0.08c0.86,0.85,1.7,1.69,2.53,2.52l-0.21-0.02c1.7-1.08,3.37-2.13,4.99-3.16l-0.07,0.2
							c-0.4-1.14-0.8-2.26-1.19-3.36l-0.03-0.09l0.07-0.07c0.89-0.95,1.62-2.01,2.2-3.11l0.04-0.08h0.1c1.22,0,2.41,0,3.57,0
							l-0.15,0.12c0.46-2.03,0.89-3.94,1.31-5.76l0.08,0.16c-1.13-0.54-2.2-1.05-3.22-1.54l-0.07-0.03v-0.08
							c-0.05-1.36-0.29-2.61-0.64-3.76l-0.02-0.07l0.05-0.05c0.92-0.92,1.75-1.74,2.53-2.52l-0.01,0.13c-1.22-1.94-2.25-3.59-3.14-5
							l0.1,0.03c-1.35,0.47-2.45,0.85-3.37,1.18l-0.03,0.01l-0.03-0.02c-0.95-0.89-1.75-1.42-2.29-1.77
							c-0.26-0.16-0.47-0.28-0.61-0.37C429.58,125.43,429.52,125.39,429.52,125.39s0.08,0.03,0.22,0.1s0.35,0.18,0.63,0.35
							c0.55,0.33,1.37,0.85,2.34,1.73l-0.06-0.01c0.92-0.33,2.02-0.73,3.36-1.22l0.06-0.02l0.04,0.06c0.9,1.41,1.95,3.05,3.18,4.98
							l0.05,0.07l-0.06,0.06c-0.78,0.79-1.6,1.62-2.51,2.54l0.03-0.12c0.37,1.17,0.62,2.44,0.68,3.82l-0.07-0.11
							c1.03,0.48,2.09,0.99,3.23,1.52l0.1,0.05l-0.02,0.11c-0.41,1.82-0.83,3.74-1.28,5.77l-0.03,0.12h-0.12
							c-1.16,0-2.34,0.01-3.57,0.01l0.14-0.08c-0.59,1.13-1.34,2.21-2.24,3.19l0.03-0.17c0.39,1.1,0.79,2.22,1.2,3.36l0.04,0.13
							l-0.11,0.07c-1.62,1.03-3.28,2.09-4.99,3.17l-0.12,0.07l-0.1-0.1c-0.83-0.83-1.68-1.67-2.53-2.52l0.18,0.04
							c-1.23,0.39-2.52,0.62-3.84,0.67l0.15-0.1c-0.5,1.06-1.01,2.14-1.53,3.22l-0.06,0.13l-0.14-0.03
							c-1.89-0.42-3.82-0.85-5.76-1.29l-0.14-0.03v-0.15c0-0.59,0-1.18,0-1.78v-0.89v-0.45v-0.22v-0.11v-0.06v-0.03v-0.01v-0.01l0,0
							c0.2,0.32,0.05,0.09,0.1,0.16l0,0l0,0c-1.19-0.62-2.28-1.4-3.18-2.24l0.18,0.04c-1.15,0.41-2.3,0.82-3.36,1.2l-0.14,0.05
							l-0.08-0.12c-1.09-1.72-2.16-3.41-3.16-4.99l-0.08-0.12l0.1-0.1c0.87-0.87,1.73-1.74,2.52-2.53l-0.04,0.18
							c-0.41-1.29-0.62-2.62-0.67-3.84l0.1,0.15c-1.12-0.53-2.22-1.06-3.22-1.53l-0.12-0.06l0.03-0.13c0.45-2,0.89-3.95,1.3-5.76
							l0.03-0.13h0.13c1.24,0,2.46,0,3.57,0l-0.14,0.08c0.63-1.21,1.42-2.29,2.25-3.18l-0.03,0.15c-0.42-1.18-0.82-2.32-1.19-3.37
							l-0.04-0.11l0.1-0.06c1.75-1.11,3.42-2.16,5-3.15l0.09-0.06l0.07,0.07c0.89,0.89,1.74,1.74,2.52,2.53l-0.12-0.03
							c1.31-0.41,2.61-0.61,3.83-0.65l-0.09,0.06c0.56-1.16,1.08-2.24,1.54-3.22l0.03-0.07l0.07,0.02c2.34,0.54,4.28,0.99,5.76,1.33
							l0.05,0.01v0.05c-0.01,1.15-0.02,2.03-0.02,2.65c-0.01,0.29-0.01,0.52-0.01,0.68C429.53,125.31,429.52,125.39,429.52,125.39z"
							/>
					</g>
				</g>
			</g>
		</g>
	</g>
	<g>
		<g>
			<g>
				<path class="st0" d="M464.46,413.45c0,0-0.01-0.38-0.02-1.09c0-0.72-0.01-1.78-0.02-3.16c-0.01-2.77-0.02-6.84-0.04-12.06
					c-0.02-10.44-0.05-25.48-0.09-43.94l0.16,0.16c-27.94,0.01-64.39,0.03-104.13,0.05h-0.01l0.21-0.21
					c-0.01,21.32-0.01,41.7-0.01,60.25l-0.2-0.2c30.5,0.04,56.5,0.07,74.9,0.1c9.2,0.02,16.5,0.04,21.51,0.05
					c2.5,0.01,4.42,0.02,5.74,0.02c0.65,0.01,1.14,0.01,1.48,0.01C464.28,413.44,464.46,413.45,464.46,413.45s-0.16,0.01-0.49,0.01
					c-0.34,0-0.82,0.01-1.46,0.01c-1.3,0.01-3.21,0.01-5.7,0.02c-5,0.01-12.28,0.03-21.46,0.05c-18.43,0.02-44.48,0.06-75.03,0.1
					h-0.2v-0.2c0-18.55-0.01-38.93-0.01-60.25v-0.21h0.21h0.01c39.74,0.02,76.19,0.04,104.13,0.05h0.16v0.16
					c-0.04,18.51-0.07,33.59-0.09,44.05c-0.02,5.2-0.03,9.26-0.04,12.02c-0.01,1.37-0.01,2.41-0.02,3.13
					C464.47,413.09,464.46,413.45,464.46,413.45z"/>
			</g>
		</g>
		<g>
			<g>
				<path class="st0" d="M464.5,360.49c0,0.12-23.29,0.21-52.02,0.21c-28.74,0-52.02-0.1-52.02-0.21c0-0.12,23.29-0.21,52.02-0.21
					S464.5,360.37,464.5,360.49z"/>
			</g>
		</g>
		<g>
			<rect x="369.34" y="370.43" class="st1" width="32.17" height="32.17"/>
		</g>
		<g>
			<g>
				<g>
					<path class="st0" d="M456.91,375.73c0,0.01-0.16,0.03-0.47,0.04c-0.36,0.01-0.81,0.02-1.36,0.04
						c-1.24,0.02-2.93,0.04-4.99,0.07c-4.27,0.02-10.06,0.04-16.46,0.06c-6.4-0.02-12.2-0.05-16.46-0.06
						c-2.06-0.03-3.75-0.05-4.99-0.07c-0.55-0.02-1-0.03-1.36-0.04c-0.31-0.01-0.47-0.03-0.47-0.04s0.16-0.03,0.47-0.04
						c0.36-0.01,0.81-0.02,1.36-0.04c1.24-0.02,2.93-0.04,4.99-0.07c4.27-0.02,10.06-0.04,16.46-0.06c6.4,0.02,12.2,0.05,16.46,0.06
						c2.06,0.03,3.75,0.05,4.99,0.07c0.55,0.02,1,0.03,1.36,0.04C456.75,375.7,456.91,375.72,456.91,375.73z"/>
				</g>
			</g>
			<g>
				<g>
					<path class="st0" d="M457.94,382.92c0,0.01-0.17,0.03-0.48,0.04c-0.36,0.01-0.82,0.02-1.39,0.04c-1.26,0.02-2.99,0.04-5.1,0.07
						c-4.36,0.02-10.28,0.04-16.83,0.06c-6.55-0.02-12.47-0.05-16.83-0.06c-2.11-0.03-3.84-0.05-5.1-0.07
						c-0.56-0.02-1.02-0.03-1.39-0.04c-0.32-0.01-0.48-0.03-0.48-0.04s0.17-0.03,0.48-0.04c0.36-0.01,0.82-0.02,1.39-0.04
						c1.26-0.02,2.99-0.04,5.1-0.07c4.36-0.02,10.28-0.04,16.83-0.06c6.55,0.02,12.47,0.05,16.83,0.06c2.11,0.03,3.84,0.05,5.1,0.07
						c0.56,0.02,1.02,0.03,1.39,0.04C457.78,382.89,457.94,382.9,457.94,382.92z"/>
				</g>
			</g>
			<g>
				<g>
					<path class="st0" d="M457.94,390.1c0,0.01-0.17,0.03-0.48,0.04c-0.36,0.01-0.82,0.02-1.39,0.04c-1.26,0.02-2.99,0.04-5.1,0.07
						c-4.36,0.02-10.28,0.04-16.83,0.06c-6.55-0.02-12.47-0.05-16.83-0.06c-2.11-0.03-3.84-0.05-5.1-0.07
						c-0.56-0.02-1.02-0.03-1.39-0.04c-0.32-0.01-0.48-0.03-0.48-0.04s0.17-0.03,0.48-0.04c0.36-0.01,0.82-0.02,1.39-0.04
						c1.26-0.02,2.99-0.04,5.1-0.07c4.36-0.02,10.28-0.04,16.83-0.06c6.55,0.02,12.47,0.05,16.83,0.06c2.11,0.03,3.84,0.05,5.1,0.07
						c0.56,0.02,1.02,0.03,1.39,0.04C457.78,390.07,457.94,390.09,457.94,390.1z"/>
				</g>
			</g>
			<g>
				<g>
					<path class="st0" d="M457.94,397.29c0,0.01-0.17,0.03-0.48,0.04c-0.36,0.01-0.82,0.02-1.39,0.04c-1.26,0.02-2.99,0.04-5.1,0.07
						c-4.36,0.02-10.28,0.04-16.83,0.06c-6.55-0.02-12.47-0.05-16.83-0.06c-2.11-0.03-3.84-0.05-5.1-0.07
						c-0.56-0.02-1.02-0.03-1.39-0.04c-0.32-0.01-0.48-0.03-0.48-0.04s0.17-0.03,0.48-0.04c0.36-0.01,0.82-0.02,1.39-0.04
						c1.26-0.02,2.99-0.04,5.1-0.07c4.36-0.02,10.28-0.04,16.83-0.06c6.55,0.02,12.47,0.05,16.83,0.06c2.11,0.03,3.84,0.05,5.1,0.07
						c0.56,0.02,1.02,0.03,1.39,0.04C457.78,397.26,457.94,397.27,457.94,397.29z"/>
				</g>
			</g>
		</g>
	</g>
	<g>
		<g>
			<ellipse class="st1" cx="163.34" cy="84.47" rx="43.28" ry="43.28"/>
		</g>
		<g>
			<g>
				<path class="st0" d="M182.99,85.8c0,0.04-0.54,0.07-1.53,0.1c-1.08,0.02-2.49,0.05-4.21,0.08c-3.57,0.05-8.54,0.08-14.16,0.09
					h-0.28v-0.28c0-0.9,0-1.85,0-2.81c0-6.27,0.03-11.94,0.08-16.05c0.04-1.98,0.07-3.62,0.09-4.86c0.03-1.15,0.07-1.78,0.11-1.78
					s0.08,0.63,0.11,1.78c0.02,1.24,0.05,2.88,0.09,4.86c0.05,4.11,0.08,9.78,0.08,16.05c0,0.96,0,1.91,0,2.81l-0.28-0.28
					c5.61,0.01,10.59,0.04,14.16,0.09c1.71,0.03,3.12,0.06,4.21,0.08C182.45,85.73,182.99,85.76,182.99,85.8z"/>
			</g>
		</g>
		<g>
			<g>
				<path class="st0" d="M163.23,48.3c0.15,0,0.28,1.63,0.28,3.64s-0.13,3.64-0.28,3.64s-0.28-1.63-0.28-3.64
					C162.95,49.92,163.08,48.3,163.23,48.3z"/>
			</g>
		</g>
		<g>
			<g>
				<path class="st0" d="M182.95,54.13c0.11,0.11-0.94,1.33-2.34,2.73c-1.4,1.4-2.62,2.45-2.73,2.34s0.94-1.33,2.34-2.73
					C181.62,55.07,182.84,54.03,182.95,54.13z"/>
			</g>
		</g>
		<g>
			<g>
				<path class="st0" d="M194.48,66.73c0.07,0.14-1.3,0.97-2.98,1.99s-3.05,1.86-3.14,1.73c-0.09-0.12,1.14-1.18,2.85-2.21
					C192.91,67.2,194.41,66.59,194.48,66.73z"/>
			</g>
		</g>
		<g>
			<g>
				<path class="st0" d="M201.24,85.42c0,0.15-2.22,0.28-4.96,0.28s-4.96-0.13-4.96-0.28s2.22-0.28,4.96-0.28
					S201.24,85.27,201.24,85.42z"/>
			</g>
		</g>
		<g>
			<g>
				<path class="st0" d="M132.49,84.76c0,0.15-2.1,0.28-4.68,0.28c-2.59,0-4.68-0.13-4.68-0.28s2.1-0.28,4.68-0.28
					C130.4,84.48,132.49,84.61,132.49,84.76z"/>
			</g>
		</g>
		<g>
			<g>
				<path class="st0" d="M137.36,98.68c0.1,0.12-1.48,1.55-3.54,3.21c-2.06,1.66-3.8,2.9-3.89,2.77c-0.09-0.12,1.49-1.56,3.54-3.21
					C135.51,99.8,137.25,98.56,137.36,98.68z"/>
			</g>
		</g>
		<g>
			<g>
				<path class="st0" d="M149.35,109.44c0.13,0.09-1.05,1.9-2.41,4.17c-1.37,2.27-2.41,4.16-2.56,4.09
					c-0.14-0.06,0.69-2.08,2.08-4.37C147.84,111.02,149.23,109.35,149.35,109.44z"/>
			</g>
		</g>
		<g>
			<g>
				<path class="st0" d="M163.23,123.32c-0.15,0-0.28-2.22-0.28-4.96s0.13-4.96,0.28-4.96s0.28,2.22,0.28,4.96
					S163.38,123.32,163.23,123.32z"/>
			</g>
		</g>
		<g>
			<g>
				<path class="st0" d="M184.6,116.71c-0.08,0.12-2.02-0.99-4.09-2.8c-2.08-1.8-3.44-3.57-3.33-3.67c0.12-0.11,1.66,1.47,3.7,3.24
					C182.92,115.27,184.69,116.58,184.6,116.71z"/>
			</g>
		</g>
		<g>
			<g>
				<path class="st0" d="M194.63,105.91c-0.11,0.11-1.58-1.18-3.28-2.89c-1.7-1.7-3-3.17-2.89-3.28s1.58,1.18,3.28,2.89
					C193.44,104.33,194.74,105.8,194.63,105.91z"/>
			</g>
		</g>
		<g>
			<g>
				<path class="st0" d="M136.9,71.43c-0.11,0.11-1.41-1.01-2.9-2.5c-1.49-1.49-2.61-2.79-2.5-2.9s1.41,1.01,2.9,2.5
					C135.89,70.02,137.01,71.32,136.9,71.43z"/>
			</g>
		</g>
		<g>
			<g>
				<path class="st0" d="M149.28,58.39c-0.11,0.11-1.38-0.98-2.85-2.44c-1.46-1.46-2.56-2.73-2.45-2.84s1.38,0.98,2.85,2.44
					C148.29,57.01,149.39,58.28,149.28,58.39z"/>
			</g>
		</g>
	</g>
	<g class="st2">
		<g>
			<g>
				<path class="st3" d="M398.74,62.29c2.29,1.19,4.38,2.67,6.23,4.39l6.65-2.37l6.25,9.87l-4.98,5c0.76,2.4,1.21,4.92,1.31,7.5
					l6.38,3.03l-2.56,11.4l-7.06,0.02c-1.19,2.29-2.67,4.38-4.39,6.23l2.37,6.65l-9.87,6.25l-5-4.98c-2.4,0.76-4.92,1.21-7.5,1.31
					l-3.03,6.38l-11.4-2.56l-0.01-7.06c-2.29-1.19-4.38-2.67-6.23-4.39l-6.65,2.37l-6.25-9.87l4.98-5c-0.76-2.4-1.21-4.92-1.31-7.5
					l-6.38-3.03l2.56-11.4l7.06-0.01c1.19-2.29,2.67-4.38,4.39-6.23l-2.37-6.65l9.87-6.25l5,4.98c2.4-0.76,4.92-1.21,7.5-1.31
					l3.03-6.38l11.4,2.56L398.74,62.29L398.74,62.29z M388.69,75.71c-6.75-1.51-13.46,2.73-14.97,9.49
					c-1.52,6.75,2.73,13.46,9.49,14.97c6.75,1.51,13.46-2.73,14.97-9.49C399.69,83.93,395.44,77.22,388.69,75.71z"/>
			</g>
		</g>
	</g>
	<g>
		<path class="st1" d="M63.7,162.58h73.97c0,0-6.54-11.9-25.58-10.17c-18.18,1.65-19.11-5.86-28.36-6.78
			C74.49,144.71,66.78,151.8,63.7,162.58z"/>
	</g>
	<g>
		<path class="st1" d="M223.8,297.07h59.88c0,0-5.29-9.64-20.71-8.23c-14.72,1.34-15.47-4.74-22.95-5.49
			C232.53,282.6,226.29,288.34,223.8,297.07z"/>
	</g>
</g>
<g id="Background_Simple" class="st4">
	<path class="st5" d="M409.01,77.96l-2.12-3.45c-17.86-29.06-50.15-46.58-84.19-44.45c-4.38,0.27-8.73,0.86-13.03,1.77
		c-30.95,6.54-57.89,29.66-69.05,59.26c-6.57,17.41-8.4,37.45-20.86,51.27c-16.22,17.98-43.74,18.55-67.95,17.8
		c-24.2-0.75-51.75-0.11-67.89,17.95c-10.11,11.31-13.32,27.39-12.5,42.53c2.16,40.09,30.45,75.94,66.43,93.76
		c35.98,17.82,78.34,19.41,117.72,11.58c55.16-10.98,107.62-41.14,139.16-87.71S434.24,128.23,409.01,77.96z"/>
	<path class="st5" d="M188.07,88.8c-5.99-6.81-18.53-10.56-27.63-9.53l0,0c-8.28-0.21-16.56,3.69-21.66,10.22
		c-5.1,6.52-6.89,15.5-4.69,23.48c3.39,12.26,15.42,20.67,27.91,23.06c7.98,1.52,16.8,0.82,23.36-3.97
		c6.43-4.7,9.78-12.7,10.65-20.62C197,102.42,194.06,95.61,188.07,88.8z"/>
</g>
<g id="Screens">
	<g>
		<g>
			<g>
				<rect x="309.91" y="145.13" class="st6" width="145.28" height="97.28"/>
			</g>
			<g>
				<g>
					<path class="st7" d="M455.19,242.4c0,0-0.01-0.61-0.02-1.77c-0.01-1.17-0.01-2.89-0.02-5.13c-0.01-4.5-0.03-11.11-0.05-19.56
						c-0.03-16.9-0.06-41.19-0.11-70.81l0.21,0.21c-40.03,0.01-90.54,0.03-145.27,0.05h-0.01l0.26-0.26
						c-0.01,34.65-0.02,67.61-0.02,97.28l-0.24-0.24c42.77,0.05,79.06,0.09,104.67,0.12c12.81,0.03,22.96,0.05,29.9,0.06
						c3.47,0.01,6.14,0.02,7.95,0.03c0.9,0.01,1.58,0.01,2.05,0.01C454.95,242.39,455.19,242.4,455.19,242.4s-0.22,0.01-0.68,0.01
						s-1.14,0.01-2.03,0.01c-1.8,0.01-4.46,0.02-7.91,0.03c-6.94,0.01-17.06,0.04-29.85,0.06c-25.65,0.03-61.99,0.07-104.82,0.12
						h-0.24v-0.24c-0.01-29.67-0.01-62.62-0.02-97.28v-0.26h0.26h0.01c54.74,0.02,105.24,0.04,145.27,0.05h0.21v0.21
						c-0.05,29.67-0.08,54.01-0.11,70.94c-0.02,8.44-0.04,15.03-0.05,19.52c-0.01,2.23-0.02,3.93-0.02,5.09
						C455.21,241.82,455.19,242.4,455.19,242.4z"/>
				</g>
			</g>
		</g>
		<g>
			<g>
				<path class="st7" d="M309.91,153.81c0-0.14,32.5-0.26,72.58-0.26c40.09,0,72.58,0.12,72.58,0.26s-32.49,0.26-72.58,0.26
					C342.41,154.07,309.91,153.95,309.91,153.81z"/>
			</g>
		</g>
		<g>
			<g class="st8">
				<path class="st7" d="M315.64,149.43c0,0.64-0.52,1.16-1.16,1.16s-1.16-0.52-1.16-1.16s0.52-1.16,1.16-1.16
					S315.64,148.78,315.64,149.43z"/>
			</g>
			<g class="st8">
				<path class="st7" d="M319.63,149.43c0,0.64-0.52,1.16-1.16,1.16s-1.16-0.52-1.16-1.16s0.52-1.16,1.16-1.16
					C319.11,148.26,319.63,148.78,319.63,149.43z"/>
			</g>
			<g class="st8">
				<path class="st7" d="M323.56,149.43c0,0.64-0.52,1.16-1.16,1.16s-1.16-0.52-1.16-1.16s0.52-1.16,1.16-1.16
					C323.04,148.26,323.56,148.78,323.56,149.43z"/>
			</g>
		</g>
		<g class="st8">
			<rect x="322.4" y="163.95" class="st7" width="38.75" height="38.75"/>
		</g>
		<g>
			<g>
				<path class="st7" d="M435.27,174.9c0,0.14-15.11,0.26-33.76,0.26c-18.65,0-33.76-0.12-33.76-0.26s15.11-0.26,33.76-0.26
					C420.15,174.64,435.27,174.76,435.27,174.9z"/>
			</g>
		</g>
		<g>
			<g>
				<path class="st7" d="M435.27,182.11c0,0.14-15.11,0.26-33.76,0.26c-18.65,0-33.76-0.12-33.76-0.26s15.11-0.26,33.76-0.26
					C420.15,181.85,435.27,181.96,435.27,182.11z"/>
			</g>
		</g>
		<g>
			<g>
				<path class="st7" d="M435.27,189.31c0,0.14-15.11,0.26-33.76,0.26c-18.65,0-33.76-0.12-33.76-0.26s15.11-0.26,33.76-0.26
					C420.15,189.05,435.27,189.16,435.27,189.31z"/>
			</g>
		</g>
		<g>
			<g>
				<path class="st7" d="M407.66,196.51c0,0.04-0.56,0.07-1.57,0.1c-1.1,0.02-2.54,0.05-4.28,0.08c-3.61,0.05-8.6,0.08-14.11,0.08
					c-5.51,0-10.5-0.03-14.11-0.08c-1.73-0.03-3.17-0.06-4.28-0.08c-1.01-0.03-1.57-0.07-1.57-0.1c0-0.04,0.56-0.07,1.57-0.1
					c1.1-0.02,2.54-0.05,4.28-0.08c3.61-0.05,8.6-0.08,14.11-0.08c5.51,0,10.5,0.03,14.11,0.08c1.73,0.03,3.17,0.06,4.28,0.08
					C407.1,196.44,407.66,196.47,407.66,196.51z"/>
			</g>
		</g>
		<g class="st8">
			<rect x="324.82" y="215.77" class="st7" width="18.21" height="18.21"/>
		</g>
		<g class="st8">
			<rect x="357.85" y="215.77" class="st7" width="18.21" height="18.21"/>
		</g>
		<g class="st8">
			<rect x="390.88" y="215.77" class="st7" width="18.21" height="18.21"/>
		</g>
		<g class="st8">
			<rect x="423.91" y="215.77" class="st7" width="18.21" height="18.21"/>
		</g>
	</g>
	<g>
		<g>
			<g>
				<rect x="44.21" y="180.17" class="st6" width="129.42" height="52.57"/>
			</g>
			<g>
				<g>
					<path class="st7" d="M173.63,232.74c0,0-0.01-0.32-0.01-0.94s-0.01-1.53-0.02-2.73c-0.01-2.4-0.02-5.92-0.04-10.46
						c-0.02-9.07-0.04-22.2-0.08-38.44l0.14,0.14c-32.92,0.02-78.75,0.04-129.41,0.06H44.2l0.2-0.2c0,18.41-0.01,36.18-0.01,52.57
						l-0.2-0.2c37.5,0.04,69.83,0.07,92.79,0.09c11.49,0.02,20.64,0.04,26.92,0.05c3.14,0.01,5.56,0.02,7.2,0.02
						c0.82,0.01,1.44,0.01,1.87,0.01C173.41,232.73,173.63,232.74,173.63,232.74s-0.2,0.01-0.62,0.01s-1.04,0.01-1.84,0.01
						c-1.64,0.01-4.04,0.01-7.16,0.02c-6.27,0.01-15.4,0.03-26.87,0.05c-23,0.02-55.37,0.06-92.93,0.09h-0.2v-0.2
						c0-16.39-0.01-34.16-0.01-52.57v-0.21h0.2h0.01c50.66,0.02,96.49,0.05,129.41,0.06h0.14v0.14
						c-0.03,16.28-0.06,29.43-0.08,38.53c-0.02,4.53-0.03,8.04-0.04,10.43c-0.01,1.18-0.01,2.08-0.02,2.7
						C173.64,232.44,173.63,232.74,173.63,232.74z"/>
				</g>
			</g>
		</g>
		<g>
			<g>
				<path class="st7" d="M44.34,187.26c0-0.11,28.93-0.21,64.61-0.21c35.69,0,64.61,0.09,64.61,0.21c0,0.11-28.92,0.2-64.61,0.2
					C73.27,187.46,44.34,187.37,44.34,187.26z"/>
			</g>
		</g>
		<g>
			<g class="st8">
				<path class="st7" d="M49.76,184.09c0,0.52-0.42,0.94-0.94,0.94s-0.94-0.42-0.94-0.94s0.42-0.94,0.94-0.94
					S49.76,183.57,49.76,184.09z"/>
			</g>
			<g class="st8">
				<path class="st7" d="M52.98,184.09c0,0.52-0.42,0.94-0.94,0.94s-0.94-0.42-0.94-0.94s0.42-0.94,0.94-0.94
					S52.98,183.57,52.98,184.09z"/>
			</g>
			<g class="st8">
				<path class="st7" d="M56.15,184.09c0,0.52-0.42,0.94-0.94,0.94s-0.94-0.42-0.94-0.94s0.42-0.94,0.94-0.94
					C55.73,183.15,56.15,183.57,56.15,184.09z"/>
			</g>
		</g>
		<g class="st8">
			<rect x="55.21" y="195.8" class="st7" width="31.26" height="31.26"/>
		</g>
		<g>
			<g>
				<g>
					<path class="st7" d="M164.68,204.18c0,0.11-16.09,0.2-35.93,0.2c-19.85,0-35.93-0.09-35.93-0.2s16.08-0.2,35.93-0.2
						C148.59,203.98,164.68,204.07,164.68,204.18z"/>
				</g>
			</g>
			<g>
				<g>
					<path class="st7" d="M164.68,210.55c0,0.11-16.09,0.21-35.93,0.21c-19.85,0-35.93-0.09-35.93-0.21c0-0.11,16.08-0.2,35.93-0.2
						C148.59,210.34,164.68,210.44,164.68,210.55z"/>
				</g>
			</g>
			<g>
				<g>
					<path class="st7" d="M139.08,216.92c0,0.01-0.16,0.03-0.47,0.04c-0.35,0.01-0.8,0.02-1.35,0.04c-1.23,0.02-2.9,0.04-4.96,0.07
						c-4.23,0.02-9.99,0.04-16.35,0.06c-6.36-0.02-12.12-0.04-16.36-0.06c-2.05-0.03-3.73-0.05-4.96-0.07
						c-0.55-0.02-0.99-0.03-1.35-0.04c-0.31-0.01-0.47-0.03-0.47-0.04s0.16-0.03,0.47-0.04c0.35-0.01,0.8-0.02,1.35-0.04
						c1.22-0.02,2.9-0.04,4.96-0.07c4.23-0.02,9.99-0.04,16.36-0.06c6.36,0.02,12.12,0.04,16.35,0.06c2.05,0.03,3.73,0.05,4.96,0.07
						c0.55,0.02,1,0.03,1.35,0.04C138.92,216.89,139.08,216.9,139.08,216.92z"/>
				</g>
			</g>
		</g>
	</g>
</g>
<g id="Rocket">
	<path class="st1" d="M268.73,114.11c-2.17-1.45-5.15-0.57-7.32,0.88s-4.02,3.43-6.45,4.37c-4.56,1.77-10.55-0.33-14.1,3.05
		c-2.25,2.14-2.48,5.66-4.2,8.25c-2.9,4.36-9.85,6-10.45,11.2c-0.35,3.03,2.05,5.94,4.99,6.79c2.93,0.85,6.16-0.05,8.7-1.74
		c2.97-1.97,5.3-5.02,8.69-6.14c3.46-1.15,7.73-0.19,10.46-2.6c2.73-2.42,2.32-6.86,4.28-9.94c1.04-1.64,2.68-2.79,4.16-4.06
		s2.87-2.84,3.12-4.77C270.85,117.47,270.06,114.18,268.73,114.11"/>
	<g>
		<g>
			<path class="st9" d="M212.38,326.56c0.12-0.07,0.53,0.33,0.91,0.9s0.59,1.11,0.47,1.19c-0.12,0.08-0.52-0.32-0.91-0.9
				C212.47,327.17,212.26,326.64,212.38,326.56z"/>
		</g>
		<g>
			<path class="st9" d="M208.1,317.54c0.14-0.05,0.67,0.95,1.19,2.22s0.84,2.35,0.71,2.41c-0.13,0.06-0.66-0.93-1.19-2.22
				C208.28,318.67,207.96,317.59,208.1,317.54z"/>
		</g>
		<g>
			<path class="st9" d="M205.78,307.82c0.14-0.02,0.46,1.06,0.71,2.41s0.34,2.47,0.2,2.51c-0.14,0.03-0.46-1.05-0.71-2.41
				C205.73,308.96,205.64,307.84,205.78,307.82z"/>
		</g>
		<g>
			<path class="st9" d="M205.43,297.83c0.14,0.01,0.24,1.13,0.23,2.5c-0.02,1.37-0.15,2.49-0.3,2.5c-0.14,0.01-0.24-1.11-0.23-2.51
				C205.15,298.94,205.28,297.82,205.43,297.83z"/>
		</g>
		<g>
			<path class="st9" d="M207.04,287.97c0.14,0.04,0.02,1.16-0.27,2.5c-0.29,1.34-0.64,2.41-0.78,2.39s-0.02-1.14,0.27-2.5
				C206.56,289,206.91,287.93,207.04,287.97z"/>
		</g>
		<g>
			<path class="st9" d="M210.64,278.65c0.13,0.07-0.22,1.14-0.79,2.39c-0.56,1.25-1.13,2.23-1.26,2.18
				c-0.13-0.05,0.22-1.12,0.79-2.39C209.95,279.55,210.51,278.58,210.64,278.65z"/>
		</g>
		<g>
			<path class="st9" d="M216.15,270.31c0.11,0.09-0.46,1.06-1.28,2.16c-0.82,1.1-1.59,1.93-1.69,1.86
				c-0.14-0.09,0.45-1.05,1.27-2.17C215.28,271.05,216.04,270.22,216.15,270.31z"/>
		</g>
		<g>
			<path class="st9" d="M222.87,262.91c0.1,0.1-0.59,0.99-1.54,1.99s-1.81,1.73-1.91,1.63s0.58-0.99,1.54-1.99
				C221.91,263.53,222.77,262.8,222.87,262.91z"/>
		</g>
		<g>
			<path class="st9" d="M229.91,255.79c0.1,0.1-0.6,0.98-1.57,1.96c-0.97,0.99-1.84,1.7-1.94,1.6s0.6-0.98,1.57-1.96
				C228.94,256.41,229.81,255.69,229.91,255.79z"/>
		</g>
		<g>
			<path class="st9" d="M236.49,248.25c0.12,0.09-0.5,1.03-1.38,2.1s-1.68,1.87-1.79,1.77c-0.11-0.1,0.51-1.04,1.39-2.1
				C235.57,248.96,236.37,248.17,236.49,248.25z"/>
		</g>
		<g>
			<path class="st9" d="M241.59,239.67c0.13,0.05-0.2,1.14-0.84,2.38s-1.33,2.14-1.45,2.06s0.36-1.09,0.99-2.3
				C240.92,240.59,241.46,239.61,241.59,239.67z"/>
		</g>
		<g>
			<path class="st9" d="M244.02,230.01c0.14,0.01,0.18,1.15-0.05,2.52c-0.23,1.38-0.63,2.44-0.77,2.41
				c-0.14-0.04,0.03-1.14,0.25-2.49C243.68,231.1,243.88,230,244.02,230.01z"/>
		</g>
		<g>
			<path class="st9" d="M243.28,220.07c0.14-0.04,0.53,1.03,0.74,2.41c0.22,1.38,0.17,2.52,0.03,2.53
				c-0.15,0.01-0.33-1.09-0.54-2.45C243.3,221.21,243.14,220.1,243.28,220.07z"/>
		</g>
		<g>
			<path class="st9" d="M239.35,210.92c0.12-0.08,0.85,0.79,1.51,2.02c0.66,1.23,0.98,2.32,0.85,2.38
				c-0.14,0.06-0.66-0.93-1.31-2.13C239.76,211.98,239.23,211,239.35,210.92z"/>
		</g>
		<g>
			<path class="st9" d="M232.38,203.82c0.08-0.12,1.09,0.41,2.16,1.31c1.08,0.9,1.78,1.8,1.67,1.89c-0.11,0.1-0.96-0.62-2.01-1.49
				C233.15,204.66,232.29,203.94,232.38,203.82z"/>
		</g>
		<g>
			<path class="st9" d="M223.29,199.76c0.03-0.14,1.16,0,2.49,0.45c1.32,0.45,2.3,1.03,2.24,1.16s-1.12-0.23-2.41-0.67
				C224.31,200.27,223.25,199.91,223.29,199.76z"/>
		</g>
		<g>
			<path class="st9" d="M213.35,199.31c-0.03-0.14,1.08-0.45,2.47-0.52c1.4-0.07,2.53,0.12,2.52,0.26
				c-0.01,0.15-1.12,0.19-2.49,0.26C214.49,199.38,213.38,199.46,213.35,199.31z"/>
		</g>
		<g>
			<path class="st9" d="M204.12,202.99c-0.08-0.11,0.78-0.87,2.01-1.53c1.23-0.67,2.34-0.96,2.39-0.83
				c0.05,0.14-0.94,0.64-2.14,1.29C205.18,202.56,204.21,203.11,204.12,202.99z"/>
		</g>
		<g>
			<path class="st9" d="M197.26,210.18c-0.12-0.07,0.37-1.11,1.23-2.21c0.86-1.11,1.74-1.84,1.84-1.74c0.1,0.1-0.59,0.97-1.43,2.06
				C198.06,209.36,197.38,210.25,197.26,210.18z"/>
		</g>
		<g>
			<path class="st9" d="M193.89,219.52c-0.14-0.01-0.14-1.16,0.19-2.52s0.85-2.38,0.98-2.33c0.14,0.05-0.15,1.13-0.47,2.46
				C194.27,218.45,194.04,219.54,193.89,219.52z"/>
		</g>
		<g>
			<path class="st9" d="M195.08,229.37c-0.13,0.05-0.65-0.97-0.98-2.33s-0.34-2.51-0.2-2.52c0.15-0.02,0.38,1.07,0.71,2.4
				C194.93,228.24,195.21,229.31,195.08,229.37z"/>
		</g>
		<g>
			<path class="st9" d="M200.15,237.93c-0.11,0.09-0.93-0.69-1.75-1.82s-1.29-2.17-1.16-2.24c0.13-0.07,0.79,0.83,1.59,1.94
				C199.62,236.92,200.26,237.84,200.15,237.93z"/>
		</g>
		<g>
			<path class="st9" d="M207.51,244.68c-0.08,0.12-1.07-0.44-2.15-1.31c-1.08-0.87-1.83-1.73-1.74-1.83
				c0.1-0.11,0.99,0.56,2.06,1.43C206.75,243.82,207.6,244.56,207.51,244.68z"/>
		</g>
		<g>
			<path class="st9" d="M216.18,249.65c-0.06,0.13-1.11-0.27-2.35-0.9c-1.24-0.63-2.18-1.24-2.11-1.37c0.07-0.12,1.12,0.28,2.35,0.9
				C215.29,248.9,216.24,249.52,216.18,249.65z"/>
		</g>
		<g>
			<path class="st9" d="M225.7,252.68c-0.02,0.14-1.16,0.05-2.51-0.3c-1.35-0.35-2.38-0.81-2.34-0.95c0.05-0.14,1.14,0.1,2.47,0.44
				C224.65,252.22,225.72,252.53,225.7,252.68z"/>
		</g>
		<g>
			<path class="st9" d="M235.66,253.19c0.02,0.14-1.1,0.38-2.49,0.4c-1.39,0.03-2.52-0.16-2.51-0.3c0.01-0.15,1.13-0.19,2.5-0.22
				C234.52,253.05,235.64,253.04,235.66,253.19z"/>
		</g>
		<g>
			<path class="st9" d="M245.28,250.62c0.06,0.13-0.91,0.72-2.23,1.19c-1.31,0.47-2.44,0.64-2.48,0.5s1.01-0.53,2.3-0.99
				C244.16,250.85,245.22,250.48,245.28,250.62z"/>
		</g>
		<g>
			<path class="st9" d="M253.62,245.15c0.1,0.1-0.66,0.95-1.77,1.8s-2.12,1.36-2.2,1.24s0.79-0.82,1.88-1.66
				C252.62,245.71,253.53,245.05,253.62,245.15z"/>
		</g>
		<g>
			<path class="st9" d="M260.13,237.59c0.12,0.08-0.39,1.09-1.23,2.21c-0.84,1.12-1.67,1.89-1.78,1.79s0.54-1.01,1.36-2.11
				C259.31,238.38,260.01,237.51,260.13,237.59z"/>
		</g>
		<g>
			<path class="st9" d="M264.46,228.59c0.14,0.04-0.09,1.16-0.62,2.45c-0.52,1.29-1.13,2.25-1.25,2.19
				c-0.13-0.06,0.26-1.11,0.77-2.39C263.88,229.58,264.32,228.55,264.46,228.59z"/>
		</g>
		<g>
			<path class="st9" d="M266.4,218.8c0.14,0.01,0.18,1.14-0.01,2.52s-0.53,2.46-0.67,2.43c-0.14-0.03-0.03-1.14,0.15-2.5
				C266.06,219.89,266.26,218.79,266.4,218.8z"/>
		</g>
		<g>
			<path class="st9" d="M266.14,208.81c0.14-0.02,0.35,1.09,0.45,2.47c0.11,1.39,0.08,2.51-0.07,2.51c-0.14,0-0.35-1.11-0.45-2.47
				C265.97,209.95,266,208.83,266.14,208.81z"/>
		</g>
		<g>
			<path class="st9" d="M263.97,199.05c0.14-0.04,0.54,1.01,0.91,2.35c0.36,1.34,0.54,2.45,0.4,2.48s-0.55-1.02-0.91-2.35
				C264.01,200.2,263.83,199.09,263.97,199.05z"/>
		</g>
		<g>
			<path class="st9" d="M260.14,189.81c0.13-0.07,0.73,0.89,1.33,2.14c0.56,1.27,0.91,2.35,0.77,2.4c-0.13,0.05-0.69-0.92-1.25-2.18
				C260.41,190.93,260.01,189.87,260.14,189.81z"/>
		</g>
		<g>
			<path class="st9" d="M255.22,181.1c0.12-0.07,0.79,0.83,1.49,2.03c0.7,1.19,1.17,2.22,1.04,2.29c-0.12,0.07-0.79-0.84-1.49-2.03
				C255.57,182.19,255.1,181.17,255.22,181.1z"/>
		</g>
		<g>
			<path class="st9" d="M250.26,172.41c0.13-0.07,0.77,0.86,1.44,2.06c0.67,1.21,1.11,2.24,0.98,2.31
				c-0.12,0.07-0.77-0.85-1.44-2.06C250.57,173.51,250.13,172.47,250.26,172.41z"/>
		</g>
		<g>
			<path class="st9" d="M246.35,163.21c0.14-0.04,0.64,0.97,1.12,2.25c0.48,1.29,0.76,2.37,0.63,2.43
				c-0.13,0.06-0.63-0.95-1.12-2.25C246.5,164.34,246.21,163.25,246.35,163.21z"/>
		</g>
		<g>
			<path class="st9" d="M244.65,153.38c0.15,0,0.3,1.1,0.44,2.47c0.14,1.36,0.23,2.48,0.09,2.51s-0.46-1.06-0.6-2.45
				C244.43,154.52,244.51,153.38,244.65,153.38z"/>
		</g>
		<g>
			<path class="st9" d="M245.48,143.43c0.14,0.03,0.02,1.14-0.18,2.5s-0.4,2.46-0.54,2.45c-0.14-0.01-0.18-1.15,0.03-2.52
				C244.98,144.48,245.34,143.4,245.48,143.43z"/>
		</g>
		<g>
			<path class="st9" d="M248.74,133.99c0.13,0.07-0.27,1.11-0.8,2.38c-0.53,1.26-0.99,2.28-1.13,2.24
				c-0.13-0.04,0.11-1.15,0.65-2.44C247.99,134.88,248.61,133.93,248.74,133.99z"/>
		</g>
		<g>
			<path class="st9" d="M254.31,125.71c0.11,0.1-0.55,1-1.39,2.09c-0.84,1.08-1.55,1.95-1.67,1.87s0.41-1.09,1.26-2.19
				C253.36,126.38,254.21,125.62,254.31,125.71z"/>
		</g>
		<g>
			<path class="st9" d="M261.82,119.13c0.08,0.12-0.78,0.83-1.87,1.67s-1.99,1.49-2.09,1.38c-0.09-0.11,0.67-0.95,1.77-1.8
				C260.73,119.54,261.74,119.01,261.82,119.13z"/>
		</g>
		<g>
			<path class="st9" d="M270.72,114.61c0.05,0.14-0.96,0.61-2.22,1.16c-1.26,0.54-2.3,0.95-2.37,0.83c-0.07-0.13,0.88-0.75,2.16-1.3
				C269.57,114.73,270.67,114.47,270.72,114.61z"/>
		</g>
		<g>
			<path class="st9" d="M277.97,112.77c0.02,0.14-0.51,0.36-1.18,0.48c-0.67,0.12-1.25,0.11-1.28-0.03s0.5-0.36,1.18-0.48
				C277.38,112.62,277.95,112.63,277.97,112.77z"/>
		</g>
	</g>
	<g>
		<path class="st7" d="M298.38,83.33c0,0,11.75-8.38,28-2.97c0,0,1.34,13.46-11.7,24.16"/>
		<path class="st7" d="M261.35,108.19c0.5,0.75,13.25,21.24,13.25,21.24l38.27-23.58c6.68-4.12,8.41-13.07,3.74-19.38l0,0
			c-4.26-5.75-12.29-7.14-18.23-3.15L261.35,108.19z"/>
		<path class="st9" d="M274.6,129.43l-0.86,14.42c0,0,24.8-12.01,18.61-25.36L274.6,129.43z"/>
		<path class="st9" d="M279.08,96.29c0,0-16.82-7.42-30.66,3.46l12.94,8.44L279.08,96.29z"/>
		<path class="st9" d="M278.96,108.2l-23.94,14.97c0,0,0.82,2.57,1.47,2.36c0.54-0.18,18.52-10.8,24.36-14.25
			c0.95-0.56,1.17-1.84,0.47-2.7l0,0C280.74,107.88,279.73,107.72,278.96,108.2z"/>
		<g>
			<ellipse class="st10" cx="301" cy="96.86" rx="7.66" ry="7.66"/>
			<g>
				<path class="st9" d="M308.67,96.85c-0.06,0-0.03-0.68-0.34-1.85c-0.31-1.14-1.08-2.81-2.8-4.1c-0.85-0.63-1.92-1.16-3.15-1.37
					c-1.22-0.2-2.6-0.16-3.9,0.34c-1.31,0.47-2.55,1.36-3.44,2.59c-0.91,1.21-1.42,2.77-1.44,4.38c0.01,1.61,0.53,3.16,1.44,4.38
					c0.88,1.23,2.13,2.12,3.44,2.59c1.31,0.5,2.68,0.55,3.9,0.34c1.23-0.21,2.3-0.74,3.15-1.37c1.72-1.29,2.49-2.96,2.8-4.1
					C308.64,97.54,308.61,96.85,308.67,96.85c0.02,0,0.03,0.17,0.03,0.49c0.01,0.32-0.03,0.8-0.17,1.4c-0.25,1.19-1,2.95-2.77,4.34
					c-0.88,0.68-2,1.26-3.29,1.5c-1.29,0.23-2.75,0.2-4.15-0.32c-1.4-0.49-2.73-1.43-3.68-2.74c-0.98-1.29-1.53-2.96-1.55-4.68
					c0.01-1.72,0.57-3.39,1.55-4.68c0.95-1.31,2.29-2.25,3.68-2.74c1.4-0.52,2.86-0.55,4.15-0.32c1.3,0.24,2.42,0.82,3.29,1.5
					c1.77,1.39,2.52,3.16,2.77,4.34c0.14,0.6,0.18,1.08,0.17,1.4C308.7,96.69,308.69,96.85,308.67,96.85z"/>
			</g>
		</g>
		<g>
			<path class="st9" d="M318,101.96c-0.1,0.01-0.21-1.49-0.8-3.82c-0.28-1.17-0.73-2.53-1.33-3.99c-0.62-1.46-1.41-3.01-2.39-4.55
				c-1-1.53-2.1-2.89-3.17-4.06c-1.09-1.15-2.14-2.12-3.09-2.86c-1.88-1.49-3.2-2.21-3.15-2.3c0.02-0.03,0.36,0.13,0.95,0.45
				c0.3,0.16,0.67,0.36,1.07,0.63s0.88,0.55,1.35,0.93c0.99,0.71,2.08,1.67,3.21,2.82c1.11,1.17,2.24,2.55,3.26,4.11
				c1,1.57,1.79,3.16,2.4,4.66c0.58,1.5,1,2.9,1.25,4.09c0.15,0.59,0.21,1.14,0.29,1.62c0.08,0.48,0.12,0.89,0.14,1.23
				C318.03,101.58,318.04,101.96,318,101.96z"/>
		</g>
		<g>
			<path class="st9" d="M315.94,103.06c-0.1,0.01-0.22-1.51-0.82-3.88c-0.29-1.19-0.75-2.57-1.35-4.06
				c-0.63-1.48-1.43-3.07-2.43-4.64c-1.01-1.56-2.12-2.95-3.21-4.14c-1.1-1.17-2.17-2.17-3.13-2.92c-1.9-1.53-3.24-2.28-3.19-2.36
				c0.02-0.03,0.36,0.14,0.97,0.47c0.31,0.16,0.67,0.37,1.08,0.65c0.41,0.27,0.89,0.57,1.37,0.95c1,0.73,2.11,1.71,3.25,2.89
				c1.12,1.2,2.26,2.6,3.29,4.19c1.01,1.6,1.81,3.22,2.43,4.74c0.59,1.53,1.02,2.95,1.27,4.16c0.15,0.6,0.22,1.16,0.3,1.64
				c0.08,0.48,0.12,0.91,0.14,1.25C315.96,102.68,315.97,103.06,315.94,103.06z"/>
		</g>
	</g>
</g>
<g id="Plant">
	<g>
		<g>
			<g>
				<g>
					<path class="st7" d="M81.84,420.97c-0.86-3.4,1.39-6.8,3.9-9.24c2.51-2.45,5.51-4.64,6.82-7.89
						c2.13-5.26-0.66-12.11,2.96-16.49c2.13-2.58,5.92-3.42,7.81-6.18c0.99-1.45,1.32-3.23,1.71-4.93
						c2.02-8.71,6.43-16.85,12.62-23.3c0.38,7.77-1.37,15.63-5.03,22.5c-1.47,2.76-3.27,5.45-3.77,8.53
						c-0.81,5.01,1.96,10.2,0.7,15.11c-1.44,5.62-7.79,9.36-8.12,15.16c-0.28,4.9,3.97,9.23,3.62,14.12
						c-0.15,2.08-1.13,4.02-2.21,5.8c-3.83,6.28-9.42,10.59-17.86,10.4l-10.34,0.3L81.84,420.97z"/>
				</g>
			</g>
		</g>
		<g class="st8">
			<g>
				<g>
					<g>
						<path d="M81.84,420.97c-0.86-3.4,1.39-6.8,3.9-9.24c2.51-2.45,5.51-4.64,6.82-7.89c2.13-5.26-0.66-12.11,2.96-16.49
							c2.13-2.58,5.92-3.42,7.81-6.18c0.99-1.45,1.32-3.23,1.71-4.93c2.02-8.71,6.43-16.85,12.62-23.3
							c0.38,7.77-1.37,15.63-5.03,22.5c-1.47,2.76-3.27,5.45-3.77,8.53c-0.81,5.01,1.96,10.2,0.7,15.11
							c-1.44,5.62-7.79,9.36-8.12,15.16c-0.28,4.9,3.97,9.23,3.62,14.12c-0.15,2.08-1.13,4.02-2.21,5.8
							c-3.83,6.28-9.42,10.59-17.86,10.4l-10.34,0.3L81.84,420.97z"/>
					</g>
				</g>
			</g>
		</g>
		<g>
			<g>
				<g>
					<g>
						<g>
							<g>
								<path class="st9" d="M72.56,445.11c0,0-0.99,0.22-2.85-0.08c-0.93-0.14-2.06-0.39-3.35-0.86c-1.28-0.48-2.74-1.16-4.14-2.3
									c-0.67-0.59-1.34-1.32-1.69-2.28s-0.41-2.01-0.47-3.09c-0.05-1.08-0.04-2.21-0.22-3.35c-0.17-1.14-0.61-2.26-1.24-3.33
									c-1.21-2.15-3.22-4.19-3.86-7.1c-0.69-2.86-0.17-5.95,0.33-9.06c0.5-3.1,0.98-6.48-0.19-9.71
									c-1.09-3.24-3.34-6.17-4.45-9.82c-1.11-3.69-0.56-7.64-0.78-11.55c-0.1-1.96-0.47-3.93-1.31-5.75
									c-0.83-1.83-1.98-3.57-2.87-5.5c-1.81-3.9-2.11-8.32-2.59-12.65c-0.23-2.18-0.47-4.38-0.7-6.61
									c-0.23-2.24-0.42-4.46-1.11-6.62c-0.62-2.17-1.53-4.27-2.44-6.41c-0.44-1.08-0.91-2.15-1.18-3.35
									c-0.2-1.22-0.25-2.36-0.31-3.56c-0.1-2.37,0.01-4.77,0.32-7.15c0.29-2.38,0.74-4.75,1.01-7.14
									c0.02-0.14,0.03-0.28,0.05-0.41l0.06-0.48l0.42,0.21c2.21,1.12,4.09,2.78,5.54,4.73c1.47,1.93,2.54,4.11,3.38,6.32
									c1.7,4.45,2.3,9.11,3.14,13.56c0.82,4.45,1.92,8.82,4.18,12.53c1.12,1.85,2.48,3.54,3.67,5.34
									c1.19,1.79,2.23,3.75,2.53,5.91c0.59,4.38-1.84,8.2-1.36,12.08c0.17,1.93,0.92,3.73,1.86,5.38
									c0.93,1.66,2.02,3.19,3.06,4.74c1.04,1.55,2.02,3.11,2.75,4.78c0.74,1.67,1.14,3.45,1.24,5.19
									c0.23,3.49-0.28,6.79-0.04,9.92c0.19,3.13,1.27,5.97,2.5,8.51c1.24,2.55,2.61,4.86,3.77,7.09c0.58,1.12,1.11,2.21,1.55,3.3
									c0.46,1.09,0.68,2.21,0.89,3.27c0.33,2.15,0.28,4.14,0.04,5.9c-0.47,3.54-1.8,6.08-3,7.51c-0.27,0.38-0.59,0.65-0.84,0.9
									c-0.24,0.26-0.48,0.44-0.68,0.57C72.76,444.98,72.56,445.11,72.56,445.11c-0.05-0.05,0.85-0.52,2.01-1.97
									c1.15-1.43,2.42-3.96,2.85-7.46c0.22-1.74,0.24-3.71-0.1-5.82c-0.21-1.04-0.44-2.14-0.9-3.2c-0.43-1.07-0.97-2.15-1.56-3.26
									c-1.16-2.22-2.55-4.52-3.82-7.08c-1.25-2.55-2.38-5.45-2.59-8.66c-0.25-3.19,0.25-6.51,0-9.91c-0.11-1.7-0.5-3.4-1.22-5.02
									c-0.71-1.62-1.68-3.16-2.72-4.69c-1.04-1.54-2.14-3.08-3.1-4.77c-0.96-1.68-1.76-3.56-1.94-5.6
									c-0.47-4.13,1.94-7.98,1.34-12.05c-0.29-2.01-1.28-3.89-2.45-5.65c-1.17-1.77-2.54-3.46-3.69-5.35
									c-2.33-3.81-3.44-8.27-4.27-12.73c-0.85-4.47-1.45-9.08-3.12-13.44c-0.83-2.17-1.87-4.29-3.29-6.15
									c-1.4-1.88-3.2-3.46-5.3-4.53l0.48-0.26c-0.02,0.13-0.03,0.27-0.05,0.42c-0.27,2.42-0.72,4.79-1.01,7.14
									c-0.3,2.36-0.41,4.71-0.31,7.04c0.06,1.15,0.12,2.36,0.3,3.45c0.25,1.09,0.7,2.16,1.14,3.23c0.9,2.13,1.82,4.26,2.45,6.48
									c0.71,2.21,0.9,4.52,1.13,6.73c0.23,2.23,0.47,4.43,0.7,6.61c0.47,4.35,0.77,8.69,2.51,12.46c0.86,1.88,2.01,3.61,2.86,5.51
									c0.88,1.89,1.26,3.97,1.35,5.96c0.2,3.99-0.34,7.89,0.72,11.43c1.05,3.52,3.29,6.47,4.41,9.81c1.2,3.38,0.68,6.86,0.16,9.95
									c-0.52,3.11-1.04,6.14-0.38,8.89c0.58,2.78,2.54,4.8,3.77,7.01c0.64,1.1,1.1,2.28,1.26,3.46c0.17,1.18,0.16,2.31,0.2,3.39
									c0.05,1.06,0.1,2.11,0.42,3.01c0.32,0.89,0.95,1.6,1.59,2.18c1.34,1.12,2.78,1.82,4.04,2.31c1.27,0.49,2.39,0.76,3.31,0.92
									c0.91,0.17,1.63,0.2,2.1,0.21C72.31,445.1,72.56,445.11,72.56,445.11z"/>
							</g>
						</g>
					</g>
				</g>
				<g>
					<g>
						<g>
							<g>
								<path class="st9" d="M40.59,323.15c0.01,0,0.04,0.1,0.1,0.31c0.06,0.25,0.13,0.55,0.22,0.93c0.2,0.82,0.43,2.05,0.82,3.58
									c0.4,1.53,1.33,3.27,2.12,5.41c0.82,2.12,1.65,4.58,2.42,7.35c0.77,2.76,1.45,5.83,2.17,9.11
									c0.73,3.28,1.47,6.79,3.25,10.11c0.84,1.68,1.78,3.39,2.53,5.25c0.77,1.86,1.17,3.9,1.45,5.94c0.47,4.1,1.2,8.26,2.16,12.52
									c2.02,8.48,3.95,16.56,5.71,23.92c1.8,7.33,3.42,13.94,4.79,19.51c1.33,5.52,2.41,10,3.17,13.17
									c0.35,1.52,0.63,2.72,0.83,3.59c0.08,0.38,0.15,0.69,0.2,0.94c0.04,0.21,0.06,0.32,0.05,0.32c-0.01,0-0.05-0.1-0.11-0.31
									c-0.07-0.25-0.16-0.55-0.26-0.92c-0.23-0.86-0.55-2.05-0.95-3.56c-0.81-3.15-1.96-7.62-3.38-13.11
									c-1.41-5.56-3.07-12.16-4.93-19.47c-1.77-7.36-3.72-15.44-5.76-23.93c-0.96-4.25-1.69-8.49-2.15-12.57
									c-0.28-2.03-0.66-3.99-1.4-5.8c-0.72-1.82-1.65-3.51-2.49-5.21c-1.8-3.38-2.54-7.01-3.24-10.27
									c-0.69-3.29-1.34-6.35-2.08-9.1c-0.73-2.76-1.53-5.21-2.31-7.34c-0.75-2.13-1.65-3.89-2.02-5.48
									c-0.35-1.58-0.54-2.79-0.7-3.62c-0.06-0.38-0.12-0.69-0.16-0.95C40.59,323.26,40.58,323.15,40.59,323.15z"/>
							</g>
						</g>
					</g>
				</g>
			</g>
			<g>
				<g>
					<g>
						<g>
							<path class="st7" d="M70.73,445.13c-6.73-4.05-8.6-16.24-5.74-23.56s7.83-13.99,8.63-21.8c0.62-6.01-1.31-12.19,0.12-18.05
								c1.93-7.92,9.71-14.01,9.66-22.16c-0.02-4.57-2.6-8.89-2.37-13.46c0.29-5.6,4.61-10.02,7.3-14.94
								c4.12-7.53,4.44-16.46,5.88-24.92c1.44-8.46,4.72-17.51,12.25-21.64c1.07,7.2,2.93,12.13,2.28,21.87
								c-0.23,3.5-4.34,10.17-4.93,17.84c-0.36,4.58-0.61,9.17-0.92,13.75c-0.3,4.46-0.61,9-2.24,13.17
								c-1.24,3.19-3.23,6.09-4.16,9.39c-1.75,6.2,0.46,12.95-0.95,19.24c-1.2,5.33-4.92,9.9-5.7,15.3
								c-1.1,7.59,3.77,15.52,1.21,22.75c-1.27,3.59-4.25,6.46-5.11,10.17c-0.67,2.88,0.03,5.93-0.58,8.83
								c-0.98,4.66-9.89,8.23-14.64,7.92"/>
						</g>
					</g>
				</g>
				<g>
					<g>
						<g>
							<g>
								<path class="st9" d="M104.57,291.73c0.01,0,0,0.14-0.03,0.41c-0.04,0.3-0.09,0.69-0.16,1.18c-0.16,1.04-0.34,2.56-0.71,4.53
									c-0.39,1.98-1.42,4.21-2.25,6.89c-0.88,2.68-1.75,5.77-2.53,9.23c-0.79,3.46-1.46,7.29-2.16,11.41
									c-0.72,4.09-1.46,8.61-3.53,12.9c-0.96,2.15-2.03,4.31-2.84,6.6c-0.83,2.29-1.22,4.75-1.47,7.29
									c-0.38,5.09-1.09,10.39-2.07,15.72c-2.13,10.64-4.16,20.78-6,30.01c-1.94,9.19-3.69,17.47-5.16,24.44
									c-1.49,6.92-2.69,12.53-3.54,16.46c-0.42,1.91-0.76,3.4-0.99,4.47c-0.11,0.48-0.2,0.86-0.28,1.16
									c-0.07,0.26-0.1,0.39-0.12,0.39c-0.01,0,0.01-0.14,0.05-0.4c0.05-0.3,0.12-0.69,0.21-1.17c0.21-1.07,0.5-2.58,0.87-4.5
									c0.8-3.94,1.93-9.57,3.33-16.51c1.43-6.98,3.14-15.27,5.02-24.47c1.83-9.22,3.84-19.36,5.95-30
									c0.98-5.34,1.69-10.55,2.08-15.67c0.25-2.55,0.66-5.09,1.51-7.43c0.84-2.35,1.92-4.51,2.88-6.64
									c2.06-4.22,2.8-8.64,3.55-12.74c0.72-4.12,1.42-7.96,2.24-11.42c0.81-3.47,1.72-6.57,2.63-9.24c0.87-2.7,1.94-4.9,2.35-6.83
									c0.4-1.93,0.62-3.47,0.83-4.5c0.09-0.49,0.17-0.87,0.22-1.17C104.53,291.86,104.56,291.73,104.57,291.73z"/>
							</g>
						</g>
					</g>
				</g>
			</g>
		</g>
	</g>
</g>
<g id="Chart">
	<g>
		<g>
			<rect x="402.47" y="287.76" class="st7" width="6.97" height="22.52"/>
		</g>
		<g>
			<rect x="415.3" y="278.49" class="st7" width="6.97" height="31.78"/>
		</g>
		<g>
			<rect x="428.95" y="274.16" class="st7" width="6.97" height="36.11"/>
		</g>
		<g>
			<rect x="442.61" y="269.6" class="st7" width="6.97" height="40.68"/>
		</g>
	</g>
</g>
<g id="Gears">
	<g>
		<g>
			<g>
				<g>
					<g>
						<path class="st9" d="M167.52,316.97c0,0,0.57,0.04,1.5,0.47c0.91,0.42,2.19,1.34,2.99,3.02c0.39,0.83,0.65,1.83,0.61,2.92
							c-0.05,1.08-0.33,2.24-1,3.27c-0.32,0.52-0.73,1-1.22,1.42c-0.48,0.42-1.04,0.78-1.65,1.05c-1.21,0.55-2.65,0.7-4.03,0.4
							c-1.38-0.32-2.62-1.07-3.48-2.08c-0.44-0.5-0.79-1.06-1.04-1.65c-0.26-0.58-0.43-1.2-0.5-1.8c-0.17-1.22,0.07-2.39,0.49-3.39
							c0.43-1,1.1-1.79,1.8-2.38c1.43-1.18,2.99-1.46,3.99-1.46C166.99,316.76,167.52,316.97,167.52,316.97
							c-0.01,0.04-0.55-0.11-1.55-0.07c-0.98,0.04-2.47,0.36-3.83,1.51c-0.66,0.57-1.29,1.34-1.69,2.3
							c-0.39,0.95-0.6,2.08-0.43,3.23c0.07,0.58,0.23,1.15,0.48,1.7c0.24,0.56,0.57,1.09,0.99,1.56c0.82,0.96,1.99,1.66,3.29,1.96
							c1.31,0.28,2.66,0.15,3.81-0.37c0.58-0.25,1.11-0.58,1.56-0.98c0.46-0.39,0.86-0.84,1.16-1.34c0.64-0.97,0.93-2.08,0.99-3.1
							c0.05-1.03-0.19-2-0.54-2.8c-0.73-1.62-1.95-2.55-2.82-3C168.07,317.11,167.51,317.02,167.52,316.97z"/>
					</g>
				</g>
			</g>
		</g>
		<g>
			<g>
				<g>
					<g>
						<path class="st9" d="M172.6,310.19c0,0-0.01-0.07-0.01-0.22c0-0.17-0.01-0.39-0.02-0.68c-0.01-0.62-0.02-1.51-0.04-2.67
							l0.05,0.06c-1.48-0.32-3.42-0.75-5.77-1.26l0.1-0.05c-0.46,0.98-0.97,2.07-1.52,3.23l-0.03,0.06h-0.07
							c-1.2,0.05-2.47,0.26-3.76,0.67l-0.07,0.02l-0.05-0.05c-0.79-0.78-1.65-1.63-2.54-2.51l0.16,0.02c-1.57,1-3.23,2.06-4.98,3.17
							l0.06-0.17c0.37,1.04,0.78,2.19,1.2,3.36l0.03,0.09l-0.06,0.07c-0.8,0.87-1.58,1.93-2.19,3.12l-0.04,0.08h-0.1
							c-1.11,0-2.33,0.01-3.57,0.01l0.16-0.13c-0.4,1.81-0.84,3.76-1.29,5.77l-0.09-0.19c1,0.48,2.11,1,3.22,1.53l0.09,0.04v0.1
							c0.05,1.19,0.26,2.49,0.66,3.75l0.03,0.1l-0.08,0.08c-0.79,0.79-1.65,1.66-2.52,2.53l0.02-0.22c1,1.58,2.08,3.27,3.16,4.99
							l-0.21-0.07c1.06-0.38,2.21-0.79,3.36-1.2l0.1-0.04l0.08,0.07c0.89,0.82,1.95,1.59,3.11,2.19l0,0l0,0
							c0.04,0.07-0.1-0.16,0.1,0.16l0,0v0.01v0.01v0.03v0.06v0.11v0.22v0.45v0.89c0,0.6,0,1.19,0,1.78l-0.14-0.18
							c1.95,0.44,3.87,0.87,5.76,1.29l-0.2,0.1c0.52-1.08,1.03-2.16,1.53-3.22l0.05-0.1h0.11c1.29-0.05,2.55-0.27,3.75-0.65
							l0.1-0.03l0.08,0.08c0.85,0.85,1.7,1.69,2.53,2.52l-0.21-0.02c1.7-1.08,3.37-2.13,4.99-3.16l-0.07,0.2
							c-0.4-1.14-0.8-2.26-1.19-3.36l-0.03-0.09l0.07-0.07c0.89-0.95,1.62-2.01,2.2-3.11l0.04-0.08h0.1c1.22,0,2.41,0,3.57,0
							l-0.15,0.12c0.46-2.03,0.89-3.94,1.31-5.76l0.08,0.16c-1.13-0.54-2.2-1.05-3.22-1.54l-0.07-0.03v-0.08
							c-0.05-1.36-0.29-2.61-0.64-3.76l-0.02-0.07l0.05-0.05c0.92-0.92,1.75-1.74,2.53-2.52l-0.01,0.13c-1.22-1.94-2.25-3.59-3.14-5
							l0.1,0.03c-1.35,0.47-2.45,0.85-3.37,1.18l-0.03,0.01l-0.03-0.02c-0.95-0.89-1.75-1.42-2.29-1.77
							c-0.26-0.16-0.47-0.28-0.61-0.37C172.66,310.23,172.6,310.19,172.6,310.19s0.08,0.03,0.22,0.1s0.35,0.18,0.63,0.35
							c0.55,0.33,1.37,0.85,2.34,1.73l-0.06-0.01c0.92-0.33,2.02-0.73,3.36-1.22l0.06-0.02l0.04,0.06c0.9,1.41,1.95,3.05,3.18,4.98
							l0.05,0.07l-0.06,0.06c-0.78,0.78-1.6,1.62-2.51,2.54l0.03-0.12c0.37,1.17,0.62,2.44,0.68,3.82l-0.07-0.11
							c1.03,0.48,2.09,0.99,3.23,1.52l0.1,0.05l-0.02,0.11c-0.41,1.82-0.83,3.74-1.28,5.77l-0.03,0.12h-0.12
							c-1.16,0-2.34,0.01-3.57,0.01l0.14-0.08c-0.59,1.13-1.34,2.21-2.24,3.19l0.03-0.17c0.39,1.1,0.79,2.22,1.2,3.36l0.04,0.13
							l-0.11,0.07c-1.62,1.03-3.28,2.09-4.99,3.17l-0.12,0.07l-0.1-0.1c-0.83-0.83-1.68-1.67-2.53-2.52l0.18,0.04
							c-1.23,0.39-2.52,0.62-3.84,0.67l0.15-0.1c-0.5,1.06-1.01,2.14-1.53,3.22l-0.06,0.13l-0.14-0.03
							c-1.89-0.42-3.82-0.85-5.76-1.29l-0.14-0.03v-0.15c0-0.59,0-1.18,0-1.78v-0.9v-0.45v-0.22v-0.11v-0.06v-0.03v-0.01v-0.01l0,0
							c0.2,0.32,0.05,0.09,0.1,0.16l0,0l0,0c-1.19-0.62-2.28-1.4-3.18-2.24l0.18,0.04c-1.15,0.41-2.3,0.82-3.36,1.2l-0.14,0.05
							l-0.08-0.12c-1.09-1.72-2.16-3.41-3.16-4.99l-0.08-0.12l0.1-0.1c0.87-0.87,1.73-1.74,2.52-2.53l-0.04,0.18
							c-0.41-1.29-0.62-2.62-0.67-3.84l0.1,0.15c-1.12-0.53-2.22-1.06-3.22-1.53l-0.12-0.06l0.03-0.13c0.45-2,0.89-3.95,1.3-5.76
							l0.03-0.13h0.13c1.24,0,2.46,0,3.57,0l-0.14,0.08c0.63-1.21,1.42-2.29,2.25-3.18l-0.03,0.15c-0.42-1.18-0.82-2.32-1.19-3.37
							l-0.04-0.11l0.1-0.06c1.75-1.11,3.42-2.16,5-3.15l0.09-0.06l0.07,0.07c0.89,0.89,1.74,1.74,2.52,2.53l-0.12-0.03
							c1.31-0.41,2.61-0.61,3.83-0.65l-0.09,0.06c0.56-1.16,1.08-2.24,1.54-3.22l0.03-0.07l0.07,0.02c2.34,0.54,4.28,0.99,5.76,1.33
							l0.05,0.01v0.05c-0.01,1.15-0.02,2.03-0.02,2.65c-0.01,0.29-0.01,0.52-0.01,0.68C172.61,310.11,172.6,310.19,172.6,310.19z"/>
					</g>
				</g>
			</g>
		</g>
	</g>
	<g>
		<g>
			<g>
				<g>
					<path class="st11" d="M161.72,265.33c1.28,0.67,2.45,1.49,3.48,2.45l3.72-1.32l3.49,5.52l-2.78,2.8
						c0.42,1.34,0.67,2.75,0.73,4.19l3.56,1.69l-1.43,6.37l-3.95,0.01c-0.67,1.28-1.49,2.45-2.45,3.48l1.32,3.72l-5.52,3.49
						l-2.8-2.78c-1.34,0.42-2.75,0.67-4.19,0.73l-1.69,3.56l-6.37-1.43l-0.01-3.95c-1.28-0.67-2.45-1.49-3.48-2.45l-3.72,1.32
						l-3.49-5.52l2.79-2.8c-0.42-1.34-0.67-2.75-0.73-4.19l-3.56-1.69l1.43-6.37l3.94-0.01c0.67-1.28,1.49-2.45,2.45-3.48
						l-1.32-3.72l5.52-3.49l2.8,2.79c1.34-0.42,2.75-0.67,4.19-0.73l1.69-3.56l6.37,1.43L161.72,265.33L161.72,265.33z
						 M156.1,272.83c-3.77-0.85-7.52,1.53-8.37,5.3c-0.85,3.77,1.53,7.52,5.3,8.37c3.78,0.85,7.52-1.53,8.37-5.3
						C162.25,277.42,159.88,273.67,156.1,272.83z"/>
				</g>
			</g>
		</g>
		<g class="st2">
			<g>
				<g>
					<path class="st12" d="M161.72,265.33c1.28,0.67,2.45,1.49,3.48,2.45l3.72-1.32l3.49,5.52l-2.78,2.8
						c0.42,1.34,0.67,2.75,0.73,4.19l3.56,1.69l-1.43,6.37l-3.95,0.01c-0.67,1.28-1.49,2.45-2.45,3.48l1.32,3.72l-5.52,3.49
						l-2.8-2.78c-1.34,0.42-2.75,0.67-4.19,0.73l-1.69,3.56l-6.37-1.43l-0.01-3.95c-1.28-0.67-2.45-1.49-3.48-2.45l-3.72,1.32
						l-3.49-5.52l2.79-2.8c-0.42-1.34-0.67-2.75-0.73-4.19l-3.56-1.69l1.43-6.37l3.94-0.01c0.67-1.28,1.49-2.45,2.45-3.48
						l-1.32-3.72l5.52-3.49l2.8,2.79c1.34-0.42,2.75-0.67,4.19-0.73l1.69-3.56l6.37,1.43L161.72,265.33L161.72,265.33z
						 M156.1,272.83c-3.77-0.85-7.52,1.53-8.37,5.3c-0.85,3.77,1.53,7.52,5.3,8.37c3.78,0.85,7.52-1.53,8.37-5.3
						C162.25,277.42,159.88,273.67,156.1,272.83z"/>
				</g>
			</g>
		</g>
	</g>
	<g>
		<g>
			<g>
				<g>
					<path class="st11" d="M138.68,302.87c0.74,0.39,1.42,0.87,2.03,1.43l2.16-0.77l2.03,3.21l-1.62,1.63
						c0.25,0.78,0.39,1.6,0.43,2.44l2.07,0.99l-0.83,3.71l-2.3,0.01c-0.39,0.74-0.87,1.42-1.43,2.03l0.77,2.16l-3.21,2.03
						l-1.63-1.62c-0.78,0.25-1.6,0.39-2.44,0.42l-0.99,2.07l-3.71-0.83v-2.3c-0.74-0.39-1.42-0.87-2.03-1.43l-2.16,0.77l-2.03-3.21
						l1.62-1.63c-0.25-0.78-0.39-1.6-0.43-2.44l-2.07-0.99l0.83-3.71h2.3c0.39-0.74,0.87-1.42,1.43-2.03l-0.77-2.16l3.21-2.03
						l1.63,1.62c0.78-0.25,1.6-0.39,2.44-0.43l0.99-2.07l3.71,0.83L138.68,302.87L138.68,302.87z M135.41,307.23
						c-2.2-0.49-4.38,0.89-4.87,3.09c-0.49,2.2,0.89,4.38,3.09,4.87s4.38-0.89,4.87-3.09C138.99,309.9,137.61,307.72,135.41,307.23z
						"/>
				</g>
			</g>
		</g>
		<g class="st13">
			<g>
				<g>
					<path class="st12" d="M138.68,302.87c0.74,0.39,1.42,0.87,2.03,1.43l2.16-0.77l2.03,3.21l-1.62,1.63
						c0.25,0.78,0.39,1.6,0.43,2.44l2.07,0.99l-0.83,3.71l-2.3,0.01c-0.39,0.74-0.87,1.42-1.43,2.03l0.77,2.16l-3.21,2.03
						l-1.63-1.62c-0.78,0.25-1.6,0.39-2.44,0.42l-0.99,2.07l-3.71-0.83v-2.3c-0.74-0.39-1.42-0.87-2.03-1.43l-2.16,0.77l-2.03-3.21
						l1.62-1.63c-0.25-0.78-0.39-1.6-0.43-2.44l-2.07-0.99l0.83-3.71h2.3c0.39-0.74,0.87-1.42,1.43-2.03l-0.77-2.16l3.21-2.03
						l1.63,1.62c0.78-0.25,1.6-0.39,2.44-0.43l0.99-2.07l3.71,0.83L138.68,302.87L138.68,302.87z M135.41,307.23
						c-2.2-0.49-4.38,0.89-4.87,3.09c-0.49,2.2,0.89,4.38,3.09,4.87s4.38-0.89,4.87-3.09C138.99,309.9,137.61,307.72,135.41,307.23z
						"/>
				</g>
			</g>
		</g>
	</g>
</g>
<g id="Character">
	<g>
		<g>
			<g>
				<path class="st9" d="M359.53,266.07c4.21-1.09,7.33-5.4,7.06-9.74c-0.12-1.96-0.85-3.86-0.77-5.82
					c0.13-3.04,2.15-5.61,3.67-8.25c1.52-2.64,2.54-6.12,0.77-8.59c-1.15-1.61-3.18-2.33-4.57-3.73c-1.36-1.37-2.01-3.27-2.74-5.06
					c-0.73-1.79-1.67-3.64-3.35-4.59s-4.25-0.53-4.94,1.28"/>
				<path class="st9" d="M341.37,216.74c3-1.9,3.72-6.31,2.1-9.47c-1.62-3.15-5.07-5.07-8.57-5.64c-5.07-0.82-10.49,0.98-14.07,4.66
					c-1.93,1.99-3.5,4.59-6.12,5.5c-2.3,0.8-4.85,0.08-7.27,0.39c-3.24,0.42-6.02,2.73-7.69,5.54c-1.66,2.82-2.35,6.1-2.73,9.35
					c-0.35,2.98-0.59,6.25-2.65,8.43c-2.02,2.12-5.2,2.57-7.71,4.08c-4.72,2.84-6.25,9.87-3.13,14.41c0.99,1.45,2.42,2.78,2.53,4.53
					c0.11,1.6-0.93,3.02-1.41,4.55c-1.25,3.93,1.97,8.61,6.09,8.85c2.08,0.12,4.31-0.69,6.17,0.24c1.85,0.92,2.54,3.16,3.73,4.85
					c2.33,3.34,7.21,4.6,10.86,2.8c1.53-0.75,2.97-1.99,4.68-1.87c1.7,0.11,3.03,1.56,4.7,1.89c2.19,0.42,4.26-1.19,5.56-2.99
					c1.3-1.81,2.21-3.94,3.87-5.42c2.18-1.94,5.24-2.42,7.99-3.36c6.08-2.09,11.17-6.92,13.57-12.89c2.41-5.97,2.09-12.97-0.84-18.7
					"/>
				<g>
					<g>
						<g>
							<g>
								<g>
									<g>
										<g>
											<g>
												<g>
													<g>
														<g>
															<g>
																<g>
																	<path class="st14" d="M347.95,220.67c2.47,0.27,4.33,2.38,4.27,4.87l0,0l-2.86,64.67
																		c-0.12,7.64-11.28,11.93-19.46,11.74l0,0c-8.26-0.19-8.52-4.24-8.63-11.51c-0.17-12.14-0.16-16.7-0.16-16.63
																		c0,0-10.43-1.76-12.56-15.38c-1.06-6.77-0.7-17.87-0.1-26.95c0.53-8.17,5.97-18.18,14.1-17.3L347.95,220.67z"/>
																</g>
															</g>
														</g>
													</g>
												</g>
											</g>
											<g>
												<g>
													<g>
														<g>
															<g>
																<g>
																	<g>
																		<path class="st9" d="M311.44,240.3c-0.03,0.92,0.72,1.71,1.68,1.77c0.96,0.05,1.77-0.65,1.8-1.57
																			c0.03-0.92-0.72-1.71-1.68-1.77C312.28,238.68,311.48,239.38,311.44,240.3z"/>
																	</g>
																</g>
															</g>
														</g>
													</g>
												</g>
												<g>
													<g>
														<g>
															<g>
																<g>
																	<g>
																		<g>
																			<path class="st9" d="M310.84,237.27c0.22,0.23,1.54-0.75,3.42-0.74c1.88-0.02,3.25,0.95,3.46,0.72
																				c0.1-0.1-0.12-0.51-0.72-0.95c-0.59-0.44-1.6-0.86-2.77-0.86c-1.17,0-2.16,0.43-2.72,0.87
																				C310.93,236.75,310.73,237.17,310.84,237.27z"/>
																		</g>
																	</g>
																</g>
															</g>
														</g>
													</g>
												</g>
											</g>
											<g>
												<g>
													<g>
														<g>
															<g>
																<g>
																	<g>
																		<path class="st9" d="M330.17,240.3c-0.03,0.92,0.72,1.71,1.68,1.77c0.96,0.05,1.77-0.65,1.8-1.57
																			c0.03-0.92-0.72-1.71-1.68-1.77C331.01,238.68,330.2,239.38,330.17,240.3z"/>
																	</g>
																</g>
															</g>
														</g>
													</g>
												</g>
												<g>
													<g>
														<g>
															<g>
																<g>
																	<g>
																		<g>
																			<path class="st9" d="M329.31,237.66c0.22,0.23,1.54-0.75,3.42-0.74c1.88-0.02,3.25,0.95,3.46,0.72
																				c0.1-0.1-0.12-0.51-0.72-0.95c-0.59-0.44-1.6-0.86-2.77-0.86c-1.17,0-2.16,0.43-2.72,0.87
																				C329.4,237.15,329.2,237.56,329.31,237.66z"/>
																		</g>
																	</g>
																</g>
															</g>
														</g>
													</g>
												</g>
											</g>
											<g>
												<g>
													<g>
														<g>
															<g>
																<g>
																	<g>
																		<path class="st9" d="M322.46,251.58c0.01-0.11-1.16-0.31-3.05-0.56c-0.48-0.05-0.93-0.15-1.01-0.47
																			c-0.11-0.35,0.09-0.86,0.32-1.42c0.45-1.16,0.93-2.38,1.43-3.65c1.98-5.2,3.42-9.47,3.21-9.55
																			c-0.21-0.08-1.99,4.07-3.97,9.27c-0.48,1.28-0.93,2.5-1.37,3.67c-0.18,0.54-0.5,1.16-0.25,1.88
																			c0.13,0.36,0.48,0.62,0.79,0.7c0.31,0.09,0.58,0.1,0.81,0.12C321.27,251.67,322.45,251.69,322.46,251.58z"/>
																	</g>
																</g>
															</g>
														</g>
													</g>
												</g>
											</g>
											<g>
												<g>
													<g>
														<g>
															<g>
																<g>
																	<path class="st15" d="M321.11,273.81c0,0,9.16,0.61,18.24-4.82c0,0-4.62,9.6-18.24,8.3V273.81z"/>
																</g>
															</g>
														</g>
													</g>
												</g>
											</g>
											<g>
												<g>
													<g>
														<g>
															<g>
																<g>
																	<path class="st7" d="M323.24,256.11c0.68-0.89,1.86-1.38,3.04-1.25c0.82,0.09,1.64,0.48,2.13,1.15
																		c0.49,0.66,0.6,1.61,0.14,2.24c-0.51,0.71-1.57,0.87-2.46,0.62c-0.9-0.26-1.67-0.85-2.4-1.44
																		c-0.2-0.16-0.41-0.33-0.54-0.56c-0.13-0.22-0.15-0.51,0-0.7"/>
																</g>
															</g>
														</g>
													</g>
												</g>
											</g>
											<g>
												<g>
													<g>
														<g>
															<g>
																<g>
																	<g>
																		<path class="st9" d="M327.99,252.89c-0.31-0.02-0.31,2.02-2.06,3.46c-1.75,1.45-3.92,1.21-3.94,1.5
																			c-0.03,0.13,0.48,0.4,1.4,0.42c0.9,0.03,2.22-0.25,3.29-1.14s1.53-2.07,1.6-2.91
																			C328.35,253.39,328.12,252.88,327.99,252.89z"/>
																	</g>
																</g>
															</g>
														</g>
													</g>
												</g>
											</g>
										</g>
									</g>
								</g>
								<g>
									<g>
										<g>
											<g>
												<g>
													<g>
														<path class="st9" d="M328.47,234.37c0.18,0.51,2.06,0.27,4.26,0.54c2.21,0.23,3.99,0.88,4.28,0.42
															c0.13-0.22-0.18-0.7-0.9-1.2c-0.71-0.5-1.85-0.97-3.17-1.12s-2.54,0.06-3.34,0.38
															C328.8,233.72,328.39,234.13,328.47,234.37z"/>
													</g>
												</g>
											</g>
										</g>
									</g>
								</g>
								<g>
									<g>
										<g>
											<g>
												<g>
													<g>
														<path class="st9" d="M311.54,231.83c0.33,0.43,1.62-0.01,3.18-0.03c1.56-0.07,2.87,0.29,3.18-0.15
															c0.13-0.22-0.07-0.64-0.65-1.05c-0.57-0.4-1.52-0.74-2.58-0.71c-1.07,0.03-2,0.42-2.54,0.85
															C311.58,231.18,311.4,231.62,311.54,231.83z"/>
													</g>
												</g>
											</g>
										</g>
									</g>
								</g>
							</g>
						</g>
					</g>
				</g>
				<path class="st9" d="M339.01,216.24c3.12-2.1,7.16-3.06,10.79-2.02s6.64,4.32,6.77,8.02c0.08,2.41-0.96,4.96,0.11,7.13
					c1.02,2.06,3.52,2.9,5.29,4.4c2.79,2.35,3.61,6.65,1.88,9.82c-1.49,2.73-4.61,4.73-4.87,7.81c-0.25,2.9,2.2,5.35,2.79,8.2
					c0.66,3.14-1.08,6.4-3.58,8.48c-2.49,2.09-5.65,3.23-8.73,4.34c-2.4,0.87-4.98,1.74-7.47,1.18c-2.97-0.67-5.19-3.43-5.6-6.39
					c-0.41-2.96,0.81-5.99,2.84-8.22c1.75-1.93,4.2-3.56,4.62-6.1c0.65-3.96-4.06-7.21-3.77-11.21c0.15-2.06,1.6-3.77,2.82-5.47
					c1.21-1.7,2.27-3.83,1.52-5.77c-0.97-2.52-4.27-3.17-6.27-5.02c-1.67-1.54-2.35-4.04-1.67-6.19c0.67-2.15,2.67-3.85,4.94-4.21"
					/>
				<path class="st9" d="M340.47,213.17c0.01,2.73-1.25,5.43-3.34,7.18s-4.97,2.51-7.65,2.02c-2.08-0.38-4.36-1.43-6.16-0.32
					c-1.89,1.17-1.97,4.02-3.65,5.48c-2.4,2.08-6.22,0.13-9.26,1.03c-2.35,0.7-3.82,2.95-5.39,4.84c-1.56,1.89-3.9,3.69-6.26,2.99
					c0.15-2.12,0.3-4.25,0.93-6.28c0.63-2.02,1.79-3.96,3.57-5.12c0.97-0.63,2.1-1.02,3.01-1.75c1.95-1.58,2.41-4.32,3.61-6.52
					c1.55-2.84,4.56-4.83,7.78-5.16c2.68-0.27,5.44,0.53,8.05-0.13c1.93-0.49,3.62-1.74,5.57-2.11c3.81-0.72,7.35,2.01,10.11,4.73"
					/>
			</g>
			<g>
				<path class="st16" d="M365.34,245.72c-0.07-0.02,0.4-0.52,0.3-1.57c-0.08-1.03-0.94-2.49-2.74-3.13
					c-0.87-0.35-1.89-0.56-2.99-0.81c-1.1-0.26-2.32-0.59-3.39-1.4c-1.1-0.79-1.7-2.24-1.76-3.64c-0.09-1.42,0.14-2.85,0.21-4.29
					c0.03-0.72,0.01-1.42-0.11-2.09c-0.14-0.67-0.41-1.27-0.8-1.79c-0.82-1.02-2.1-1.47-3.28-1.88c-1.2-0.38-2.37-0.82-3.34-1.44
					c-0.98-0.6-1.8-1.3-2.46-2.01c-1.33-1.43-2.03-2.87-2.4-3.88c-0.18-0.51-0.3-0.91-0.35-1.19c-0.06-0.28-0.08-0.43-0.06-0.43
					c0.05-0.01,0.18,0.57,0.6,1.55c0.42,0.97,1.16,2.35,2.48,3.7c1.31,1.38,3.24,2.58,5.69,3.25c1.18,0.4,2.57,0.85,3.52,2.01
					c0.45,0.58,0.76,1.28,0.91,2.01c0.13,0.73,0.15,1.48,0.12,2.22c-0.08,1.48-0.3,2.89-0.22,4.23c0.07,1.33,0.57,2.57,1.55,3.3
					c0.96,0.74,2.12,1.08,3.2,1.36c1.09,0.27,2.13,0.5,3.03,0.89c0.9,0.38,1.66,0.93,2.11,1.58c0.46,0.64,0.66,1.32,0.69,1.87
					c0.03,0.56-0.11,0.98-0.25,1.23C365.47,245.62,365.35,245.73,365.34,245.72z"/>
			</g>
			<g>
				<path class="st16" d="M285.15,254.22c0,0.01-0.08-0.03-0.22-0.1c-0.14-0.08-0.34-0.24-0.51-0.52c-0.34-0.56-0.36-1.64,0.28-2.69
					c0.3-0.53,0.79-1.05,1.46-1.39c0.65-0.35,1.4-0.62,2.19-0.92c0.78-0.31,1.62-0.66,2.29-1.3s1.09-1.56,1.31-2.58
					c0.23-1.02,0.3-2.14,0.48-3.3c0.17-1.15,0.54-2.41,1.35-3.43c1.59-2.09,4.18-3.2,6.12-5.16c0.95-0.99,1.67-2.23,2.13-3.61
					c0.47-1.37,0.73-2.85,0.96-4.36c0.42-2.99,0.85-6.34,2.86-9.08c0.98-1.36,2.48-2.36,4.11-2.65c1.62-0.32,3.23-0.08,4.74,0.12
					c1.52,0.21,3.01,0.44,4.43,0.26c1.43-0.16,2.69-0.85,3.62-1.87c1.86-2,2.93-4.7,5.21-6.08c2.21-1.37,4.79-1.54,6.88-0.95
					c2.12,0.59,3.68,2.03,4.53,3.52c0.88,1.49,1.16,3,1.18,4.2c0.02,1.21-0.22,2.13-0.44,2.72s-0.4,0.87-0.4,0.87
					c-0.03-0.01,0.12-0.31,0.3-0.91c0.18-0.59,0.39-1.5,0.33-2.68c-0.05-1.17-0.35-2.63-1.22-4.06c-0.85-1.42-2.35-2.77-4.38-3.31
					c-2-0.54-4.47-0.35-6.55,0.96c-1.03,0.65-1.87,1.62-2.63,2.71c-0.77,1.08-1.47,2.28-2.47,3.34c-0.5,0.53-1.07,1.01-1.74,1.36
					c-0.67,0.33-1.4,0.59-2.16,0.67c-1.52,0.19-3.05-0.04-4.56-0.25c-1.51-0.2-3.07-0.42-4.57-0.12c-1.5,0.27-2.86,1.18-3.79,2.46
					c-0.94,1.27-1.54,2.76-1.95,4.27c-0.41,1.51-0.59,3.05-0.83,4.57c-0.23,1.52-0.5,3.02-1,4.45c-0.48,1.42-1.24,2.74-2.25,3.78
					c-2.05,2.03-4.63,3.12-6.12,5.08c-0.76,0.96-1.11,2.1-1.3,3.24c-0.19,1.13-0.27,2.26-0.52,3.32c-0.23,1.05-0.7,2.06-1.44,2.74
					c-0.74,0.69-1.62,1.03-2.41,1.33c-0.8,0.29-1.54,0.54-2.18,0.87c-0.64,0.31-1.09,0.79-1.4,1.28c-0.63,0.99-0.65,2-0.36,2.53
					C284.81,254.08,285.18,254.18,285.15,254.22z"/>
			</g>
		</g>
		<g>
			<path class="st7" d="M251.74,347.95l24.15-2.21c0,0,14.86-39.15,33.18-48.64l11.87,20.73l-25.41,47.73h-49.61L251.74,347.95z"/>
			<path class="st17" d="M251.74,347.95l24.15-2.21c0,0,14.86-39.15,33.18-48.64l11.87,20.73l-25.41,47.73h-49.61L251.74,347.95z"/>
			<g>
				<path class="st10" d="M261.28,359.01c-0.12-0.07,0.79-1.83,2.04-3.91c1.25-2.09,2.36-3.72,2.48-3.64
					c0.12,0.07-0.79,1.83-2.04,3.91S261.4,359.08,261.28,359.01z"/>
			</g>
			<g>
				<path class="st10" d="M278.39,358.53c-0.11,0.09-1.43-1.37-2.95-3.26c-1.52-1.89-2.66-3.49-2.55-3.58
					c0.11-0.09,1.43,1.37,2.95,3.26C277.36,356.84,278.5,358.44,278.39,358.53z"/>
			</g>
			<g>
				<path class="st10" d="M281.36,349.55c-0.14,0-0.26-1.42-0.26-3.17s0.12-3.17,0.26-3.17s0.26,1.42,0.26,3.17
					C281.62,348.14,281.5,349.55,281.36,349.55z"/>
			</g>
			<g>
				<path class="st10" d="M272.86,363.55c-0.08,0.12-1.11-0.42-2.31-1.2s-2.1-1.51-2.02-1.63c0.08-0.12,1.11,0.42,2.31,1.2
					C272.03,362.7,272.94,363.43,272.86,363.55z"/>
			</g>
			<g>
				<path class="st10" d="M286.73,327.57c0.13,0.06-0.62,2.01-1.67,4.36c-1.05,2.35-2.01,4.21-2.14,4.15s0.62-2.01,1.67-4.36
					C285.64,329.37,286.6,327.51,286.73,327.57z"/>
			</g>
			<g>
				<path class="st10" d="M296.52,311.71c0.09,0.11-0.78,0.92-1.93,1.79s-2.16,1.49-2.24,1.37c-0.09-0.11,0.78-0.92,1.93-1.79
					C295.42,312.21,296.43,311.59,296.52,311.71z"/>
			</g>
			<path class="st7" d="M332.64,362.47l12.46-50.31c2.17-8.76,10.77-14.33,19.65-12.73l0,0c9.14,1.65,15.3,10.29,13.88,19.46
				L371,368.06c-1.87,10.3-10.06,18.29-20.41,19.9l-9.9,1.54L332.64,362.47z"/>
			<g>
				<path class="st9" d="M371.9,296.18c-0.06,0.12-1.39-1.51-4.44-2.23c-1.5-0.35-3.38-0.43-5.36,0.04
					c-1.98,0.46-4.01,1.53-5.83,3.04c-3.65,3.06-5.64,7.04-6.99,9.82c-0.67,1.41-1.18,2.58-1.54,3.38c-0.36,0.8-0.57,1.24-0.61,1.22
					c-0.03-0.01,0.12-0.48,0.42-1.3c0.31-0.82,0.76-2.01,1.39-3.45c0.64-1.44,1.45-3.14,2.56-4.91s2.56-3.6,4.43-5.16
					c1.87-1.55,3.98-2.65,6.05-3.11c2.07-0.46,4.02-0.33,5.56,0.07c1.54,0.42,2.68,1.08,3.37,1.63c0.35,0.28,0.6,0.51,0.76,0.68
					C371.83,296.08,371.91,296.17,371.9,296.18z"/>
			</g>
			<g>
				<path class="st9" d="M301.33,307.5c0.01,0.01-0.11,0.17-0.35,0.47c-0.28,0.34-0.63,0.76-1.07,1.28
					c-0.92,1.11-2.24,2.73-3.74,4.83c-2.98,4.16-6.73,10.39-8.5,18.05c-1.74,7.67-1.82,14.85-2.12,20
					c-0.12,2.58-0.25,4.67-0.36,6.11c-0.06,0.67-0.11,1.22-0.15,1.66c-0.04,0.38-0.07,0.58-0.09,0.58s-0.02-0.2-0.02-0.58
					c0.01-0.44,0.03-0.99,0.05-1.66c0.05-1.51,0.11-3.59,0.19-6.11c0.2-5.15,0.23-12.35,1.98-20.1c1.8-7.77,5.65-14.02,8.71-18.15
					c1.55-2.08,2.91-3.67,3.88-4.74c0.48-0.54,0.88-0.94,1.14-1.21C301.17,307.63,301.32,307.49,301.33,307.5z"/>
			</g>
			<path class="st7" d="M381.15,307.39c-1.37-9-6.34-11.15-11.48-13.96c-1.68-0.92-9.79-3-16.22-4.57
				c-0.61-3.9-1.71-10.87-1.96-12.34c-0.34-2.07-32.76,3.1-33.17,3.88c-0.27,0.51-1.02,8.59-1.49,13.98l-7.76,2.71l-10.13,12.88
				l-5.27,7.49c-3.06,4.34-5.38,9.19-6.53,14.37c-1.28,5.73-1.45,11.33-1.45,17.42l-1.57,33.03l67.83,19.18l5.25-33.45l17.5-23.82
				C376.19,334.55,382.83,318.45,381.15,307.39z"/>
			<g>
				<path class="st9" d="M323.26,295.42c-0.07,0.01-0.24-0.87-0.45-2.29c-0.21-1.42-0.47-3.39-0.72-5.57
					c-0.12-1.08-0.23-2.11-0.34-3.08c-0.09-0.94-0.21-1.8-0.18-2.54c0.02-0.74,0.23-1.35,0.48-1.69c0.26-0.34,0.49-0.43,0.5-0.41
					c0.03,0.03-0.15,0.18-0.33,0.52s-0.31,0.89-0.29,1.58c0.02,0.69,0.17,1.54,0.29,2.49c0.12,0.97,0.24,1.99,0.38,3.07
					c0.25,2.18,0.45,4.16,0.57,5.59S323.33,295.42,323.26,295.42z"/>
			</g>
			<g>
				<path class="st9" d="M331.91,293.38c-0.06,0.02-0.37-0.77-0.72-2.1c-0.35-1.32-0.72-3.19-0.91-5.27
					c-0.19-2.09-0.17-3.99-0.07-5.35c0.1-1.37,0.26-2.2,0.33-2.19c0.16,0.01-0.13,3.38,0.26,7.5
					C331.16,290.09,332.07,293.34,331.91,293.38z"/>
			</g>
			<g>
				<path class="st9" d="M348.01,291.04c-0.17-0.02,0.55-3.38-0.18-7.46c-0.68-4.09-2.49-7.01-2.34-7.09
					c0.05-0.03,0.57,0.65,1.19,1.88s1.3,3.03,1.66,5.12c0.36,2.08,0.33,4.01,0.16,5.38C348.32,290.24,348.06,291.05,348.01,291.04z"
					/>
			</g>
			<g>
				<path class="st10" d="M301.95,320.46c-0.12-0.08,1.01-2.01,2.66-4.2c1.65-2.2,3.19-3.82,3.29-3.73c0.11,0.1-1.24,1.85-2.88,4.04
					C303.38,318.75,302.07,320.54,301.95,320.46z"/>
			</g>
			<g>
				<path class="st10" d="M317.23,308.03c-0.11,0.09-1.32-1.3-2.7-3.1c-1.38-1.8-2.4-3.33-2.28-3.42c0.11-0.09,1.32,1.3,2.7,3.1
					C316.32,306.41,317.34,307.94,317.23,308.03z"/>
			</g>
			<g>
				<path class="st10" d="M333.19,300.22c0.09,0.11-1.4,1.48-3.19,3.23c-1.79,1.74-3.2,3.2-3.31,3.11
					c-0.11-0.09,1.14-1.72,2.95-3.48C331.44,301.31,333.11,300.11,333.19,300.22z"/>
			</g>
			<g>
				<path class="st10" d="M328.71,290.7c-0.1,0.11-1.21-0.75-2.49-1.91s-2.24-2.19-2.14-2.29c0.1-0.11,1.21,0.75,2.49,1.91
					C327.85,289.57,328.81,290.6,328.71,290.7z"/>
			</g>
			<g>
				<path class="st10" d="M342.7,283.24c0.03,0.14-1.48,0.58-3.37,0.99c-1.89,0.4-3.45,0.62-3.48,0.48
					c-0.03-0.14,1.48-0.58,3.37-0.99C341.11,283.32,342.67,283.1,342.7,283.24z"/>
			</g>
			<g>
				<path class="st10" d="M345.5,305.39c-0.14,0.01-0.34-1.55-0.44-3.49c-0.1-1.93-0.06-3.51,0.08-3.51
					c0.14-0.01,0.34,1.55,0.44,3.49C345.68,303.81,345.64,305.38,345.5,305.39z"/>
			</g>
			<g>
				<path class="st10" d="M340.4,316.04c-0.14,0.05-0.92-1.76-1.75-4.04s-1.4-4.17-1.26-4.22c0.14-0.05,0.92,1.76,1.75,4.04
					C339.97,314.1,340.53,315.99,340.4,316.04z"/>
			</g>
			<g>
				<path class="st10" d="M326.54,323.55c-0.13,0.05-1-1.84-1.92-4.23c-0.93-2.39-1.57-4.37-1.44-4.42c0.13-0.05,1,1.84,1.92,4.23
					C326.03,321.52,326.67,323.5,326.54,323.55z"/>
			</g>
			<g>
				<path class="st10" d="M313.5,332.06c-0.14,0.03-0.64-1.85-1.12-4.19c-0.48-2.34-0.75-4.27-0.61-4.3s0.64,1.85,1.12,4.19
					C313.36,330.11,313.64,332.03,313.5,332.06z"/>
			</g>
			<g>
				<path class="st10" d="M298,332.4c-0.13,0.06-1.07-1.6-2.09-3.71c-1.03-2.11-1.76-3.87-1.63-3.93s1.07,1.6,2.1,3.71
					C297.4,330.58,298.13,332.34,298,332.4z"/>
			</g>
			<g>
				<path class="st10" d="M297.67,342.34c0.06,0.13-1.75,1.16-4.06,2.3c-2.31,1.14-4.23,1.96-4.29,1.83s1.75-1.16,4.06-2.3
					C295.68,343.03,297.6,342.21,297.67,342.34z"/>
			</g>
			<g>
				<path class="st10" d="M297.86,358.05c-0.13,0.05-0.86-1.55-1.41-3.64c-0.56-2.09-0.73-3.84-0.59-3.86
					c0.15-0.02,0.54,1.67,1.09,3.73C297.5,356.34,298,358,297.86,358.05z"/>
			</g>
			<g>
				<path class="st10" d="M294.65,369.1c-0.1,0.11-1.56-1.07-3.26-2.63c-1.71-1.56-3.01-2.91-2.91-3.02s1.56,1.07,3.27,2.64
					C293.45,367.64,294.75,368.99,294.65,369.1z"/>
			</g>
			<g>
				<path class="st10" d="M315.07,361.56c0.04,0.15-2.26,0.81-4.94,1.99c-2.69,1.17-4.73,2.41-4.81,2.28
					c-0.08-0.11,1.86-1.57,4.6-2.76C312.65,361.87,315.05,361.43,315.07,361.56z"/>
			</g>
			<g>
				<path class="st10" d="M309.1,356.09c-0.14,0.05-0.79-1.49-1.47-3.42c-0.68-1.94-1.11-3.55-0.98-3.6s0.79,1.49,1.47,3.42
					C308.8,354.43,309.24,356.04,309.1,356.09z"/>
			</g>
			<g>
				<path class="st10" d="M321.21,342.57c0.12,0.08-1.1,2.24-2.74,4.83c-1.63,2.59-3.06,4.63-3.18,4.55
					c-0.12-0.08,1.1-2.24,2.74-4.83C319.67,344.53,321.09,342.49,321.21,342.57z"/>
			</g>
			<g>
				<path class="st10" d="M334.23,343.86c-0.11,0.08-1.72-1.87-3.32-4.54c-1.61-2.67-2.57-5.01-2.44-5.07
					c0.14-0.06,1.3,2.16,2.89,4.8C332.93,341.7,334.35,343.78,334.23,343.86z"/>
			</g>
			<g>
				<path class="st10" d="M342.02,331.02c0.03,0.14-1.66,0.57-3.81,0.68c-2.14,0.11-3.87-0.16-3.86-0.3
					c0.01-0.15,1.73-0.12,3.83-0.22C340.29,331.08,341.99,330.88,342.02,331.02z"/>
			</g>
			<g>
				<path class="st10" d="M360.53,316.39c0.06,0.13-2.13,1.3-4.9,2.62s-5.06,2.28-5.13,2.15c-0.06-0.13,2.13-1.3,4.9-2.62
					C358.17,317.23,360.47,316.26,360.53,316.39z"/>
			</g>
			<g>
				<path class="st10" d="M361.76,307.09c-0.13-0.06,0.66-1.91,1.75-4.12c1.1-2.21,2.09-3.96,2.22-3.89
					c0.13,0.06-0.66,1.91-1.75,4.12C362.88,305.41,361.89,307.15,361.76,307.09z"/>
			</g>
			<g>
				<path class="st10" d="M373.52,314.39c-0.14,0.03-0.73-2.03-1.52-4.55c-0.79-2.52-1.48-4.55-1.34-4.6
					c0.13-0.05,1.05,1.91,1.84,4.45C373.3,312.23,373.66,314.36,373.52,314.39z"/>
			</g>
			<g>
				<path class="st10" d="M375.37,324.07c0.05,0.13-1.88,0.96-4.39,1.6c-2.51,0.65-4.6,0.84-4.62,0.7
					c-0.02-0.15,2.01-0.57,4.49-1.21C373.33,324.54,375.31,323.93,375.37,324.07z"/>
			</g>
			<g>
				<path class="st10" d="M355.21,335.89c-0.15-0.03,0.28-2.46,0.4-5.49c0.14-3.03-0.08-5.49,0.07-5.51
					c0.13-0.02,0.59,2.45,0.45,5.53C356.01,333.5,355.34,335.93,355.21,335.89z"/>
			</g>
			<g>
				<path class="st10" d="M351.19,348.05c-0.09,0.1-1.85-1.39-3.66-3.58c-1.81-2.18-2.96-4.18-2.84-4.26
					c0.13-0.08,1.45,1.77,3.24,3.92C349.72,346.3,351.3,347.95,351.19,348.05z"/>
			</g>
			<g>
				<path class="st10" d="M371.4,345.49c0.06,0.13-1.81,1.04-4.17,2.02c-2.36,0.99-4.32,1.68-4.37,1.54
					c-0.06-0.13,1.81-1.04,4.17-2.02C369.39,346.05,371.35,345.36,371.4,345.49z"/>
			</g>
			<g>
				<path class="st10" d="M364.16,368.39c-0.14,0-0.24-2.47-0.21-5.5c0.03-3.04,0.17-5.5,0.32-5.5c0.14,0,0.24,2.46,0.21,5.5
					C364.45,365.93,364.31,368.39,364.16,368.39z"/>
			</g>
			<g>
				<path class="st10" d="M348.65,367.07c-0.14-0.02,0.11-2.58,0.89-5.65c0.77-3.07,1.76-5.45,1.88-5.4
					c0.14,0.05-0.62,2.48-1.38,5.53C349.27,364.59,348.8,367.1,348.65,367.07z"/>
			</g>
			<g>
				<path class="st10" d="M349.36,373.08c0.01,0.15-2.49,0.39-5.52,0.9c-3.04,0.5-5.48,1.07-5.52,0.93
					c-0.04-0.13,2.36-0.94,5.43-1.44C346.83,372.95,349.36,372.94,349.36,373.08z"/>
			</g>
			<g>
				<path class="st10" d="M332.2,369.23c-0.1-0.1,1.22-1.64,2.96-3.44s3.24-3.18,3.34-3.08s-1.22,1.64-2.97,3.44
					C333.8,367.95,332.3,369.33,332.2,369.23z"/>
			</g>
			<g>
				<path class="st10" d="M321.09,380.04c-0.15,0.03-0.59-1.77-1.35-3.91c-0.75-2.15-1.53-3.83-1.4-3.9
					c0.12-0.07,1.12,1.53,1.89,3.72C321,378.14,321.22,380.02,321.09,380.04z"/>
			</g>
			<g>
				<path class="st10" d="M339.03,386.22c-0.06,0.13-2.3-0.74-5.02-1.94c-2.71-1.2-4.86-2.29-4.81-2.42
					c0.06-0.13,2.3,0.74,5.02,1.94C336.93,385.01,339.08,386.09,339.03,386.22z"/>
			</g>
			<g>
				<path class="st10" d="M307.76,384.41c-0.14-0.05,0.28-1.68,0.94-3.66s1.3-3.54,1.43-3.49c0.14,0.05-0.28,1.68-0.94,3.66
					C308.54,382.89,307.89,384.45,307.76,384.41z"/>
			</g>
			<g>
				<path class="st10" d="M328.36,387.9c-0.03,0.15-2.87-0.31-6.41-0.49c-3.54-0.2-6.41-0.04-6.42-0.19
					c-0.02-0.13,2.87-0.52,6.45-0.33C325.56,387.07,328.39,387.77,328.36,387.9z"/>
			</g>
			<g>
				<path class="st9" d="M332.64,358.41c-0.02,0-0.03-0.13-0.03-0.39c-0.01-0.26,0.02-0.65,0.16-1.13c0.13-0.48,0.44-1.09,1.09-1.49
					c0.63-0.41,1.51-0.55,2.44-0.4l-0.2,0.12c1.1-3.83,2.84-9.44,4.59-15.72c1.64-5.88,2.74-11.29,3.52-15.22
					c0.37-1.9,0.68-3.47,0.92-4.65c0.22-1.1,0.36-1.7,0.4-1.7c0.04,0.01-0.04,0.62-0.2,1.73c-0.16,1.11-0.41,2.71-0.75,4.68
					c-0.68,3.94-1.74,9.39-3.38,15.29c-1.75,6.3-3.57,11.88-4.76,15.68l-0.05,0.15l-0.16-0.03c-0.83-0.15-1.66-0.05-2.22,0.3
					c-0.59,0.33-0.9,0.87-1.05,1.31C332.65,357.85,332.71,358.42,332.64,358.41z"/>
			</g>
			<g>
				<path class="st9" d="M355.06,372.32c-0.09,0.04-0.7-1.31-1.97-3.33s-3.27-4.66-5.96-7.11c-2.7-2.44-5.51-4.19-7.64-5.26
					s-3.54-1.56-3.51-1.65c0.01-0.03,0.37,0.06,1.01,0.27c0.65,0.19,1.56,0.55,2.65,1.05c2.2,0.99,5.09,2.72,7.83,5.2
					c2.73,2.49,4.73,5.21,5.92,7.3c0.6,1.04,1.04,1.92,1.3,2.54C354.97,371.95,355.1,372.3,355.06,372.32z"/>
			</g>
			<g class="st18">
				<path d="M336.55,354.24c3.82,0.27,6.96,0.56,10.55,1.91s6.91,3.92,8.23,7.52c0.32,0.86,0.47,1.95-0.19,2.6
					c-0.48,0.47-1.26,0.53-1.89,0.3c-0.64-0.22-1.16-0.68-1.66-1.14c-2.2-2.04-4.49-3.84-6.77-5.8s-5.58-4.02-8.55-4.47"/>
			</g>
			<g>
				<path class="st9" d="M329.34,347.86c0.01,0.03-0.35,0.26-1.04,0.6c-0.69,0.35-1.74,0.78-3.08,1.16
					c-2.66,0.78-6.63,1.2-10.78,0.12c-4.15-1.08-7.42-3.38-9.36-5.35c-0.98-0.99-1.69-1.87-2.12-2.51
					c-0.44-0.64-0.64-1.02-0.62-1.03c0.08-0.06,0.99,1.41,3,3.28c1.98,1.87,5.19,4.06,9.23,5.11s7.92,0.7,10.55,0.03
					C327.78,348.6,329.29,347.76,329.34,347.86z"/>
			</g>
			<g class="st18">
				<path d="M302.88,341.62c1.68,3.66,3.66,7.35,6.85,9.8c1.84,1.42,3.99,2.61,6.32,2.65c3.34,0.05,6.2-2.22,8.75-4.38
					C316.55,350.98,307.25,347.24,302.88,341.62"/>
			</g>
			<g>
				<path class="st9" d="M339.86,292.62c-0.16-0.01,0.03-3.43-0.38-7.62c-0.39-4.19-1.23-7.52-1.07-7.56
					c0.06-0.02,0.36,0.79,0.69,2.15c0.34,1.35,0.7,3.25,0.9,5.36c0.2,2.12,0.21,4.05,0.13,5.44
					C340.06,291.77,339.92,292.62,339.86,292.62z"/>
			</g>
		</g>
		<g>
			<path class="st7" d="M221.24,426.44c0,0-10.87,2.35-20.57,0.89c-9.1-1.36-29.47,0.05-29.46,12.04
				c0.01,13.37,27.17,10.07,37.77,7.95s21.15-4.04,21.15-4.04L221.24,426.44z"/>
			<g>
				<path class="st9" d="M196.84,443.57c-0.14,0.03-0.73-2.05-1.31-4.65s-0.95-4.74-0.8-4.77c0.14-0.03,0.73,2.05,1.31,4.65
					C196.62,441.4,196.98,443.54,196.84,443.57z"/>
			</g>
			<g>
				<path class="st9" d="M200.55,443.75c-0.14,0.02-0.55-2.12-0.92-4.77c-0.36-2.66-0.54-4.82-0.4-4.84s0.55,2.12,0.92,4.77
					C200.51,441.56,200.69,443.73,200.55,443.75z"/>
			</g>
			<g>
				<path class="st9" d="M204.13,442.35c-0.14,0.02-0.49-1.85-0.77-4.17s-0.39-4.21-0.25-4.23c0.14-0.02,0.49,1.85,0.77,4.17
					S204.27,442.33,204.13,442.35z"/>
			</g>
			<g>
				<path class="st9" d="M209.75,440.95c-0.13,0.05-0.9-1.5-1.4-3.58c-0.51-2.07-0.54-3.81-0.4-3.82c0.15-0.01,0.41,1.67,0.91,3.7
					C209.35,439.28,209.89,440.89,209.75,440.95z"/>
			</g>
			<g>
				<path class="st9" d="M210.96,436.06c0-0.03,0.5-0.11,1.42-0.09c0.91,0.03,2.26,0.17,3.82,0.75c0.39,0.15,0.8,0.34,1.18,0.63
					c0.37,0.29,0.72,0.75,0.74,1.33c0.01,1.18-1.29,2.04-2.46,1.79c-1.19-0.23-2.09-1.1-2.84-2.02c-0.76-0.95-1.3-2.1-1.61-3.34
					c-0.6-2.49-0.15-5.07,1.2-6.92c0.2-0.22,0.47-0.43,0.81-0.49c0.33-0.06,0.69,0.07,0.9,0.28c0.45,0.42,0.6,0.96,0.68,1.46
					c0.13,0.98,0.06,1.91-0.14,2.72c-0.39,1.63-1.21,2.76-1.83,3.43c-0.32,0.33-0.6,0.56-0.79,0.7c-0.2,0.14-0.31,0.2-0.32,0.19
					c-0.03-0.04,0.38-0.34,0.96-1.03c0.56-0.69,1.3-1.81,1.63-3.38c0.17-0.78,0.21-1.66,0.08-2.58c-0.07-0.43-0.24-0.9-0.56-1.18
					c-0.31-0.28-0.75-0.2-1.05,0.18c-1.17,1.65-1.63,4.15-1.05,6.49c0.29,1.17,0.8,2.26,1.5,3.15c0.69,0.88,1.55,1.68,2.52,1.86
					c0.93,0.23,1.96-0.5,1.94-1.31c0-0.4-0.24-0.77-0.56-1.02c-0.32-0.26-0.69-0.45-1.05-0.6c-1.49-0.6-2.8-0.8-3.7-0.89
					C211.46,436.08,210.96,436.1,210.96,436.06z"/>
			</g>
			<g>
				<path class="st9" d="M229.05,441.51c0,0.01-0.09,0.04-0.27,0.09c-0.21,0.05-0.48,0.12-0.82,0.2c-0.76,0.17-1.81,0.41-3.15,0.72
					c-2.74,0.6-6.72,1.45-11.66,2.4c-4.94,0.95-10.84,2.03-17.46,2.93c-3.3,0.44-6.83,0.84-10.49,0.52
					c-1.83-0.13-3.68-0.45-5.49-1.05c-0.9-0.32-1.8-0.67-2.64-1.17s-1.65-1.04-2.32-1.87l0.04,0.04c-0.34-0.32-0.69-0.7-0.95-1.13
					c-1.11-1.78-1.15-3.98-0.55-5.85c0.61-1.91,1.97-3.44,3.48-4.55c1.53-1.12,3.24-1.9,4.95-2.45c0.87-0.25,1.71-0.54,2.57-0.74
					c0.86-0.17,1.71-0.4,2.56-0.52c6.81-1.08,13.01-0.53,18.15-0.53c2.58,0.05,4.91-0.02,6.95-0.15c2.04-0.15,3.79-0.39,5.2-0.66
					c0.7-0.15,1.33-0.28,1.87-0.39c0.52-0.15,0.97-0.28,1.35-0.38c0.34-0.09,0.62-0.17,0.83-0.23c0.19-0.05,0.29-0.07,0.29-0.06
					s-0.09,0.05-0.27,0.11c-0.21,0.07-0.48,0.16-0.82,0.28c-0.37,0.12-0.82,0.27-1.34,0.43c-0.55,0.13-1.17,0.28-1.87,0.44
					c-1.42,0.3-3.17,0.57-5.22,0.75c-2.05,0.15-4.39,0.25-6.98,0.23c-5.16,0.04-11.35-0.46-18.07,0.63
					c-0.84,0.12-1.67,0.35-2.52,0.52c-0.85,0.19-1.67,0.49-2.53,0.73c-1.68,0.55-3.34,1.32-4.81,2.39c-1.45,1.08-2.73,2.53-3.29,4.3
					c-0.56,1.75-0.51,3.81,0.5,5.42c0.23,0.4,0.55,0.73,0.85,1.02l0.02,0.02l0.02,0.03c0.55,0.68,1.35,1.25,2.15,1.71
					c0.8,0.48,1.67,0.82,2.54,1.13c1.76,0.59,3.58,0.9,5.37,1.03c3.6,0.32,7.09-0.06,10.39-0.49c6.6-0.87,12.51-1.92,17.45-2.82
					c4.95-0.91,8.93-1.7,11.68-2.24c1.35-0.27,2.41-0.47,3.17-0.62c0.34-0.06,0.61-0.11,0.83-0.15
					C228.95,441.51,229.05,441.5,229.05,441.51z"/>
			</g>
			<g>
				<path class="st9" d="M189.31,447.95c-0.08,0-0.14-1.06-0.26-2.78c-0.12-1.71-0.33-4.08-0.67-6.67c-0.35-2.6-0.77-4.93-1.11-6.62
					c-0.33-1.69-0.55-2.73-0.48-2.75c0.06-0.02,0.41,0.99,0.84,2.67c0.43,1.67,0.91,4.01,1.26,6.63c0.35,2.61,0.5,5,0.53,6.73
					C189.44,446.88,189.37,447.95,189.31,447.95z"/>
			</g>
			<polygon class="st19" points="217.89,427.02 224.78,444.27 230.12,443.28 219.89,426.44 			"/>
		</g>
		<path class="st9" d="M307.65,379.74c-1.11,0.37-72.28-19.58-101.07-27.67c-7.56-2.13-15.67-0.9-22.26,3.37l-0.35,0.22
			c-9.68,6.26-14.39,17.92-11.77,29.15l0,0c1.66,7.13,6.1,13.29,12.34,17.11c18.98,11.63,59.15,36.09,60.38,35.62
			c1.61-0.62,51.78-1.92,51.78-1.92l-60.35-43.4l28.71,18.56L307.65,379.74L307.65,379.74z"/>
		<path class="st14" d="M248.23,358.08l15.13-7.83l14.84,9.3l55.55,1.81l8.04,27.04l-80.4-18.64c0,0-14.63,1.29-15.73-1.99
			C244.56,364.49,248.23,358.08,248.23,358.08z"/>
		<path class="st9" d="M293.74,401.42l-7.48,24.56l0.93,7.48l0,0c13.62,13.73,35.34,15.2,50.68,3.42l0,0
			c9.33-7.16,14.77-18.27,14.72-30.03l-0.11-25.66L293.74,401.42z"/>
		<g>
			<path class="st16" d="M249.2,401.58c-0.09,0.12-8.77-6.21-19.39-14.13s-19.16-14.44-19.08-14.55c0.09-0.12,8.77,6.21,19.39,14.14
				C240.75,394.94,249.29,401.46,249.2,401.58z"/>
		</g>
		<g>
			<path class="st15" d="M262.34,355.15c0.04,0.14-3.27,1.32-7.4,2.64s-7.52,2.29-7.56,2.15s3.27-1.32,7.4-2.64
				C258.91,355.98,262.29,355.02,262.34,355.15z"/>
		</g>
		<g>
			<path class="st15" d="M263.47,359.76c0.01,0.08-0.98,0.22-2.58,0.48c-1.59,0.26-3.79,0.65-6.18,1.2
				c-2.4,0.55-4.54,1.16-6.09,1.62s-2.5,0.76-2.53,0.69c-0.02-0.06,0.89-0.49,2.41-1.04c1.52-0.55,3.67-1.22,6.09-1.78
				c2.42-0.55,4.64-0.89,6.25-1.06C262.46,359.72,263.46,359.7,263.47,359.76z"/>
		</g>
		<g>
			<path class="st15" d="M262.2,363.99c0.03,0.14-3.7,1-8.34,1.92c-4.63,0.92-8.41,1.55-8.44,1.41c-0.03-0.14,3.7-1,8.34-1.92
				C258.4,364.48,262.18,363.85,262.2,363.99z"/>
		</g>
		<g>
			<path class="st16" d="M242.58,321.8l13.96,45.92c0.16,0.53,0.63,0.9,1.17,0.94l38.03,2.85c0.69,0.05,1.23,0.63,1.23,1.33v2.37
				c0,0.74-0.61,1.34-1.36,1.33l-103.96-1.95c-0.54-0.01-1.02-0.35-1.22-0.86l-18.28-47.9c-0.32-0.85,0.28-1.76,1.18-1.8l67.91-3.18
				C241.85,320.83,242.4,321.22,242.58,321.8z"/>
			<path class="st0" d="M213.28,341.58c-0.74,0.19-1.91,1.24-2.06,2.34c-0.14,1.1,0.45,2.21,1.34,2.86c1.1,0.79,2.68,0.89,3.8,0.14
				c1.12-0.75,1.62-2.24,1.04-3.84C216.94,341.82,214.62,340.93,213.28,341.58"/>
		</g>
		<g>
			<path class="st9" d="M230.12,443.28l-10.99-18.08l80.8-63.33c5.03-4.12,11.17-6.64,17.65-7.23l0,0
				c20.1-1.83,36.98,14.93,35.3,35.04l-1.29,15.45l-53.63,17.23L230.12,443.28z"/>
			<g>
				<path class="st16" d="M333.74,400.36c0.01,0.01-0.07,0.07-0.21,0.2c-0.17,0.14-0.39,0.32-0.66,0.54
					c-0.62,0.49-1.48,1.18-2.57,2.05c-0.56,0.45-1.19,0.94-1.87,1.48s-1.49,1.04-2.32,1.63c-0.84,0.58-1.74,1.19-2.68,1.84
					c-0.48,0.32-0.96,0.67-1.47,1c-0.52,0.31-1.06,0.64-1.6,0.97c-2.2,1.31-4.57,2.81-7.25,4.17c-1.33,0.7-2.69,1.46-4.13,2.17
					c-1.45,0.69-2.94,1.39-4.47,2.12c-6.15,2.8-13.04,5.62-20.43,8.14c-14.76,5.09-28.4,8.75-38.18,11.71
					c-2.45,0.72-4.66,1.4-6.59,2.01c-1.94,0.6-3.61,1.11-4.96,1.57c-1.33,0.43-2.38,0.77-3.13,1.02c-0.34,0.1-0.61,0.19-0.82,0.25
					c-0.19,0.05-0.28,0.08-0.28,0.07c0-0.01,0.09-0.05,0.27-0.12c0.21-0.08,0.47-0.18,0.8-0.3c0.74-0.27,1.78-0.64,3.1-1.11
					c1.34-0.49,3-1.03,4.94-1.66c1.93-0.64,4.13-1.34,6.57-2.08c9.75-3.05,23.38-6.77,38.11-11.85c7.37-2.51,14.25-5.31,20.4-8.08
					c1.53-0.72,3.02-1.41,4.46-2.09c1.44-0.7,2.79-1.45,4.13-2.14c2.69-1.34,5.06-2.82,7.26-4.1c0.55-0.32,1.09-0.64,1.61-0.95
					c0.51-0.32,1-0.66,1.48-0.98c0.95-0.64,1.86-1.24,2.7-1.8c0.84-0.57,1.65-1.06,2.33-1.59c0.69-0.52,1.32-1,1.89-1.44
					c1.12-0.84,2-1.5,2.63-1.97c0.28-0.21,0.51-0.37,0.69-0.5C333.65,400.41,333.74,400.35,333.74,400.36z"/>
			</g>
			<g>
				<path class="st16" d="M335.7,408.81c0.01,0.03-0.28,0.18-0.82,0.43s-1.33,0.57-2.32,0.94c-1.98,0.74-4.77,1.61-7.92,2.29
					c-3.16,0.68-6.06,1.03-8.17,1.17c-1.05,0.07-1.91,0.1-2.5,0.1s-0.92-0.02-0.92-0.05c0-0.08,1.3-0.18,3.38-0.41
					c2.09-0.23,4.96-0.64,8.09-1.31c3.13-0.67,5.91-1.49,7.91-2.13C334.45,409.18,335.67,408.74,335.7,408.81z"/>
			</g>
			<g>
				<path class="st16" d="M296.7,364.91c0.09,0.11-17.21,13.7-38.62,30.35c-21.42,16.65-38.86,30.05-38.95,29.94
					s17.2-13.7,38.63-30.35C279.18,378.2,296.62,364.8,296.7,364.91z"/>
			</g>
			<g>
				<g>
					<path class="st7" d="M292.03,432.11c-3.88-2.07-8.23-0.85-11.94,0.4c-2.47,0.83-5.03,2.15-7.54,1.44
						c-1.81-0.51-3.16-1.98-4.55-3.26c-5.58-5.15-13.29-7.96-20.89-7.48c-2.16,0.14-4.27,1-5.74,2.59
						c-3.81,4.12-0.94,9.49,2.47,12.96c6.01,6.12,14.18,10.07,22.71,10.96c7.09,0.74,16.84-0.24,24.03-3.32
						c4.43-1.9,6.71-7.13,4.38-11.35C294.3,433.83,293.31,432.79,292.03,432.11z"/>
					<g class="st13">
						<path d="M292.03,435.41c-3.88-2.07-8.23-0.85-11.94,0.4c-2.47,0.83-5.03,2.15-7.54,1.44c-1.81-0.51-3.16-1.98-4.55-3.26
							c-5.58-5.15-13.29-7.96-20.89-7.48c-2.16,0.14-4.27,1-5.74,2.59c-0.84,0.91-1.34,1.89-1.6,2.89c0.56,2.48,2.23,4.9,4.06,6.77
							c6.01,6.12,14.18,10.07,22.71,10.96c7.09,0.74,16.84-0.24,24.03-3.32c2.67-1.14,4.54-3.49,5.11-6.09
							c-0.15-0.66-0.38-1.32-0.73-1.96C294.29,437.13,293.3,436.09,292.03,435.41z"/>
					</g>
				</g>
				<g>
					<path class="st9" d="M295.7,440.32c-0.07,0.02-0.05-0.95-0.95-2.3c-0.45-0.66-1.12-1.4-2.07-2.03
						c-0.94-0.63-2.15-1.18-3.56-1.36c-2.88-0.34-6.21,0.87-9.92,1.88c-1.83,0.48-3.83,1.23-6.02,0.95
						c-1.07-0.14-2.14-0.49-3.1-1.07c-0.95-0.57-1.82-1.28-2.66-2c-3.19-3.12-6.98-5.07-10.6-6.3c-1.81-0.61-3.59-1.01-5.27-1.22
						c-1.69-0.22-3.27-0.25-4.69-0.03s-2.65,0.69-3.63,1.27c-0.97,0.59-1.7,1.27-2.22,1.88c-1.03,1.25-1.38,2.1-1.43,2.07
						c0,0,0.27-0.88,1.27-2.19c0.51-0.64,1.23-1.37,2.23-2c1-0.62,2.26-1.13,3.72-1.38s3.09-0.24,4.8-0.04
						c1.72,0.2,3.53,0.59,5.37,1.2c1.85,0.6,3.72,1.42,5.56,2.46c0.91,0.53,1.84,1.08,2.71,1.76c0.86,0.68,1.68,1.42,2.52,2.14
						s1.68,1.41,2.59,1.95c0.9,0.55,1.89,0.88,2.9,1.01c2.03,0.27,3.97-0.43,5.83-0.91c3.69-0.97,7.08-2.17,10.09-1.78
						c2.99,0.48,4.91,2.27,5.76,3.65c0.44,0.7,0.63,1.33,0.72,1.75C295.71,440.09,295.71,440.32,295.7,440.32z"/>
				</g>
				<g>
					<path class="st9" d="M295.7,440.32c-0.07,0.02-0.05-0.95-0.95-2.3c-0.45-0.66-1.12-1.4-2.07-2.03
						c-0.94-0.63-2.15-1.18-3.56-1.36c-2.88-0.34-6.21,0.87-9.92,1.88c-1.83,0.48-3.83,1.23-6.02,0.95
						c-1.07-0.14-2.14-0.49-3.1-1.07c-0.95-0.57-1.82-1.28-2.66-2c-3.19-3.12-6.98-5.07-10.6-6.3c-1.81-0.61-3.59-1.01-5.27-1.22
						c-1.69-0.22-3.27-0.25-4.69-0.03s-2.65,0.69-3.63,1.27c-0.97,0.59-1.7,1.27-2.22,1.88c-1.03,1.25-1.38,2.1-1.43,2.07
						c0,0,0.27-0.88,1.27-2.19c0.51-0.64,1.23-1.37,2.23-2c1-0.62,2.26-1.13,3.72-1.38s3.09-0.24,4.8-0.04
						c1.72,0.2,3.53,0.59,5.37,1.2c1.85,0.6,3.72,1.42,5.56,2.46c0.91,0.53,1.84,1.08,2.71,1.76c0.86,0.68,1.68,1.42,2.52,2.14
						s1.68,1.41,2.59,1.95c0.9,0.55,1.89,0.88,2.9,1.01c2.03,0.27,3.97-0.43,5.83-0.91c3.69-0.97,7.08-2.17,10.09-1.78
						c2.99,0.48,4.91,2.27,5.76,3.65c0.44,0.7,0.63,1.33,0.72,1.75C295.71,440.09,295.71,440.32,295.7,440.32z"/>
				</g>
				<g>
					<path class="st9" d="M247.63,439.38c-0.04-0.06,0.71-0.6,1.98-1.38c1.27-0.78,3.08-1.77,5.13-2.74
						c2.06-0.97,3.98-1.72,5.39-2.21s2.3-0.72,2.32-0.65c0.02,0.07-0.82,0.42-2.19,0.99c-1.37,0.57-3.25,1.37-5.3,2.33
						c-2.04,0.96-3.86,1.9-5.18,2.59C248.48,439.02,247.67,439.45,247.63,439.38z"/>
				</g>
				<g>
					<path class="st9" d="M248.96,443.26c-0.06-0.13,3.33-1.9,7.57-3.95c4.24-2.05,7.73-3.61,7.8-3.48c0.06,0.13-3.33,1.9-7.57,3.95
						C252.52,441.83,249.03,443.39,248.96,443.26z"/>
				</g>
				<g>
					<path class="st9" d="M265.02,444.94c-0.08,0.12-4.21-2.34-9.22-5.5c-5.02-3.16-9.02-5.82-8.95-5.94
						c0.08-0.12,4.21,2.34,9.22,5.5C261.09,442.16,265.1,444.82,265.02,444.94z"/>
				</g>
				<g>
					<path class="st9" d="M267.34,440.92c-0.05,0.06-0.81-0.48-2.02-1.35c-1.22-0.88-2.89-2.09-4.77-3.39
						c-1.88-1.3-3.6-2.45-4.85-3.28s-2.01-1.36-1.97-1.42c0.04-0.06,0.87,0.35,2.17,1.11c1.3,0.75,3.06,1.85,4.95,3.16
						c1.88,1.31,3.53,2.57,4.69,3.52C266.71,440.23,267.39,440.86,267.34,440.92z"/>
				</g>
			</g>
		</g>
	</g>
</g>
</svg>
